<?xml version="1.0" encoding="utf-8"?>
<!-- Generator: Adobe Illustrator 24.0.1, SVG Export Plug-In . SVG Version: 6.00 Build 0)  -->
<svg version="1.1" id="Layer_1" xmlns="http://www.w3.org/2000/svg" xmlns:xlink="http://www.w3.org/1999/xlink" x="0px" y="0px"
	 viewBox="0 0 177 24.3" style="enable-background:new 0 0 177 24.3;" xml:space="preserve">
<style type="text/css">
	.st0{fill:#E3000F;}
	.st1{fill:#33145C;}
	.st2{fill-rule:evenodd;clip-rule:evenodd;fill:#2281C4;}
	.st3{fill:#2281C4;}
	.st4{fill:#6E6E6E;}
</style>
<title>logo1</title>
<path class="st0" d="M46.7,2.9L32.9,16.8l6,6c1.9,1.9,5.1,1.9,7,0c0,0,0,0,0,0L65.7,2.9H46.7z"/>
<path class="st1" d="M0,2.9l19.8,19.8c1.9,1.9,5.1,1.9,7,0c0,0,0,0,0,0l6-6L19,2.9H0z"/>
<polygon class="st2" points="19,0 32.9,13.8 46.7,0 "/>
<path class="st3" d="M123.9,14.1V1.5h2.8c1.3,0,2.6,0,3.8,0.3c0.7,0.2,1.4,0.5,1.9,0.9c0.7,0.6,1.3,1.3,1.7,2.2c0.4,1,0.6,2,0.6,3
	c0,1-0.2,2.1-0.6,3c-0.4,0.8-0.9,1.6-1.7,2.2c-0.6,0.4-1.2,0.7-1.9,0.9c-1.1,0.2-2.2,0.3-3.3,0.3L123.9,14.1L123.9,14.1z
	 M125.9,12.3h1.7c0.7,0,1.4,0,2.1-0.2c0.5-0.1,0.9-0.3,1.2-0.6c0.5-0.4,0.9-0.9,1.1-1.5c0.5-1.4,0.5-2.9,0-4.2
	c-0.2-0.6-0.6-1.1-1.1-1.5c-0.4-0.3-0.8-0.5-1.3-0.6c-0.8-0.2-1.6-0.2-2.3-0.2h-1.5L125.9,12.3z M115.6,14.1V1.5h2.1v10.8h4.6v1.8
	H115.6z M107.6,8.5v5.7h-1.9V1.5h2.9c0.7,0,1.3,0,2,0.2c0.4,0.1,0.8,0.3,1.2,0.5c0.4,0.3,0.7,0.7,0.9,1.2c0.2,0.5,0.3,1,0.3,1.6
	c0.1,0.9-0.2,1.7-0.7,2.4c-0.6,0.6-1.3,1-2.2,1l4.4,5.8H112l-4.2-5.7L107.6,8.5z M107.7,6.9h0.4c0.7,0.1,1.5-0.1,2.2-0.4
	c0.4-0.3,0.6-0.8,0.5-1.3c0.1-0.6-0.2-1.1-0.6-1.5c-0.7-0.4-1.4-0.5-2.1-0.4h-0.4L107.7,6.9z M103.3,7.9c0,0.9-0.2,1.7-0.5,2.5
	c-0.3,0.8-0.8,1.5-1.4,2.2c-0.6,0.6-1.4,1.1-2.2,1.4c-0.8,0.3-1.7,0.5-2.6,0.5c-0.9,0-1.8-0.2-2.6-0.5c-0.8-0.3-1.6-0.8-2.2-1.4
	c-0.6-0.6-1.1-1.3-1.5-2.1c-0.3-0.8-0.5-1.7-0.5-2.6c0-2.7,1.6-5.1,4.2-6.1c1.7-0.7,3.5-0.7,5.2,0c0.8,0.3,1.6,0.8,2.2,1.4
	c0.6,0.6,1.1,1.4,1.5,2.2C103.1,6.2,103.3,7,103.3,7.9L103.3,7.9z M101.1,7.9c0-0.6-0.1-1.2-0.4-1.8c-0.2-0.6-0.6-1.1-1-1.5
	c-0.4-0.4-0.9-0.8-1.5-1c-0.6-0.2-1.2-0.4-1.8-0.4c-0.6,0-1.2,0.1-1.8,0.3c-1.1,0.5-2,1.4-2.5,2.6c-0.7,1.8-0.3,3.8,1,5.2
	c0.9,0.9,2.1,1.4,3.3,1.3c0.6,0,1.2-0.1,1.8-0.3c0.6-0.2,1.1-0.6,1.5-1c0.4-0.4,0.8-1,1-1.5C101,9.1,101.1,8.5,101.1,7.9L101.1,7.9z
	 M72.2,1.5h2l2.4,6.4L77,9c0.1,0.3,0.2,0.6,0.3,0.9c0.2-0.7,0.4-1.3,0.6-2L78,7.8L80.5,1l2.7,6.9c0.1,0.3,0.2,0.7,0.4,1
	c0.1,0.3,0.2,0.7,0.3,1C83.9,9.6,84,9.3,84.1,9c0.1-0.3,0.2-0.7,0.4-1.1l2.4-6.4h2L84,14.6l-2.9-7.2c-0.1-0.3-0.2-0.6-0.4-0.9
	c-0.1-0.3-0.2-0.6-0.3-0.8c-0.1,0.3-0.2,0.7-0.3,1c-0.1,0.3-0.2,0.6-0.3,0.8l-2.7,7.1L72.2,1.5z"/>
<path class="st4" d="M164,14.4l4.4-12.6h4.3l4.4,12.6h-3.4l-0.6-2.3h-4.9l-0.6,2.3H164z M168.8,9.6h3.4l-1.3-4.2
	c0-0.1-0.1-0.3-0.2-0.6s-0.1-0.6-0.3-1.1c-0.1,0.3-0.1,0.6-0.2,0.9s-0.1,0.6-0.2,0.8L168.8,9.6z M155.8,10.3c0.4,0.5,0.9,1,1.5,1.3
	c0.4,0.3,1,0.4,1.5,0.4c0.4,0,0.8-0.1,1.1-0.4c0.3-0.2,0.5-0.6,0.4-0.9c0-0.4-0.1-0.7-0.4-1c-0.5-0.3-1.1-0.6-1.7-0.7
	c-1-0.2-1.9-0.6-2.6-1.3c-0.5-0.6-0.8-1.4-0.8-2.2c-0.1-1.1,0.4-2.2,1.2-3c0.9-0.8,2-1.2,3.1-1.2c0.7,0,1.4,0.1,2,0.3
	c0.6,0.2,1.2,0.5,1.8,0.8l-1.1,2.5c-0.4-0.3-0.8-0.6-1.2-0.8c-0.4-0.2-0.8-0.2-1.2-0.2c-0.4,0-0.7,0.1-1,0.3
	c-0.2,0.2-0.4,0.5-0.4,0.8c0,0.3,0.1,0.6,0.4,0.8c0.4,0.3,0.8,0.5,1.3,0.6h0.2c1,0.2,2,0.6,2.8,1.2c0.3,0.3,0.5,0.7,0.7,1.1
	c0.5,1.6,0.1,3.4-1.1,4.7c-1,0.8-2.2,1.3-3.5,1.2c-0.8,0-1.6-0.1-2.4-0.4c-0.8-0.3-1.5-0.8-2.1-1.4L155.8,10.3z M148.9,14.4V1.7h3.5
	v12.6H148.9z M139.9,14.4l-5.3-12.6h3.7l2.5,7.1c0,0.1,0.1,0.2,0.1,0.5s0.2,0.7,0.3,1.2c0.1-0.4,0.2-0.7,0.3-1.1s0.1-0.5,0.2-0.6
	l2.4-7.1h3.7l-5.3,12.6H139.9z"/>
<path class="st4" d="M175.9,22.6c0-0.1,0.1-0.3,0.2-0.4c0.2-0.2,0.6-0.2,0.8,0c0.1,0.1,0.2,0.2,0.2,0.4c0,0.2-0.1,0.3-0.2,0.4
	c-0.1,0.1-0.2,0.2-0.4,0.2c-0.1,0-0.3-0.1-0.4-0.2C176,22.9,175.9,22.7,175.9,22.6 M174.1,22.6c0-0.3,0.2-0.6,0.5-0.6
	c0.1,0,0.3,0.1,0.4,0.2c0.1,0.1,0.2,0.2,0.2,0.4c0,0.3-0.2,0.6-0.5,0.6c0,0,0,0,0,0c-0.1,0-0.3-0.1-0.4-0.2
	C174.2,22.9,174.1,22.7,174.1,22.6z M172.3,22.6c0-0.1,0.1-0.3,0.2-0.4c0.1-0.1,0.3-0.2,0.4-0.2c0.3,0,0.6,0.2,0.6,0.5v0
	c0,0.1-0.1,0.3-0.2,0.4c-0.1,0.1-0.2,0.2-0.4,0.2C172.5,23.2,172.3,22.9,172.3,22.6C172.3,22.6,172.3,22.6,172.3,22.6z M168.4,18.5
	v3.8l0,0c0.4,0,0.8,0,1.2-0.1c0.3,0,0.5-0.2,0.8-0.3c0.2-0.2,0.4-0.4,0.6-0.6c0.1-0.3,0.2-0.6,0.2-0.9c0-0.4-0.1-0.8-0.3-1.1
	c-0.2-0.3-0.5-0.5-0.8-0.7c-0.4-0.1-0.8-0.2-1.3-0.2L168.4,18.5z M167.6,17.8h1.3c0.8-0.1,1.6,0.2,2.2,0.8c0.5,0.5,0.7,1.1,0.7,1.8
	c0,0.7-0.3,1.3-0.8,1.8c-0.6,0.6-1.4,0.8-2.2,0.8h-1.3L167.6,17.8z M164.5,19.3l-0.8,1.9h1.7L164.5,19.3z M164.5,17.6l2.5,5.4h-0.7
	l-0.6-1.3h-2.2l-0.6,1.3H162L164.5,17.6z M161,20.5c0-0.6-0.2-1.1-0.6-1.5c-0.4-0.4-1-0.6-1.5-0.6c-0.6,0-1.1,0.2-1.5,0.6
	c-0.8,0.8-0.8,2-0.1,2.8c0,0,0,0,0.1,0.1c0.4,0.4,1,0.6,1.6,0.6c0.6,0,1.1-0.2,1.5-0.6C160.8,21.5,161,21,161,20.5L161,20.5z
	 M156,20.4c0-0.7,0.3-1.4,0.9-1.9c0.6-0.5,1.3-0.8,2.1-0.8c0.7,0,1.5,0.3,2,0.8c0.5,0.5,0.9,1.2,0.9,1.9c0,0.8-0.3,1.5-0.8,2
	c-1.2,1.1-2.9,1.1-4.1,0C156.3,21.9,155.9,21.2,156,20.4L156,20.4z M152.8,18.5v1.8c1,0,1.6-0.3,1.6-0.9c0-0.2-0.1-0.4-0.2-0.5
	c-0.1-0.1-0.3-0.3-0.5-0.3C153.4,18.5,153.1,18.4,152.8,18.5L152.8,18.5z M152.1,17.8h1.1c0.5,0,1,0.1,1.4,0.4
	c0.3,0.3,0.5,0.7,0.5,1.1c0,0.3-0.1,0.7-0.3,0.9c-0.3,0.3-0.7,0.5-1.1,0.6l1.5,2.2h-0.8l-1.4-2.2h-0.2v2.2h-0.7L152.1,17.8z
	 M148.6,20.6v1.8h0.1c0.4,0,0.9-0.1,1.2-0.3c0.2-0.1,0.3-0.4,0.3-0.6c0-0.3-0.1-0.5-0.4-0.7c-0.3-0.2-0.7-0.3-1-0.2H148.6z
	 M148.6,18.5V20c0.3,0,0.6-0.1,0.9-0.2c0.2-0.1,0.3-0.4,0.3-0.6c0-0.2-0.1-0.4-0.3-0.5c-0.2-0.1-0.5-0.2-0.8-0.2L148.6,18.5z
	 M147.9,17.8h0.8c0.5,0,0.9,0.1,1.3,0.4c0.3,0.2,0.5,0.5,0.5,0.9c0,0.5-0.3,0.9-0.8,1.1c0.8,0.3,1.2,0.7,1.2,1.4
	c0,0.4-0.2,0.9-0.6,1.1c-0.5,0.3-1.1,0.4-1.6,0.4h-0.9V17.8z M144.7,19.3l-0.8,1.9h1.7L144.7,19.3z M144.7,17.6l2.5,5.4h-0.8
	l-0.6-1.3h-2.2l-0.6,1.3h-0.8L144.7,17.6z M139.4,18.4l-0.6,0.5c-0.1-0.1-0.3-0.2-0.4-0.3c-0.2-0.1-0.4-0.1-0.5-0.1
	c-0.3,0-0.5,0-0.7,0.2c-0.2,0.1-0.2,0.3-0.2,0.4c0,0.2,0.1,0.3,0.2,0.4c0.2,0.2,0.5,0.3,0.7,0.4c0.3,0.1,0.5,0.3,0.8,0.4
	c0.2,0.1,0.3,0.3,0.5,0.4c0.1,0.1,0.2,0.3,0.3,0.5c0.1,0.2,0.1,0.4,0.1,0.5c0,0.4-0.2,0.8-0.5,1.1c-0.3,0.3-0.7,0.5-1.1,0.5
	c-0.4,0-0.8-0.1-1.2-0.4c-0.4-0.3-0.6-0.7-0.8-1.1l0.7-0.2c0.2,0.5,0.7,0.9,1.2,0.9c0.2,0,0.5-0.1,0.6-0.2c0.3-0.3,0.3-0.7,0.1-1
	c-0.1-0.1-0.2-0.3-0.3-0.3c-0.2-0.1-0.4-0.2-0.6-0.3c-0.2-0.1-0.5-0.2-0.7-0.3c-0.2-0.1-0.3-0.2-0.4-0.4c-0.1-0.1-0.2-0.3-0.3-0.4
	c-0.1-0.1-0.1-0.3-0.1-0.4c0-0.4,0.2-0.8,0.5-1c0.3-0.3,0.7-0.4,1.1-0.4c0.3,0,0.6,0.1,0.9,0.2C138.8,18,139.1,18.2,139.4,18.4
	L139.4,18.4z M132.8,18.5v1.8c1,0,1.6-0.3,1.6-0.9c0-0.2-0.1-0.4-0.2-0.5c-0.1-0.2-0.3-0.3-0.5-0.3C133.4,18.5,133,18.4,132.8,18.5
	L132.8,18.5z M132.1,17.8h1.1c0.5,0,1,0.1,1.4,0.4c0.3,0.3,0.5,0.7,0.5,1.1c0,0.3-0.1,0.7-0.3,0.9c-0.3,0.3-0.7,0.5-1.1,0.6l1.5,2.2
	h-0.8l-1.4-2.2h-0.2v2.2H132L132.1,17.8z M128.2,17.8h2.9v0.8h-2.2v1.3h2.2v0.7h-2.2v1.8h2.2v0.7h-3L128.2,17.8z M124.5,17.8h2.9
	v0.8h-2.3v1.3h2.2v0.7h-2.2v1.8h2.2v0.7h-2.9L124.5,17.8z M121.2,18.5v1.8c1,0,1.6-0.3,1.6-0.9c0-0.2-0.1-0.4-0.2-0.5
	c-0.1-0.2-0.3-0.3-0.5-0.3C121.8,18.5,121.4,18.4,121.2,18.5L121.2,18.5z M120.5,17.8h1.1c0.5,0,1,0.1,1.4,0.4
	c0.3,0.3,0.5,0.7,0.5,1.1c0,0.3-0.1,0.7-0.3,0.9c-0.3,0.3-0.7,0.5-1.1,0.6l1.5,2.2h-0.8l-1.4-2.2h-0.2v2.2h-0.7L120.5,17.8z
	 M117.1,19.3l-0.8,1.9h1.7L117.1,19.3z M117.1,17.6l2.5,5.4h-0.7l-0.6-1.3H116l-0.6,1.3h-0.7L117.1,17.6z M114.3,18v0.8
	c-0.5-0.3-1-0.4-1.6-0.4c-0.6,0-1.1,0.2-1.5,0.6c-0.4,0.4-0.6,0.9-0.6,1.4c0,0.6,0.2,1.1,0.6,1.5c0.4,0.4,1,0.6,1.6,0.6
	c0.5,0,1-0.2,1.5-0.4v0.8c-0.5,0.3-1,0.4-1.6,0.4c-0.8,0-1.5-0.3-2.1-0.8c-1.1-1-1.2-2.7-0.2-3.8c0.1-0.1,0.1-0.1,0.2-0.2
	c0.5-0.5,1.3-0.8,2.1-0.8C113.3,17.6,113.8,17.8,114.3,18L114.3,18z"/>
</svg>
