<svg width="183" height="25" viewBox="0 0 183 25" fill="none" xmlns="http://www.w3.org/2000/svg">
<g clip-path="url(#clip0)">
<path d="M48.2832 2.98355L34.0154 17.284L40.2188 23.4568C42.1832 25.4115 45.4916 25.4115 47.4561 23.4568L67.9272 2.98355H48.2832Z" fill="white"/>
<path d="M0 2.98355L20.4712 23.3539C22.4356 25.3087 25.7441 25.3087 27.7085 23.3539L33.9119 17.1811L19.6441 2.98355H0Z" fill="white"/>
<path fill-rule="evenodd" clip-rule="evenodd" d="M19.644 0L34.0152 14.1975L48.283 0H19.644Z" fill="white"/>
<path d="M128.1 14.5062V1.54321H130.995C132.339 1.54321 133.683 1.54321 134.924 1.85185C135.647 2.05762 136.371 2.36626 136.888 2.77778C137.612 3.39506 138.232 4.11523 138.646 5.04115C139.059 6.06996 139.266 7.09877 139.266 8.12757C139.266 9.15638 139.059 10.2881 138.646 11.214C138.232 12.037 137.715 12.8601 136.888 13.4774C136.268 13.8889 135.647 14.1975 134.924 14.4033C133.786 14.6091 132.649 14.7119 131.512 14.7119L128.1 14.5062ZM130.168 12.6543H131.925C132.649 12.6543 133.373 12.6543 134.097 12.4486C134.614 12.3457 135.027 12.1399 135.337 11.8313C135.854 11.4198 136.268 10.9054 136.475 10.2881C136.992 8.84774 136.992 7.30453 136.475 5.96708C136.268 5.3498 135.854 4.83539 135.337 4.42387C134.924 4.11523 134.51 3.90947 133.993 3.80659C133.166 3.60083 132.339 3.60083 131.615 3.60083H130.064L130.168 12.6543ZM119.519 14.5062V1.54321H121.69V12.6543H126.446V14.5062H119.519ZM111.247 8.74486V14.6091H109.283V1.54321H112.281C113.005 1.54321 113.625 1.54321 114.349 1.74897C114.763 1.85185 115.176 2.05762 115.59 2.26338C116.003 2.57202 116.314 2.98354 116.52 3.49794C116.727 4.01235 116.831 4.52675 116.831 5.14404C116.934 6.06996 116.624 6.89301 116.107 7.61317C115.486 8.23046 114.763 8.64198 113.832 8.64198L118.381 14.6091H115.797L111.454 8.74486H111.247ZM111.351 7.09877H111.764C112.488 7.20165 113.315 6.99589 114.039 6.68725C114.453 6.3786 114.659 5.8642 114.556 5.3498C114.659 4.73251 114.349 4.21811 113.936 3.80659C113.212 3.39506 112.488 3.29218 111.764 3.39506H111.351V7.09877ZM106.802 8.12757C106.802 9.0535 106.595 9.87655 106.285 10.6996C105.975 11.5226 105.458 12.2428 104.837 12.963C104.217 13.5803 103.39 14.0947 102.563 14.4033C101.736 14.7119 100.805 14.9177 99.8746 14.9177C98.9441 14.9177 98.0136 14.7119 97.1864 14.4033C96.3593 14.0947 95.5322 13.5803 94.9119 12.963C94.2915 12.3457 93.7746 11.6255 93.361 10.8025C93.0509 9.97943 92.8441 9.0535 92.8441 8.12757C92.8441 5.3498 94.4983 2.88066 97.1864 1.85185C98.9441 1.13169 100.805 1.13169 102.563 1.85185C103.39 2.1605 104.217 2.6749 104.837 3.29218C105.458 3.90947 105.975 4.73251 106.388 5.55556C106.595 6.3786 106.802 7.20165 106.802 8.12757ZM104.527 8.12757C104.527 7.51029 104.424 6.89301 104.114 6.27572C103.907 5.65844 103.493 5.14404 103.08 4.73251C102.666 4.32099 102.149 3.90947 101.529 3.70371C100.908 3.49794 100.288 3.29218 99.6678 3.29218C99.0475 3.29218 98.4271 3.39506 97.8068 3.60083C96.6695 4.11523 95.739 5.04115 95.222 6.27572C94.4983 8.12757 94.9119 10.1852 96.2559 11.6255C97.1864 12.5514 98.4271 13.0658 99.6678 12.963C100.288 12.963 100.908 12.8601 101.529 12.6543C102.149 12.4486 102.666 12.037 103.08 11.6255C103.493 11.214 103.907 10.5967 104.114 10.0823C104.424 9.36214 104.527 8.74486 104.527 8.12757ZM74.6475 1.54321H76.7153L79.1966 8.12757L79.6102 9.25926C79.7136 9.5679 79.817 9.87655 79.9203 10.1852C80.1271 9.46502 80.3339 8.84774 80.5407 8.12757L80.6441 8.02469L83.2288 1.02881L86.0203 8.12757C86.1237 8.43622 86.2271 8.84774 86.4339 9.15638C86.5373 9.46502 86.6407 9.87655 86.7441 10.1852C86.7441 9.87655 86.8475 9.5679 86.9509 9.25926C87.0542 8.95062 87.1576 8.5391 87.3644 8.12757L89.8458 1.54321H91.9136L86.8475 15.0206L83.8492 7.61317C83.7458 7.30453 83.6424 6.99589 83.4356 6.68725C83.3322 6.3786 83.2288 6.06996 83.1254 5.8642C83.022 6.17284 82.9186 6.58436 82.8153 6.89301C82.7119 7.20165 82.6085 7.51029 82.5051 7.71605L79.7136 15.0206L74.6475 1.54321Z" fill="white"/>
<path d="M169.559 14.8148L174.108 1.85187H178.554L183.103 14.8148H179.588L178.968 12.4486H173.902L173.281 14.8148H169.559ZM174.522 9.87656H178.037L176.693 5.55557C176.693 5.45269 176.59 5.24693 176.486 4.93829C176.383 4.62964 176.383 4.321 176.176 3.8066C176.073 4.11524 176.073 4.42388 175.969 4.73253C175.866 5.04117 175.866 5.34981 175.763 5.55557L174.522 9.87656ZM161.081 10.5967C161.495 11.1111 162.012 11.6255 162.632 11.9342C163.046 12.2428 163.666 12.3457 164.183 12.3457C164.597 12.3457 165.01 12.2428 165.32 11.9342C165.63 11.7284 165.837 11.3169 165.734 11.0082C165.734 10.5967 165.63 10.2881 165.32 9.97944C164.803 9.6708 164.183 9.36215 163.563 9.25927C162.529 9.05351 161.598 8.64199 160.874 7.92182C160.358 7.30454 160.047 6.4815 160.047 5.65845C159.944 4.52676 160.461 3.39508 161.288 2.57203C162.219 1.74899 163.356 1.33746 164.493 1.33746C165.217 1.33746 165.941 1.44034 166.561 1.64611C167.181 1.85187 167.802 2.16051 168.422 2.46915L167.285 5.04117C166.871 4.73253 166.458 4.42388 166.044 4.21812C165.63 4.01236 165.217 4.01236 164.803 4.01236C164.39 4.01236 164.08 4.11524 163.769 4.321C163.563 4.52676 163.356 4.83541 163.356 5.14405C163.356 5.45269 163.459 5.76133 163.769 5.96709C164.183 6.27573 164.596 6.4815 165.113 6.58438H165.32C166.354 6.79014 167.388 7.20166 168.215 7.81894C168.525 8.12759 168.732 8.53911 168.939 8.95063C169.456 10.5967 169.042 12.4486 167.802 13.786C166.768 14.6091 165.527 15.1235 164.183 15.0206C163.356 15.0206 162.529 14.9177 161.702 14.6091C160.874 14.3004 160.151 13.786 159.53 13.1687L161.081 10.5967ZM153.947 14.8148V1.74899H157.566V14.7119H153.947V14.8148ZM144.642 14.8148L139.163 1.85187H142.988L145.573 9.15639C145.573 9.25927 145.676 9.36215 145.676 9.6708C145.676 9.97944 145.883 10.391 145.986 10.9054C146.09 10.4938 146.193 10.1852 146.296 9.77368C146.4 9.36215 146.4 9.25927 146.503 9.15639L148.985 1.85187H152.81L147.33 14.8148H144.642Z" fill="white"/>
<path d="M181.863 23.251C181.863 23.1481 181.966 22.9424 182.07 22.8395C182.276 22.6337 182.69 22.6337 182.897 22.8395C183 22.9424 183.103 23.0453 183.103 23.251C183.103 23.4568 183 23.5597 182.897 23.6626C182.793 23.7654 182.69 23.8683 182.483 23.8683C182.38 23.8683 182.173 23.7654 182.07 23.6626C181.966 23.5597 181.863 23.3539 181.863 23.251ZM180.002 23.251C180.002 22.9424 180.209 22.6337 180.519 22.6337C180.622 22.6337 180.829 22.7366 180.932 22.8395C181.036 22.9424 181.139 23.0453 181.139 23.251C181.139 23.5597 180.932 23.8683 180.622 23.8683C180.519 23.8683 180.312 23.7654 180.209 23.6626C180.105 23.5597 180.002 23.3539 180.002 23.251ZM178.141 23.251C178.141 23.1481 178.244 22.9424 178.348 22.8395C178.451 22.7366 178.658 22.6337 178.761 22.6337C179.071 22.6337 179.381 22.8395 179.381 23.1481C179.381 23.251 179.278 23.4568 179.175 23.5597C179.071 23.6625 178.968 23.7654 178.761 23.7654C178.348 23.8683 178.141 23.5597 178.141 23.251ZM174.109 19.0329V22.9424C174.522 22.9424 174.936 22.9424 175.349 22.8395C175.659 22.8395 175.866 22.6337 176.176 22.5309C176.383 22.3251 176.59 22.1193 176.797 21.9136C176.9 21.6049 177.003 21.2963 177.003 20.9877C177.003 20.5761 176.9 20.1646 176.693 19.856C176.486 19.5473 176.176 19.3416 175.866 19.1358C175.453 19.0329 175.039 18.93 174.522 18.93L174.109 19.0329ZM173.281 18.3128H174.625C175.453 18.2099 176.28 18.5185 176.9 19.1358C177.417 19.6502 177.624 20.2675 177.624 20.9877C177.624 21.7078 177.314 22.3251 176.797 22.8395C176.176 23.4568 175.349 23.6626 174.522 23.6626H173.178L173.281 18.3128ZM170.076 19.856L169.249 21.8107H171.007L170.076 19.856ZM170.076 18.107L172.661 23.6626H171.937L171.317 22.3251H169.042L168.422 23.6626H167.492L170.076 18.107ZM166.458 21.0905C166.458 20.4732 166.251 19.9588 165.837 19.5473C165.424 19.1358 164.803 18.93 164.286 18.93C163.666 18.93 163.149 19.1358 162.736 19.5473C161.909 20.3704 161.909 21.6049 162.632 22.428C162.632 22.428 162.632 22.428 162.736 22.5309C163.149 22.9424 163.77 23.1481 164.39 23.1481C165.01 23.1481 165.527 22.9424 165.941 22.5309C166.251 22.1193 166.458 21.6049 166.458 21.0905ZM161.288 20.9877C161.288 20.2675 161.598 19.5473 162.219 19.0329C162.839 18.5185 163.563 18.2099 164.39 18.2099C165.114 18.2099 165.941 18.5185 166.458 19.0329C166.975 19.5473 167.388 20.2675 167.388 20.9877C167.388 21.8107 167.078 22.5309 166.561 23.0453C165.32 24.177 163.563 24.177 162.322 23.0453C161.598 22.5309 161.185 21.8107 161.288 20.9877ZM157.98 19.0329V20.8848C159.014 20.8848 159.634 20.5761 159.634 19.9588C159.634 19.7531 159.531 19.5473 159.427 19.4444C159.324 19.3416 159.117 19.1358 158.91 19.1358C158.6 19.0329 158.29 18.93 157.98 19.0329ZM157.256 18.3128H158.393C158.91 18.3128 159.427 18.4156 159.841 18.7243C160.151 19.0329 160.358 19.4444 160.358 19.856C160.358 20.1646 160.254 20.5761 160.048 20.7819C159.737 21.0905 159.324 21.2963 158.91 21.3992L160.461 23.6626H159.634L158.186 21.3992H157.98V23.6626H157.256V18.3128ZM153.637 21.1934V23.0453H153.741C154.154 23.0453 154.671 22.9424 154.981 22.7366C155.188 22.6337 155.292 22.3251 155.292 22.1193C155.292 21.8107 155.188 21.6049 154.878 21.3992C154.568 21.1934 154.154 21.0905 153.844 21.1934H153.637ZM153.637 19.0329V20.5761C153.948 20.5761 154.258 20.4732 154.568 20.3704C154.775 20.2675 154.878 19.9588 154.878 19.7531C154.878 19.5473 154.775 19.3416 154.568 19.2387C154.361 19.1358 154.051 19.0329 153.741 19.0329H153.637ZM152.914 18.3128H153.741C154.258 18.3128 154.671 18.4156 155.085 18.7243C155.395 18.93 155.602 19.2387 155.602 19.6502C155.602 20.1646 155.292 20.5761 154.775 20.7819C155.602 21.0905 156.015 21.5021 156.015 22.2222C156.015 22.6337 155.809 23.1481 155.395 23.3539C154.878 23.6626 154.258 23.7654 153.741 23.7654H152.81V18.3128H152.914ZM149.605 19.856L148.778 21.8107H150.536L149.605 19.856ZM149.605 18.107L152.19 23.6626H151.363L150.742 22.3251H148.468L147.848 23.6626H147.02L149.605 18.107ZM144.125 18.93L143.505 19.4444C143.402 19.3416 143.195 19.2387 143.092 19.1358C142.885 19.0329 142.678 19.0329 142.575 19.0329C142.264 19.0329 142.058 19.0329 141.851 19.2387C141.644 19.3416 141.644 19.5473 141.644 19.6502C141.644 19.856 141.748 19.9588 141.851 20.0617C142.058 20.2675 142.368 20.3704 142.575 20.4732C142.885 20.5761 143.092 20.7819 143.402 20.8848C143.609 20.9877 143.712 21.1934 143.919 21.2963C144.022 21.3992 144.125 21.6049 144.229 21.8107C144.332 22.0165 144.332 22.2222 144.332 22.3251C144.332 22.7366 144.125 23.1481 143.815 23.4568C143.505 23.7654 143.092 23.9712 142.678 23.9712C142.264 23.9712 141.851 23.8683 141.437 23.5597C141.024 23.251 140.817 22.8395 140.61 22.428L141.334 22.2222C141.541 22.7366 142.058 23.1481 142.575 23.1481C142.781 23.1481 143.092 23.0453 143.195 22.9424C143.505 22.6337 143.505 22.2222 143.298 21.9136C143.195 21.8107 143.092 21.6049 142.988 21.6049C142.781 21.5021 142.575 21.3992 142.368 21.2963C142.161 21.1934 141.851 21.0905 141.644 20.9877C141.437 20.8848 141.334 20.7819 141.231 20.5761C141.127 20.4732 141.024 20.2675 140.92 20.1646C140.817 20.0617 140.817 19.856 140.817 19.7531C140.817 19.3416 141.024 18.93 141.334 18.7243C141.644 18.4156 142.058 18.3128 142.471 18.3128C142.781 18.3128 143.092 18.4156 143.402 18.5185C143.505 18.5185 143.815 18.7243 144.125 18.93ZM137.302 19.0329V20.8848C138.336 20.8848 138.956 20.5761 138.956 19.9588C138.956 19.7531 138.853 19.5473 138.749 19.4444C138.646 19.2387 138.439 19.1358 138.232 19.1358C137.922 19.0329 137.509 18.93 137.302 19.0329ZM136.578 18.3128H137.715C138.232 18.3128 138.749 18.4156 139.163 18.7243C139.473 19.0329 139.68 19.4444 139.68 19.856C139.68 20.1646 139.576 20.5761 139.37 20.7819C139.059 21.0905 138.646 21.2963 138.232 21.3992L139.783 23.6626H138.956L137.509 21.3992H137.302V23.6626H136.475L136.578 18.3128ZM132.546 18.3128H135.544V19.1358H133.27V20.4732H135.544V21.1934H133.27V23.0453H135.544V23.7654H132.442L132.546 18.3128ZM128.72 18.3128H131.719V19.1358H129.341V20.4732H131.615V21.1934H129.341V23.0453H131.615V23.7654H128.617L128.72 18.3128ZM125.309 19.0329V20.8848C126.342 20.8848 126.963 20.5761 126.963 19.9588C126.963 19.7531 126.859 19.5473 126.756 19.4444C126.653 19.2387 126.446 19.1358 126.239 19.1358C125.929 19.0329 125.515 18.93 125.309 19.0329ZM124.585 18.3128H125.722C126.239 18.3128 126.756 18.4156 127.17 18.7243C127.48 19.0329 127.687 19.4444 127.687 19.856C127.687 20.1646 127.583 20.5761 127.376 20.7819C127.066 21.0905 126.653 21.2963 126.239 21.3992L127.79 23.6626H126.963L125.515 21.3992H125.309V23.6626H124.585V18.3128ZM121.07 19.856L120.242 21.8107H122L121.07 19.856ZM121.07 18.107L123.654 23.6626H122.931L122.31 22.3251H119.932L119.312 23.6626H118.588L121.07 18.107ZM118.175 18.5185V19.3416C117.658 19.0329 117.141 18.93 116.52 18.93C115.9 18.93 115.383 19.1358 114.97 19.5473C114.556 19.9588 114.349 20.4732 114.349 20.9877C114.349 21.6049 114.556 22.1193 114.97 22.5309C115.383 22.9424 116.003 23.1481 116.624 23.1481C117.141 23.1481 117.658 22.9424 118.175 22.7366V23.5597C117.658 23.8683 117.141 23.9712 116.52 23.9712C115.693 23.9712 114.97 23.6626 114.349 23.1481C113.212 22.1193 113.109 20.3704 114.142 19.2387C114.246 19.1358 114.246 19.1358 114.349 19.0329C114.866 18.5185 115.693 18.2099 116.52 18.2099C117.141 18.107 117.658 18.3128 118.175 18.5185Z" fill="white"/>
</g>
<defs>
<clipPath id="clip0">
<rect width="183" height="25" fill="white"/>
</clipPath>
</defs>
</svg>
