<svg width="130" height="121" viewBox="0 0 130 121" fill="none" xmlns="http://www.w3.org/2000/svg">
<path d="M42.5091 0C41.7291 0 41.0791 0.546522 41.0791 1.20235V14.3189C41.0791 14.9747 41.7291 15.5212 42.5091 15.5212C43.2891 15.5212 43.9391 14.9747 43.9391 14.3189V1.20235C43.9391 0.546522 43.2891 0 42.5091 0Z" fill="#33145C"/>
<path d="M48.0993 21.205H39.7793V29.075H49.1393L48.0993 21.205Z" fill="#33145C"/>
<path d="M46.6693 15.6305H39.7793V20.6585H47.5793L46.6693 15.6305Z" fill="#33145C"/>
<path d="M54.9908 41.8636H34.1908L31.5908 35.5239L34.1908 29.075H55.2508L56.8108 35.0867L54.9908 41.8636Z" fill="#33145C"/>
<path d="M50.9609 41.8636H36.9209V55.0894H50.9609V41.8636Z" fill="#33145C"/>
<path d="M52.9109 51.2638L38.8709 54.3243C37.7009 54.5429 36.9209 55.4174 36.9209 56.5104V67.9874C36.9209 69.1897 38.0909 70.1735 39.5209 70.1735H48.8809C50.0509 70.1735 51.0909 69.5176 51.4809 68.5339L56.1609 53.9964C56.5509 52.3568 54.8609 50.8266 52.9109 51.2638Z" fill="#33145C"/>
<path d="M50.83 69.299H39V107.337H50.83V69.299Z" fill="#33145C"/>
<path d="M109.945 108.043H102.995C98.3615 108.043 94.5459 104.974 94.5459 101.248V74.5052C94.5459 70.7787 98.3615 67.7099 102.995 67.7099H109.945C114.578 67.7099 118.393 70.7787 118.393 74.5052V101.138C118.393 104.974 114.714 108.043 109.945 108.043Z" fill="#33145C"/>
<path d="M94.1366 108.043H82.925C79.7668 108.043 77.2402 106.285 77.2402 104.088V90.6827C77.2402 88.4851 79.7668 86.7271 82.925 86.7271H94.1366C97.2948 86.7271 99.8214 88.4851 99.8214 90.6827V97.3851V104.088C99.8214 106.285 97.2948 108.043 94.1366 108.043Z" fill="#33145C"/>
<path d="M75.6608 107.993H68.7708C66.1708 107.993 64.0908 106.244 64.0908 104.058V83.7272C64.0908 81.5411 66.1708 79.7923 68.7708 79.7923H75.6608C78.2608 79.7923 80.3408 81.5411 80.3408 83.7272V104.058C80.3408 106.244 78.2608 107.993 75.6608 107.993Z" fill="#33145C"/>
<path d="M42.9 69.2991H39V73.3433H42.9V69.2991Z" fill="black"/>
<path d="M42.9 75.3108H39V79.3551H42.9V75.3108Z" fill="black"/>
<path d="M77.2205 85.2575C78.2605 85.2575 79.1705 86.0226 79.1705 86.8971V87.6622C79.1705 88.5366 78.2605 89.3018 77.2205 89.3018C76.1805 89.3018 75.2705 88.5366 75.2705 87.6622V86.8971C75.2705 86.0226 76.1805 85.2575 77.2205 85.2575Z" fill="black"/>
<path d="M83.3299 85.2575C84.3699 85.2575 85.2799 86.0226 85.2799 86.8971V87.6622C85.2799 88.5366 84.3699 89.3018 83.3299 89.3018C82.2899 89.3018 81.3799 88.5366 81.3799 87.6622V86.8971C81.3799 86.0226 82.2899 85.2575 83.3299 85.2575Z" fill="black"/>
<path d="M109.59 90.5041V106.244H92.04V91.2693V72.5782C92.04 71.0479 93.47 69.7363 95.42 69.7363H106.21C108.03 69.7363 109.59 70.9386 109.59 72.5782V82.9621C109.59 83.8365 110.37 84.4924 111.41 84.4924C112.45 84.4924 113.23 83.8365 113.23 82.9621V69.299C113.23 67.7688 111.8 66.4571 109.85 66.4571H109.46H91.52C89.7 66.4571 88.14 67.6595 88.14 69.299V83.5086H83.07V80.2295C83.07 79.0271 81.9 78.0434 80.47 78.0434H61.1C59.67 78.0434 58.5 79.0271 58.5 80.2295V96.7345V109.304H62.53H99.32H109.59H113.23V90.6134C113.23 89.739 112.45 89.0832 111.41 89.0832C110.37 88.9739 109.59 89.6297 109.59 90.5041ZM68.51 86.0226V97.1717V106.463H62.4V97.0624V83.5086C62.4 82.3063 63.57 81.3225 65 81.3225H76.44C77.87 81.3225 79.17 82.3063 79.17 83.6179H71.5C69.81 83.6179 68.51 84.711 68.51 86.0226ZM88.14 93.4553V106.572H72.41V96.9531V88.5366C72.41 87.6622 73.32 86.8971 74.36 86.8971H86.32C87.36 86.8971 88.27 87.6622 88.27 88.5366V93.4553H88.14Z" fill="black"/>
<path d="M53.0403 39.4589C52.9103 39.4589 52.7803 39.459 52.5203 39.5683L53.1703 36.9449C54.8603 36.8356 56.5503 36.617 58.6303 36.3984C59.6703 36.2891 60.4503 35.4147 60.3203 34.5403C60.1903 33.6658 59.1503 33.01 58.1103 33.1193C56.5503 33.2286 55.1203 33.4472 53.6903 33.5565L52.9103 31.2611C53.0403 31.2611 53.1703 31.2611 53.3003 31.2611C54.3403 31.1518 55.1203 30.3867 54.9903 29.4029C54.8603 28.5285 53.9503 27.8727 52.9103 27.982C51.0903 28.0913 49.1403 28.2006 47.0603 28.3099L46.6703 24.5935L46.8003 23.2819C47.5803 23.2819 48.3603 23.1726 49.1403 23.1726C50.3103 23.0633 51.0903 22.2982 50.9603 21.3144C50.8303 20.44 49.9203 19.7842 48.8803 19.8935C48.1003 19.8935 47.3203 20.0028 46.4103 20.0028L45.5003 14.2096H42.5103V2.62336C42.5103 2.29545 42.3803 1.85823 42.1203 1.63962C41.3403 0.765186 39.7803 0.765186 39.0003 1.63962C38.7403 1.96753 38.6103 2.29545 38.6103 2.62336V14.2096H35.3603L34.7103 20.0028C33.4103 20.0028 32.2403 19.8935 31.3303 19.8935C30.2903 19.8935 29.3803 20.5493 29.2503 21.4237C29.1203 22.2982 30.0303 23.1726 31.0703 23.1726C31.9803 23.1726 33.0203 23.2819 34.3203 23.2819L34.1903 24.5935L33.8003 28.2006C30.9403 28.0913 28.6003 27.982 27.0403 27.8727C26.0003 27.7634 25.0903 28.5285 24.9603 29.4029C24.8303 30.2774 25.7403 31.1518 26.7803 31.1518C26.9103 31.1518 27.0403 31.1518 27.3003 31.1518L26.5203 33.4472C25.0903 33.3379 23.6603 33.2286 21.9703 33.01C20.9303 32.9007 19.8903 33.5565 19.7603 34.4309C19.6303 35.3054 20.4103 36.1798 21.4503 36.2891C23.1403 36.3984 24.8303 36.617 26.2603 36.7263L27.0403 39.2403H26.9103C25.8703 39.131 24.9603 39.7869 24.7003 40.6613C24.5703 41.5357 25.3503 42.4102 26.3903 42.5195C27.3003 42.6288 28.6003 42.7381 30.0303 42.8474V51.0452C29.3803 50.9359 28.7303 50.9359 28.2103 51.3731C27.0403 52.1383 27.4303 53.3406 27.6903 53.8871C30.0303 61.1012 32.3703 68.8618 32.7603 70.1735V82.3063V87.0064V108.649H48.3603V92.0344V70.1735C48.4903 69.1897 49.7903 62.5222 52.2603 53.8871C52.5203 52.6848 52.0003 52.029 51.6103 51.8103C51.0903 51.3731 50.3103 51.2638 49.6603 51.3731V43.1753C50.9603 43.066 52.2603 42.9567 53.5603 42.7381C54.6003 42.6288 55.3803 41.645 55.1203 40.7706C54.9903 39.8962 54.0803 39.3496 53.0403 39.4589ZM38.8703 17.4888H41.9903L42.3803 20.1121C41.0803 20.1121 39.7803 20.1121 38.6103 20.1121L38.8703 17.4888ZM38.2203 23.3912C39.2603 23.3912 40.4303 23.3912 41.6003 23.3912C41.9903 23.3912 42.3803 23.3912 42.7703 23.3912L43.0303 24.8122L43.4203 28.3099C41.4703 28.3099 39.5203 28.3099 37.7003 28.3099L38.2203 23.3912ZM44.7203 105.807H36.9203V85.6947V70.72C38.0903 70.9386 39.5203 71.0479 41.2103 71.0479C42.3803 71.0479 43.5503 70.9386 44.7203 70.72V90.2855V105.807ZM45.2403 67.3316C41.6003 68.3153 37.1803 67.5502 36.1403 67.3316C35.3603 64.599 33.9303 60.0082 32.3703 55.4174C34.1903 55.9639 36.7903 56.5104 40.1703 56.5104C43.4203 56.5104 46.1503 55.8546 48.1003 55.3081C46.6703 60.3361 45.7603 64.7083 45.2403 67.3316ZM34.1903 52.3569V43.1753C36.6603 43.2846 39.2603 43.3939 42.1203 43.3939C43.4203 43.3939 44.7203 43.3939 45.8903 43.2846V52.2476C44.3303 52.6848 42.3803 53.122 40.1703 53.122C37.5703 53.122 35.6203 52.7941 34.1903 52.3569ZM48.4903 39.8962C42.3803 40.2241 35.7503 40.0055 31.2003 39.6776H31.3303L30.5503 37.1636C34.8403 37.4915 38.0903 37.6008 41.2103 37.6008C43.8103 37.6008 46.2803 37.4915 49.2703 37.2729L48.4903 39.8962ZM30.4203 33.8844L31.2003 31.3704C34.3203 31.4797 38.2203 31.589 42.3803 31.589C44.5903 31.589 46.9303 31.589 49.1403 31.4797L49.9203 33.9937C42.9003 34.5403 38.6103 34.5403 30.4203 33.8844Z" fill="black"/>
<path d="M127.92 109.742H2.08C0.91 109.742 0 108.977 0 107.993C0 107.009 0.91 106.244 2.08 106.244H127.79C128.96 106.244 129.87 107.009 129.87 107.993C130 108.977 129.09 109.742 127.92 109.742Z" fill="black"/>
</svg>
