<svg width="688" height="618" viewBox="0 0 688 618" fill="none" xmlns="http://www.w3.org/2000/svg">
<g filter="url(#filter0_d)">
<rect x="83" y="12" width="586" height="586" rx="293" fill="url(#paint0_linear)"/>
</g>
<g filter="url(#filter1_d)">
<rect x="16" y="12" width="72" height="72" rx="36" fill="url(#paint1_linear)"/>
</g>
<path d="M112.341 376.128C112.341 376.128 84.0705 319.907 51.6113 313.161C51.6113 313.161 164.695 292.921 203.437 376.128H112.341Z" fill="#33145C"/>
<path d="M189.821 376.128C189.821 376.128 152.127 263.686 107.103 250.193C107.103 250.193 261.022 210.838 313.375 376.128H189.821Z" fill="#33145C"/>
<path d="M285.107 382.875C285.107 382.875 232.754 209.714 172.023 189.475C172.023 189.475 383.532 128.756 455.779 382.875H285.107Z" fill="#33145C"/>
<path d="M499.753 376.129C499.753 376.129 545.824 253.567 600.272 238.949C600.272 238.949 411.799 196.222 347.928 376.129H499.753Z" fill="#33145C"/>
<path d="M605.516 376.128C605.516 376.128 634.834 319.907 669.387 313.161C669.387 313.161 548.974 292.921 508.139 376.128H605.516Z" fill="#33145C"/>
<path d="M365.732 253.566C368.873 249.069 367.826 241.198 363.638 237.825C346.885 224.331 326.99 213.087 307.096 204.092C301.861 201.843 295.578 204.092 293.484 209.714C291.39 215.336 293.484 222.083 298.719 224.331C318.614 233.327 336.414 244.571 352.12 255.815C353.167 258.064 360.497 261.437 365.732 253.566Z" fill="black"/>
<path d="M48.4707 387.372H392.957C399.239 387.372 403.428 382.875 403.428 376.128C403.428 369.381 399.239 364.884 392.957 364.884H298.72L326.991 341.271C331.18 337.898 332.227 330.027 329.086 325.529C325.944 321.031 318.615 319.907 314.427 323.28L295.579 339.022C302.909 312.036 302.909 283.926 294.532 255.815C284.062 219.834 261.026 188.35 229.614 164.737C298.72 174.857 359.451 206.341 401.333 251.317L350.027 294.045C345.839 297.419 344.792 305.29 347.933 309.787C353.168 317.658 360.498 313.161 362.592 312.036L414.945 268.184C436.934 296.294 450.546 328.902 455.781 363.759H436.934C430.651 363.759 426.463 368.257 426.463 375.004C426.463 381.75 430.651 386.248 436.934 386.248H676.713C682.995 386.248 687.184 381.75 687.184 375.004C687.184 368.257 682.995 363.759 676.713 363.759H602.371C603.418 361.511 604.465 358.137 606.559 355.888C609.7 350.266 607.606 343.52 602.371 340.147C597.136 336.773 590.853 339.022 587.712 344.644C584.571 350.266 581.429 357.013 579.335 363.759H523.841C543.735 326.654 582.476 307.538 620.171 299.667C618.077 301.916 615.983 304.165 612.842 307.538C608.653 312.036 608.653 318.783 612.842 323.28C617.03 327.778 623.312 327.778 627.501 323.28C636.924 312.036 648.442 303.041 659.96 295.17C664.148 292.921 666.242 287.299 665.195 282.801C664.148 278.304 659.96 274.93 654.724 274.93C620.171 274.93 578.288 285.05 544.782 308.663C530.123 294.045 512.323 283.926 492.428 278.304C508.135 255.815 528.029 237.824 554.206 225.456C558.394 223.207 561.535 217.585 560.488 213.087C559.441 208.59 555.253 204.092 550.017 204.092C529.076 204.092 508.135 206.341 488.24 210.838C483.005 211.963 478.817 218.709 479.864 224.331C480.911 229.954 487.193 234.451 492.428 233.327C497.664 232.202 501.852 231.078 507.087 229.954C485.099 249.069 467.299 272.681 456.828 299.667C449.499 285.05 441.122 270.433 430.651 256.94C439.028 252.442 447.404 247.944 455.781 244.571C461.016 242.322 464.158 235.576 462.063 229.954C459.969 224.331 453.687 220.958 448.452 223.207C436.934 227.705 426.463 233.327 415.992 238.949C363.639 179.355 276.732 140 180.402 140C175.166 140 170.978 143.373 169.931 148.995C168.884 154.617 172.025 159.115 176.213 161.364C222.284 180.479 255.791 214.212 271.497 254.691C263.12 249.069 254.744 244.571 246.367 240.073C241.132 237.824 234.849 240.073 232.755 245.695C230.661 251.317 232.755 258.064 237.99 260.313C250.555 267.059 263.12 274.93 274.638 283.926L220.19 353.64C217.049 307.538 194.013 264.811 156.319 234.451C167.837 236.7 179.354 238.949 190.872 242.322C196.108 244.571 202.39 240.073 203.437 234.451C205.531 228.829 201.343 222.083 196.108 220.958C168.884 211.963 140.613 207.465 111.295 207.465C106.06 207.465 101.871 210.838 100.824 216.46C99.7771 222.083 102.918 226.58 107.107 228.829C145.848 246.82 174.119 276.055 188.778 309.787C152.131 287.299 111.295 274.93 69.4121 274.93C64.1768 274.93 59.9885 278.304 58.9414 283.926C57.8943 289.548 59.9885 294.045 64.1768 296.294C90.3535 312.036 113.389 335.649 128.048 364.884H48.4707C42.1883 364.884 38 369.381 38 376.128C38 382.875 42.1883 387.372 48.4707 387.372ZM481.958 298.543C499.758 301.916 515.464 309.787 529.076 322.156C517.558 333.4 507.087 348.018 499.758 364.884H475.675C474.628 353.64 472.534 343.52 469.393 333.4C472.534 321.031 476.722 309.787 481.958 298.543ZM278.826 313.161C276.732 331.151 271.497 348.018 262.073 364.884H237.99L278.826 313.161ZM107.107 300.792C139.566 307.538 169.931 322.156 197.155 343.52C198.202 350.266 199.249 357.013 199.249 364.884H151.084C140.613 340.147 125.954 318.783 107.107 300.792Z" fill="black"/>
<path d="M48.4707 432.349H90.3535C96.636 432.349 100.824 427.852 100.824 421.105C100.824 414.359 96.636 409.861 90.3535 409.861H48.4707C42.1883 409.861 38 414.359 38 421.105C38 427.852 42.1883 432.349 48.4707 432.349Z" fill="black"/>
<path d="M132.238 432.349H320.711C326.993 432.349 331.182 427.852 331.182 421.105C331.182 414.359 326.993 409.861 320.711 409.861H132.238C125.956 409.861 121.768 414.359 121.768 421.105C121.768 427.852 125.956 432.349 132.238 432.349Z" fill="black"/>
<path d="M687.186 421.105C687.186 414.359 682.997 409.861 676.715 409.861H362.594C356.311 409.861 352.123 414.359 352.123 421.105C352.123 427.852 356.311 432.349 362.594 432.349H676.715C682.997 432.349 687.186 427.852 687.186 421.105Z" fill="black"/>
<defs>
<filter id="filter0_d" x="67" y="0" width="618" height="618" filterUnits="userSpaceOnUse" color-interpolation-filters="sRGB">
<feFlood flood-opacity="0" result="BackgroundImageFix"/>
<feColorMatrix in="SourceAlpha" type="matrix" values="0 0 0 0 0 0 0 0 0 0 0 0 0 0 0 0 0 0 127 0" result="hardAlpha"/>
<feOffset dy="4"/>
<feGaussianBlur stdDeviation="8"/>
<feColorMatrix type="matrix" values="0 0 0 0 0 0 0 0 0 0 0 0 0 0 0 0 0 0 0.06 0"/>
<feBlend mode="normal" in2="BackgroundImageFix" result="effect1_dropShadow"/>
<feBlend mode="normal" in="SourceGraphic" in2="effect1_dropShadow" result="shape"/>
</filter>
<filter id="filter1_d" x="0" y="0" width="104" height="104" filterUnits="userSpaceOnUse" color-interpolation-filters="sRGB">
<feFlood flood-opacity="0" result="BackgroundImageFix"/>
<feColorMatrix in="SourceAlpha" type="matrix" values="0 0 0 0 0 0 0 0 0 0 0 0 0 0 0 0 0 0 127 0" result="hardAlpha"/>
<feOffset dy="4"/>
<feGaussianBlur stdDeviation="8"/>
<feColorMatrix type="matrix" values="0 0 0 0 0 0 0 0 0 0 0 0 0 0 0 0 0 0 0.06 0"/>
<feBlend mode="normal" in2="BackgroundImageFix" result="effect1_dropShadow"/>
<feBlend mode="normal" in="SourceGraphic" in2="effect1_dropShadow" result="shape"/>
</filter>
<linearGradient id="paint0_linear" x1="376" y1="12" x2="376" y2="598" gradientUnits="userSpaceOnUse">
<stop stop-color="#C7000D" stop-opacity="0.61"/>
<stop offset="1" stop-color="#C70077" stop-opacity="0.12"/>
</linearGradient>
<linearGradient id="paint1_linear" x1="52" y1="12" x2="52" y2="84" gradientUnits="userSpaceOnUse">
<stop stop-color="#C7000D" stop-opacity="0.61"/>
<stop offset="1" stop-color="#C70077" stop-opacity="0.12"/>
</linearGradient>
</defs>
</svg>
