<svg width="687" height="618" viewBox="0 0 687 618" fill="none" xmlns="http://www.w3.org/2000/svg">
<g filter="url(#filter0_d)">
<rect x="83" y="12" width="586" height="586" rx="293" fill="url(#paint0_linear)"/>
</g>
<g filter="url(#filter1_d)">
<rect x="16" y="21" width="72" height="72" rx="36" fill="url(#paint1_linear)"/>
</g>
<g clip-path="url(#clip0)">
<path d="M574.515 255.016C550.131 255.016 528.892 268.672 521.813 288.473C521.813 288.473 521.813 289.156 521.026 289.156H495.855C487.202 289.156 480.123 295.302 480.123 302.812C480.123 310.323 487.202 316.469 495.855 316.469H534.398C543.838 316.469 550.131 309.641 550.917 302.13C551.704 290.522 562.716 281.645 576.088 282.328C588.674 283.011 596.54 293.253 598.113 303.495C598.9 310.323 605.193 315.786 613.845 315.786H629.577C638.23 315.786 645.309 309.641 645.309 302.13C645.309 294.619 638.23 288.473 629.577 288.473H628.004C628.004 288.473 627.217 288.473 627.217 287.791C620.138 268.672 598.9 255.016 574.515 255.016Z" fill="black"/>
<path d="M200.096 174.444C175.712 174.444 154.473 188.1 147.394 207.902C147.394 207.902 147.394 208.584 146.607 208.584H121.436C112.784 208.584 105.704 214.73 105.704 222.241C105.704 229.752 112.784 235.897 121.436 235.897H159.98C169.419 235.897 175.712 229.069 176.498 221.558C177.285 209.95 188.297 201.073 201.669 201.756C214.255 202.439 222.121 212.681 223.694 222.923C224.481 229.752 230.774 235.214 239.426 235.214H255.158C263.811 235.214 270.89 229.069 270.89 221.558C270.89 214.047 263.811 207.902 255.158 207.902H253.585C253.585 207.902 252.798 207.902 252.798 207.219C245.719 188.1 224.481 174.444 200.096 174.444Z" fill="black"/>
<path d="M387.305 302.812H355.841V330.125H387.305V302.812Z" fill="#49DAD8"/>
<path d="M355.84 474.881V340.367C355.84 333.539 349.547 328.759 342.468 328.759H336.175C328.309 328.759 322.803 323.297 322.803 317.152V263.209C322.803 256.381 329.096 251.602 336.175 251.602H450.232C458.098 251.602 463.604 257.064 463.604 263.209V313.055C463.604 319.883 457.311 324.662 450.232 324.662H447.872C440.006 324.662 434.5 330.125 434.5 336.27V474.881C434.5 481.709 428.207 486.489 421.128 486.489H369.999C362.133 487.172 355.84 481.709 355.84 474.881Z" fill="#33145C"/>
<path d="M355.841 254.333V198.342C355.841 192.197 360.56 187.417 366.853 187.417H425.848C432.141 187.417 436.861 192.197 436.861 198.342V254.333C436.861 260.478 432.141 265.258 425.848 265.258H366.853C360.56 265.258 355.841 260.478 355.841 254.333Z" fill="#33145C"/>
<path d="M277.968 494H234.705C221.333 494 210.32 484.441 210.32 472.833V394.992C210.32 383.384 221.333 373.825 234.705 373.825H277.968C291.34 373.825 302.353 383.384 302.353 394.992V472.833C302.353 484.441 291.34 494 277.968 494Z" fill="#33145C"/>
<path d="M526.53 494H496.64C486.414 494 478.548 487.172 478.548 478.295V429.816C478.548 420.939 486.414 414.111 496.64 414.111H526.53C536.756 414.111 544.622 420.939 544.622 429.816V478.295C544.622 487.172 535.97 494 526.53 494Z" fill="#33145C"/>
<path d="M152.109 497.414H109.633C96.2605 497.414 85.248 487.855 85.248 476.247V353.341C85.248 341.733 96.2605 332.173 109.633 332.173H152.896C166.268 332.173 177.28 341.733 177.28 353.341V475.564C176.494 487.855 165.481 497.414 152.109 497.414Z" fill="#33145C"/>
<path d="M661.831 497.414H609.915C596.543 497.414 585.53 487.855 585.53 476.247V363.583C585.53 351.975 596.543 342.416 609.915 342.416H661.831C675.203 342.416 686.215 351.975 686.215 363.583V476.247C687.002 487.855 675.989 497.414 661.831 497.414Z" fill="#33145C"/>
<path d="M261.447 497.414H207.959C190.653 497.414 177.281 484.441 177.281 468.736V448.934C177.281 443.472 182.787 438.692 189.08 438.692C195.373 438.692 200.879 443.472 200.879 448.934V468.736C200.879 473.516 204.026 476.93 207.959 476.93H261.447C265.38 476.93 268.527 472.833 268.527 468.736V393.627C268.527 388.847 265.38 385.433 261.447 385.433H207.959C204.026 385.433 200.879 389.53 200.879 393.627V410.014C200.879 415.477 195.373 420.256 189.08 420.256C182.787 420.256 177.281 415.477 177.281 410.014V393.627C177.281 377.922 191.44 364.948 207.959 364.948H261.447C278.753 364.948 292.125 377.922 292.125 393.627V468.736C292.125 484.441 277.966 497.414 261.447 497.414Z" fill="black"/>
<path d="M510.804 497.414H471.474C457.316 497.414 445.517 487.172 445.517 474.198V463.273C445.517 457.811 451.023 453.031 457.316 453.031C463.608 453.031 469.115 457.811 469.115 463.273V474.198C469.115 475.564 470.688 476.93 471.474 476.93H510.804C511.591 476.93 513.164 475.564 513.164 474.198V421.622C513.164 420.256 511.591 418.891 510.804 418.891H471.474C470.688 418.891 469.115 420.256 469.115 421.622V429.816C469.115 435.278 463.608 440.058 457.316 440.058C451.023 440.058 445.517 435.278 445.517 429.816V421.622C445.517 408.648 457.316 398.406 471.474 398.406H510.804C524.963 398.406 536.762 408.648 536.762 421.622V474.198C535.976 487.172 524.963 497.414 510.804 497.414Z" fill="black"/>
<path d="M636.661 497.414H576.879C558.787 497.414 543.842 482.392 543.842 463.273V434.595C543.842 429.133 549.348 424.353 555.641 424.353C561.934 424.353 567.44 429.133 567.44 434.595V463.273C567.44 470.784 572.159 476.93 576.879 476.93H636.661C641.38 476.93 646.1 471.467 646.1 463.273V366.314C646.1 358.803 641.38 352.658 636.661 352.658H576.879C572.159 352.658 567.44 358.12 567.44 366.314V389.53C567.44 394.992 561.934 399.772 555.641 399.772C549.348 399.772 543.842 394.992 543.842 389.53V366.314C543.842 347.878 558.787 332.173 576.879 332.173H636.661C654.752 332.173 669.698 347.195 669.698 366.314V463.273C669.698 481.709 654.752 497.414 636.661 497.414Z" fill="black"/>
<path d="M137.166 497.414H83.6774C66.3722 497.414 53 481.709 53 461.225V356.072C53 335.587 66.3722 319.883 83.6774 319.883H137.166C154.471 319.883 167.844 335.587 167.844 356.072V388.164C167.844 393.627 162.337 398.406 156.045 398.406C149.752 398.406 144.246 393.627 144.246 388.164V356.072C144.246 345.83 138.739 340.367 137.166 340.367H83.6774C82.1042 340.367 76.598 345.83 76.598 356.072V461.225C76.598 471.467 82.1042 476.93 83.6774 476.93H137.166C138.739 476.93 144.246 471.467 144.246 461.225V434.595C144.246 429.133 149.752 424.353 156.045 424.353C162.337 424.353 167.844 429.133 167.844 434.595V461.225C167.844 481.709 154.471 497.414 137.166 497.414Z" fill="black"/>
<path d="M441.584 261.844H425.852V257.747C425.852 251.602 420.346 246.822 413.266 246.822H406.973C399.894 246.822 394.388 251.602 394.388 257.747V261.844H347.192V220.875H394.388C394.388 227.02 399.894 231.8 406.973 231.8H413.266C420.346 231.8 425.852 227.02 425.852 220.875V207.219C425.852 199.708 418.772 193.562 410.12 193.562H386.522V71.3391C386.522 64.5109 381.016 58.3656 373.15 57C362.924 55.6344 355.058 62.4625 355.058 70.6563V193.562H331.46C322.807 193.562 315.728 199.708 315.728 207.219V261.844H299.996C291.343 261.844 284.264 267.989 284.264 275.5V293.253C284.264 300.764 291.343 306.227 299.209 306.227H299.996C308.648 306.227 314.941 300.081 314.941 293.253V289.156H425.065V336.953H314.941C314.941 329.442 307.862 323.98 299.996 323.98H299.209C290.556 323.98 284.264 330.125 284.264 336.953V350.609C284.264 358.12 291.343 364.266 299.996 364.266H314.941V369.045H315.728V483.075C317.301 488.538 322.021 493.317 328.313 494C338.539 495.366 346.405 488.537 346.405 480.344V364.266H394.388V479.661C394.388 486.489 399.894 492.634 407.76 494C417.986 495.366 425.852 488.537 425.852 480.344V364.266H440.797C449.45 364.266 456.529 358.12 456.529 350.609V275.5C457.316 267.989 450.236 261.844 441.584 261.844Z" fill="black"/>
</g>
<defs>
<filter id="filter0_d" x="67" y="0" width="618" height="618" filterUnits="userSpaceOnUse" color-interpolation-filters="sRGB">
<feFlood flood-opacity="0" result="BackgroundImageFix"/>
<feColorMatrix in="SourceAlpha" type="matrix" values="0 0 0 0 0 0 0 0 0 0 0 0 0 0 0 0 0 0 127 0" result="hardAlpha"/>
<feOffset dy="4"/>
<feGaussianBlur stdDeviation="8"/>
<feColorMatrix type="matrix" values="0 0 0 0 0 0 0 0 0 0 0 0 0 0 0 0 0 0 0.06 0"/>
<feBlend mode="normal" in2="BackgroundImageFix" result="effect1_dropShadow"/>
<feBlend mode="normal" in="SourceGraphic" in2="effect1_dropShadow" result="shape"/>
</filter>
<filter id="filter1_d" x="0" y="9" width="104" height="104" filterUnits="userSpaceOnUse" color-interpolation-filters="sRGB">
<feFlood flood-opacity="0" result="BackgroundImageFix"/>
<feColorMatrix in="SourceAlpha" type="matrix" values="0 0 0 0 0 0 0 0 0 0 0 0 0 0 0 0 0 0 127 0" result="hardAlpha"/>
<feOffset dy="4"/>
<feGaussianBlur stdDeviation="8"/>
<feColorMatrix type="matrix" values="0 0 0 0 0 0 0 0 0 0 0 0 0 0 0 0 0 0 0.06 0"/>
<feBlend mode="normal" in2="BackgroundImageFix" result="effect1_dropShadow"/>
<feBlend mode="normal" in="SourceGraphic" in2="effect1_dropShadow" result="shape"/>
</filter>
<linearGradient id="paint0_linear" x1="376" y1="12" x2="376" y2="598" gradientUnits="userSpaceOnUse">
<stop stop-color="#C7000D" stop-opacity="0.61"/>
<stop offset="1" stop-color="#C70077" stop-opacity="0.12"/>
</linearGradient>
<linearGradient id="paint1_linear" x1="52" y1="21" x2="52" y2="93" gradientUnits="userSpaceOnUse">
<stop stop-color="#C7000D" stop-opacity="0.61"/>
<stop offset="1" stop-color="#C70077" stop-opacity="0.12"/>
</linearGradient>
<clipPath id="clip0">
<rect width="634" height="437" fill="white" transform="translate(53 57)"/>
</clipPath>
</defs>
</svg>
