<svg width="159" height="110" viewBox="0 0 159 110" fill="none" xmlns="http://www.w3.org/2000/svg">
<g clip-path="url(#clip0)">
<path d="M130.79 49.8438C124.674 49.8438 119.348 53.2813 117.573 58.2656C117.573 58.2656 117.573 58.4375 117.375 58.4375H111.063C108.893 58.4375 107.117 59.9844 107.117 61.875C107.117 63.7656 108.893 65.3125 111.063 65.3125H120.729C123.096 65.3125 124.674 63.5938 124.872 61.7031C125.069 58.7813 127.831 56.5469 131.184 56.7188C134.341 56.8906 136.313 59.4687 136.708 62.0469C136.905 63.7656 138.483 65.1406 140.653 65.1406H144.599C146.769 65.1406 148.544 63.5938 148.544 61.7031C148.544 59.8125 146.769 58.2656 144.599 58.2656H144.204C144.204 58.2656 144.007 58.2656 144.007 58.0937C142.231 53.2812 136.905 49.8438 130.79 49.8438Z" fill="black"/>
<path d="M36.8902 29.5625C30.7749 29.5625 25.4485 33 23.6731 37.9844C23.6731 37.9844 23.6731 38.1562 23.4758 38.1562H17.1632C14.9932 38.1562 13.2178 39.7031 13.2178 41.5937C13.2178 43.4844 14.9932 45.0312 17.1632 45.0312H26.8294C29.1967 45.0312 30.7749 43.3125 30.9721 41.4219C31.1694 38.5 33.9312 36.2656 37.2848 36.4375C40.4411 36.6094 42.4138 39.1875 42.8084 41.7656C43.0056 43.4844 44.5838 44.8594 46.7538 44.8594H50.6992C52.8691 44.8594 54.6446 43.3125 54.6446 41.4219C54.6446 39.5312 52.8691 37.9844 50.6992 37.9844H50.3046C50.3046 37.9844 50.1074 37.9844 50.1074 37.8125C48.3319 33 43.0056 29.5625 36.8902 29.5625Z" fill="black"/>
<path d="M83.84 61.875H75.9492V68.75H83.84V61.875Z" fill="#49DAD8"/>
<path d="M75.9485 105.187V71.3281C75.9485 69.6094 74.3703 68.4062 72.5949 68.4062H71.0167C69.044 68.4062 67.6631 67.0312 67.6631 65.4844V51.9063C67.6631 50.1875 69.2413 48.9844 71.0167 48.9844H99.6209C101.594 48.9844 102.975 50.3594 102.975 51.9063V64.4531C102.975 66.1719 101.396 67.375 99.6209 67.375H99.0291C97.0564 67.375 95.6755 68.75 95.6755 70.2969V105.187C95.6755 106.906 94.0973 108.109 92.3219 108.109H79.4993C77.5266 108.281 75.9485 106.906 75.9485 105.187Z" fill="#33145C"/>
<path d="M75.9492 49.6719V35.5782C75.9492 34.0313 77.1328 32.8282 78.711 32.8282H93.5063C95.0844 32.8282 96.2681 34.0313 96.2681 35.5782V49.6719C96.2681 51.2188 95.0844 52.4219 93.5063 52.4219H78.711C77.1328 52.4219 75.9492 51.2188 75.9492 49.6719Z" fill="#33145C"/>
<path d="M56.4194 110H45.5695C42.2159 110 39.4541 107.594 39.4541 104.672V85.0781C39.4541 82.1562 42.2159 79.75 45.5695 79.75H56.4194C59.773 79.75 62.5348 82.1562 62.5348 85.0781V104.672C62.5348 107.594 59.773 110 56.4194 110Z" fill="#33145C"/>
<path d="M118.756 110H111.26C108.695 110 106.723 108.281 106.723 106.047V93.8438C106.723 91.6094 108.695 89.8906 111.26 89.8906H118.756C121.321 89.8906 123.293 91.6094 123.293 93.8438V106.047C123.293 108.281 121.123 110 118.756 110Z" fill="#33145C"/>
<path d="M24.8559 110.859H14.2033C10.8497 110.859 8.08789 108.453 8.08789 105.531V74.5938C8.08789 71.6719 10.8497 69.2656 14.2033 69.2656H25.0532C28.4068 69.2656 31.1685 71.6719 31.1685 74.5938V105.359C30.9713 108.453 28.2095 110.859 24.8559 110.859Z" fill="#33145C"/>
<path d="M152.688 110.859H139.668C136.315 110.859 133.553 108.453 133.553 105.531V77.1719C133.553 74.25 136.315 71.8438 139.668 71.8438H152.688C156.042 71.8438 158.803 74.25 158.803 77.1719V105.531C159.001 108.453 156.239 110.859 152.688 110.859Z" fill="#33145C"/>
<path d="M52.2759 110.859H38.8615C34.5216 110.859 31.168 107.594 31.168 103.641V98.6563C31.168 97.2813 32.5489 96.0781 34.127 96.0781C35.7052 96.0781 37.0861 97.2813 37.0861 98.6563V103.641C37.0861 104.844 37.8752 105.703 38.8615 105.703H52.2759C53.2622 105.703 54.0513 104.672 54.0513 103.641V84.7344C54.0513 83.5313 53.2622 82.6719 52.2759 82.6719H38.8615C37.8752 82.6719 37.0861 83.7031 37.0861 84.7344V88.8594C37.0861 90.2344 35.7052 91.4375 34.127 91.4375C32.5489 91.4375 31.168 90.2344 31.168 88.8594V84.7344C31.168 80.7813 34.7188 77.5156 38.8615 77.5156H52.2759C56.6158 77.5156 59.9694 80.7813 59.9694 84.7344V103.641C59.9694 107.594 56.4186 110.859 52.2759 110.859Z" fill="black"/>
<path d="M114.812 110.859H104.948C101.398 110.859 98.4385 108.281 98.4385 105.016V102.266C98.4385 100.891 99.8194 99.6875 101.398 99.6875C102.976 99.6875 104.357 100.891 104.357 102.266V105.016C104.357 105.359 104.751 105.703 104.948 105.703H114.812C115.009 105.703 115.404 105.359 115.404 105.016V91.7813C115.404 91.4375 115.009 91.0938 114.812 91.0938H104.948C104.751 91.0938 104.357 91.4375 104.357 91.7813V93.8437C104.357 95.2187 102.976 96.4219 101.398 96.4219C99.8194 96.4219 98.4385 95.2187 98.4385 93.8437V91.7813C98.4385 88.5156 101.398 85.9375 104.948 85.9375H114.812C118.363 85.9375 121.322 88.5156 121.322 91.7813V105.016C121.125 108.281 118.363 110.859 114.812 110.859Z" fill="black"/>
<path d="M146.376 110.859H131.383C126.846 110.859 123.098 107.078 123.098 102.266V95.0469C123.098 93.6719 124.479 92.4687 126.057 92.4687C127.635 92.4687 129.016 93.6719 129.016 95.0469V102.266C129.016 104.156 130.199 105.703 131.383 105.703H146.376C147.559 105.703 148.743 104.328 148.743 102.266V77.8594C148.743 75.9687 147.559 74.4219 146.376 74.4219H131.383C130.199 74.4219 129.016 75.7969 129.016 77.8594V83.7031C129.016 85.0781 127.635 86.2812 126.057 86.2812C124.479 86.2812 123.098 85.0781 123.098 83.7031V77.8594C123.098 73.2187 126.846 69.2656 131.383 69.2656H146.376C150.913 69.2656 154.661 73.0469 154.661 77.8594V102.266C154.661 106.906 150.913 110.859 146.376 110.859Z" fill="black"/>
<path d="M21.1079 110.859H7.69355C3.3536 110.859 0 106.906 0 101.75V75.2812C0 70.125 3.3536 66.1719 7.69355 66.1719H21.1079C25.4479 66.1719 28.8015 70.125 28.8015 75.2812V83.3594C28.8015 84.7344 27.4206 85.9375 25.8424 85.9375C24.2643 85.9375 22.8834 84.7344 22.8834 83.3594V75.2812C22.8834 72.7031 21.5025 71.3281 21.1079 71.3281H7.69355C7.29901 71.3281 5.91811 72.7031 5.91811 75.2812V101.75C5.91811 104.328 7.29901 105.703 7.69355 105.703H21.1079C21.5025 105.703 22.8834 104.328 22.8834 101.75V95.0469C22.8834 93.6719 24.2643 92.4687 25.8424 92.4687C27.4206 92.4687 28.8015 93.6719 28.8015 95.0469V101.75C28.8015 106.906 25.4479 110.859 21.1079 110.859Z" fill="black"/>
<path d="M97.4522 51.5625H93.5068V50.5312C93.5068 48.9844 92.1259 47.7812 90.3504 47.7812H88.7723C86.9968 47.7812 85.6159 48.9844 85.6159 50.5312V51.5625H73.7797V41.25H85.6159C85.6159 42.7969 86.9968 44 88.7723 44H90.3504C92.1259 44 93.5068 42.7969 93.5068 41.25V37.8125C93.5068 35.9219 91.7313 34.375 89.5613 34.375H83.6432V3.60938C83.6432 1.89064 82.2623 0.343762 80.2896 1.27405e-05C77.7251 -0.343737 75.7524 1.37501 75.7524 3.43751V34.375H69.8343C67.6643 34.375 65.8889 35.9219 65.8889 37.8125V51.5625H61.9435C59.7735 51.5625 57.998 53.1093 57.998 55V59.4687C57.998 61.3593 59.7735 62.7343 61.7462 62.7343H61.9435C64.1134 62.7343 65.6916 61.1875 65.6916 59.4687V58.4375H93.3095V70.4687H65.6916C65.6916 68.5781 63.9162 67.2031 61.9435 67.2031H61.7462C59.5762 67.2031 57.998 68.75 57.998 70.4687V73.9062C57.998 75.7968 59.7735 77.3437 61.9435 77.3437H65.6916V78.5468H65.8889V107.25C66.2834 108.625 67.467 109.828 69.0452 110C71.6097 110.344 73.5824 108.625 73.5824 106.562V77.3437H85.6159V106.391C85.6159 108.109 86.9968 109.656 88.9695 110C91.534 110.344 93.5068 108.625 93.5068 106.562V77.3437H97.2549C99.4249 77.3437 101.2 75.7968 101.2 73.9062V55C101.398 53.1093 99.6221 51.5625 97.4522 51.5625Z" fill="black"/>
</g>
<defs>
<clipPath id="clip0">
<rect width="159" height="110" fill="white"/>
</clipPath>
</defs>
</svg>
