<svg width="176" height="123" viewBox="0 0 176 123" fill="none" xmlns="http://www.w3.org/2000/svg">
<path d="M163.076 0H123.063C119.901 0 117.426 2.47374 117.426 5.63464V103.485H173.526V27.2112C169.401 19.2402 166.513 10.5821 165.001 1.64916C164.726 0.687151 164.038 0 163.076 0Z" fill="#33145C"/>
<path d="M91.9877 31.1967H85.9377C84.7002 31.1967 84.0127 29.9598 84.7002 28.8604L87.7252 23.9129L90.7502 18.828C91.3002 17.8659 92.8127 17.8659 93.3627 18.828L96.3877 23.9129L99.4127 28.8604C99.9627 29.8224 99.2752 31.1967 98.1752 31.1967H91.9877Z" fill="#33145C"/>
<path d="M113.713 104.997H74.6631C71.6381 104.997 69.1631 102.523 69.1631 99.4995V31.609C69.1631 28.5855 71.6381 26.1118 74.6631 26.1118H113.713C116.738 26.1118 119.213 28.5855 119.213 31.609V99.362C119.213 102.523 116.738 104.997 113.713 104.997Z" fill="#33145C"/>
<path d="M66.4125 21.9888H32.725C30.9375 21.9888 29.2875 22.9508 28.4625 24.4626C24.0625 32.571 20.7625 39.8548 13.75 45.9017V98.5375C13.75 101.149 15.95 103.348 18.5625 103.348H66.4125C69.025 103.348 71.225 101.149 71.225 98.5375V26.7989C71.225 24.1877 69.025 21.9888 66.4125 21.9888Z" fill="#33145C"/>
<path d="M126.499 38.0682H121.274C120.174 38.0682 119.212 39.0302 119.212 40.1296V47.6883C119.212 48.7877 120.174 49.7497 121.274 49.7497H126.499C127.599 49.7497 128.562 48.7877 128.562 47.6883V40.1296C128.562 38.8928 127.599 38.0682 126.499 38.0682ZM124.437 45.6268H123.337V42.1911H124.437V45.6268Z" fill="black"/>
<path d="M138.187 38.0682H132.962C131.862 38.0682 130.899 39.0302 130.899 40.1296V47.6883C130.899 48.7877 131.862 49.7497 132.962 49.7497H138.187C139.287 49.7497 140.249 48.7877 140.249 47.6883V40.1296C140.249 38.8928 139.287 38.0682 138.187 38.0682ZM136.124 45.6268H135.024V42.1911H136.124V45.6268Z" fill="black"/>
<path d="M149.874 38.0682H144.649C143.549 38.0682 142.587 39.0302 142.587 40.1296V47.6883C142.587 48.7877 143.549 49.7497 144.649 49.7497H149.874C150.974 49.7497 151.937 48.7877 151.937 47.6883V40.1296C151.937 38.8928 150.974 38.0682 149.874 38.0682ZM147.812 45.6268H146.712V42.1911H147.812V45.6268Z" fill="black"/>
<path d="M161.562 38.0682H156.337C155.237 38.0682 154.274 39.0302 154.274 40.1296V47.6883C154.274 48.7877 155.237 49.7497 156.337 49.7497H161.562C162.662 49.7497 163.624 48.7877 163.624 47.6883V40.1296C163.624 38.8928 162.662 38.0682 161.562 38.0682ZM159.499 45.6268H158.399V42.1911H159.499V45.6268Z" fill="black"/>
<path d="M19.1117 51.124H13.8867C12.7867 51.124 11.8242 52.086 11.8242 53.1855V58.4078C11.8242 59.5073 12.7867 60.4693 13.8867 60.4693H19.1117C20.2117 60.4693 21.1742 59.5073 21.1742 58.4078V53.1855C21.1742 51.9486 20.3492 51.124 19.1117 51.124ZM17.0492 56.3464H15.9492V55.2469H17.0492V56.3464Z" fill="black"/>
<path d="M32.1742 51.124H26.9492C25.8492 51.124 24.8867 52.086 24.8867 53.1855V58.4078C24.8867 59.5073 25.8492 60.4693 26.9492 60.4693H32.1742C33.2742 60.4693 34.2367 59.5073 34.2367 58.4078V53.1855C34.2367 51.9486 33.4117 51.124 32.1742 51.124ZM30.1117 56.3464H29.0117V55.2469H30.1117V56.3464Z" fill="black"/>
<path d="M45.2367 51.124H40.0117C38.9117 51.124 37.9492 52.086 37.9492 53.1855V58.4078C37.9492 59.5073 38.9117 60.4693 40.0117 60.4693H45.2367C46.3367 60.4693 47.2992 59.5073 47.2992 58.4078V53.1855C47.2992 51.9486 46.3367 51.124 45.2367 51.124ZM43.1742 56.3464H42.0742V55.2469H43.1742V56.3464Z" fill="black"/>
<path d="M56.9242 51.124H51.6992C50.5992 51.124 49.6367 52.086 49.6367 53.1855V58.4078C49.6367 59.5073 50.5992 60.4693 51.6992 60.4693H56.9242C58.0242 60.4693 58.9867 59.5073 58.9867 58.4078V53.1855C58.9867 51.9486 58.1617 51.124 56.9242 51.124ZM54.8617 56.3464H53.7617V55.2469H54.8617V56.3464Z" fill="black"/>
<path d="M126.499 55.6592H121.274C120.174 55.6592 119.212 56.6213 119.212 57.7207V65.2794C119.212 66.3788 120.174 67.3408 121.274 67.3408H126.499C127.599 67.3408 128.562 66.3788 128.562 65.2794V57.7207C128.562 56.6213 127.599 55.6592 126.499 55.6592ZM124.437 63.2179H123.337V59.7821H124.437V63.2179Z" fill="black"/>
<path d="M138.187 55.6592H132.962C131.862 55.6592 130.899 56.6213 130.899 57.7207V65.2794C130.899 66.3788 131.862 67.3408 132.962 67.3408H138.187C139.287 67.3408 140.249 66.3788 140.249 65.2794V57.7207C140.249 56.6213 139.287 55.6592 138.187 55.6592ZM136.124 63.2179H135.024V59.7821H136.124V63.2179Z" fill="black"/>
<path d="M149.874 55.6592H144.649C143.549 55.6592 142.587 56.6213 142.587 57.7207V65.2794C142.587 66.3788 143.549 67.3408 144.649 67.3408H149.874C150.974 67.3408 151.937 66.3788 151.937 65.2794V57.7207C151.937 56.6213 150.974 55.6592 149.874 55.6592ZM147.812 63.2179H146.712V59.7821H147.812V63.2179Z" fill="black"/>
<path d="M161.562 55.6592H156.337C155.237 55.6592 154.274 56.6213 154.274 57.7207V65.2794C154.274 66.3788 155.237 67.3408 156.337 67.3408H161.562C162.662 67.3408 163.624 66.3788 163.624 65.2794V57.7207C163.624 56.6213 162.662 55.6592 161.562 55.6592ZM159.499 63.2179H158.399V59.7821H159.499V63.2179Z" fill="black"/>
<path d="M18.6986 66.5162H13.4736C12.3736 66.5162 11.4111 67.4782 11.4111 68.5777V76.1364C11.4111 77.2358 12.3736 78.1978 13.4736 78.1978H18.6986C19.7986 78.1978 20.7611 77.2358 20.7611 76.1364V68.5777C20.7611 67.4782 19.7986 66.5162 18.6986 66.5162ZM16.6361 74.0749H15.5361V70.6391H16.6361V74.0749Z" fill="black"/>
<path d="M32.1742 66.5162H26.9492C25.8492 66.5162 24.8867 67.4782 24.8867 68.5777V76.1364C24.8867 77.2358 25.8492 78.1978 26.9492 78.1978H32.1742C33.2742 78.1978 34.2367 77.2358 34.2367 76.1364V68.5777C34.2367 67.4782 33.4117 66.5162 32.1742 66.5162ZM30.1117 74.0749H29.0117V70.6391H30.1117V74.0749Z" fill="black"/>
<path d="M45.2367 66.5162H40.0117C38.9117 66.5162 37.9492 67.4782 37.9492 68.5777V76.1364C37.9492 77.2358 38.9117 78.1978 40.0117 78.1978H45.2367C46.3367 78.1978 47.2992 77.2358 47.2992 76.1364V68.5777C47.2992 67.4782 46.3367 66.5162 45.2367 66.5162ZM43.1742 74.0749H42.0742V70.6391H43.1742V74.0749Z" fill="black"/>
<path d="M56.9242 66.5162H51.6992C50.5992 66.5162 49.6367 67.4782 49.6367 68.5777V76.1364C49.6367 77.2358 50.5992 78.1978 51.6992 78.1978H56.9242C58.0242 78.1978 58.9867 77.2358 58.9867 76.1364V68.5777C58.9867 67.4782 58.1617 66.5162 56.9242 66.5162ZM54.8617 74.0749H53.7617V70.6391H54.8617V74.0749Z" fill="black"/>
<path d="M45.2367 84.5196H40.0117C38.9117 84.5196 37.9492 85.4816 37.9492 86.581V94.1397C37.9492 95.2391 38.9117 96.2011 40.0117 96.2011H45.2367C46.3367 96.2011 47.2992 95.2391 47.2992 94.1397V86.581C47.2992 85.3442 46.3367 84.5196 45.2367 84.5196ZM43.1742 92.0782H42.0742V88.6425H43.1742V92.0782Z" fill="black"/>
<path d="M18.6986 84.5196H13.4736C12.3736 84.5196 11.4111 85.4816 11.4111 86.581V94.1397C11.4111 95.2391 12.3736 96.2011 13.4736 96.2011H18.6986C19.7986 96.2011 20.7611 95.2391 20.7611 94.1397V86.581C20.7611 85.3442 19.7986 84.5196 18.6986 84.5196ZM16.6361 92.0782H15.5361V88.6425H16.6361V92.0782Z" fill="black"/>
<path d="M56.9242 84.5196H51.6992C50.5992 84.5196 49.6367 85.4816 49.6367 86.581V94.1397C49.6367 95.2391 50.5992 96.2011 51.6992 96.2011H56.9242C58.0242 96.2011 58.9867 95.2391 58.9867 94.1397V86.581C58.9867 85.3442 58.1617 84.5196 56.9242 84.5196ZM54.8617 92.0782H53.7617V88.6425H54.8617V92.0782Z" fill="black"/>
<path d="M126.499 82.8704H121.274C120.174 82.8704 119.212 83.8324 119.212 84.9319V92.4905C119.212 93.59 120.174 94.552 121.274 94.552H126.499C127.599 94.552 128.562 93.59 128.562 92.4905V84.9319C128.562 83.8324 127.599 82.8704 126.499 82.8704ZM124.437 90.4291H123.337V86.9933H124.437V90.4291Z" fill="black"/>
<path d="M138.187 82.8704H132.962C131.862 82.8704 130.899 83.8324 130.899 84.9319V92.4905C130.899 93.59 131.862 94.552 132.962 94.552H138.187C139.287 94.552 140.249 93.59 140.249 92.4905V84.9319C140.249 83.8324 139.287 82.8704 138.187 82.8704ZM136.124 90.4291H135.024V86.9933H136.124V90.4291Z" fill="black"/>
<path d="M74.5244 75.1743C73.4244 75.1743 72.4619 76.1363 72.4619 77.2358V79.0224C72.4619 80.1218 73.4244 81.0838 74.5244 81.0838C75.6244 81.0838 76.5869 80.1218 76.5869 79.0224V77.2358C76.5869 76.1363 75.6244 75.1743 74.5244 75.1743Z" fill="black"/>
<path d="M83.7354 75.1743C82.6354 75.1743 81.6729 76.1363 81.6729 77.2358V79.0224C81.6729 80.1218 82.6354 81.0838 83.7354 81.0838C84.8354 81.0838 85.7979 80.1218 85.7979 79.0224V77.2358C85.7979 76.1363 84.8354 75.1743 83.7354 75.1743Z" fill="black"/>
<path d="M92.9492 75.1743C91.8492 75.1743 90.8867 76.1363 90.8867 77.2358V79.0224C90.8867 80.1218 91.8492 81.0838 92.9492 81.0838C94.0492 81.0838 95.0117 80.1218 95.0117 79.0224V77.2358C95.0117 76.1363 94.0492 75.1743 92.9492 75.1743Z" fill="black"/>
<path d="M102.161 75.1743C101.061 75.1743 100.099 76.1363 100.099 77.2358V79.0224C100.099 80.1218 101.061 81.0838 102.161 81.0838C103.261 81.0838 104.224 80.1218 104.224 79.0224V77.2358C104.224 76.1363 103.261 75.1743 102.161 75.1743Z" fill="black"/>
<path d="M79.0625 62.2559C77.9625 62.2559 77 63.2179 77 64.3173V66.1039C77 67.2033 77.9625 68.1654 79.0625 68.1654C80.1625 68.1654 81.125 67.2033 81.125 66.1039V64.3173C81.125 63.2179 80.1625 62.2559 79.0625 62.2559Z" fill="black"/>
<path d="M88.2744 62.2559C87.1744 62.2559 86.2119 63.2179 86.2119 64.3173V66.1039C86.2119 67.2033 87.1744 68.1654 88.2744 68.1654C89.3744 68.1654 90.3369 67.2033 90.3369 66.1039V64.3173C90.3369 63.2179 89.3744 62.2559 88.2744 62.2559Z" fill="black"/>
<path d="M97.4854 62.2559C96.3854 62.2559 95.4229 63.2179 95.4229 64.3173V66.1039C95.4229 67.2033 96.3854 68.1654 97.4854 68.1654C98.5854 68.1654 99.5479 67.2033 99.5479 66.1039V64.3173C99.5479 63.2179 98.5854 62.2559 97.4854 62.2559Z" fill="black"/>
<path d="M83.7354 48.7877C82.6354 48.7877 81.6729 49.7497 81.6729 50.8492V52.6358C81.6729 53.7352 82.6354 54.6972 83.7354 54.6972C84.8354 54.6972 85.7979 53.7352 85.7979 52.6358V50.8492C85.7979 49.6123 84.8354 48.7877 83.7354 48.7877Z" fill="black"/>
<path d="M92.9492 48.7877C91.8492 48.7877 90.8867 49.7497 90.8867 50.8492V52.6358C90.8867 53.7352 91.8492 54.6972 92.9492 54.6972C94.0492 54.6972 95.0117 53.7352 95.0117 52.6358V50.8492C95.0117 49.6123 94.0492 48.7877 92.9492 48.7877Z" fill="black"/>
<path d="M88.2744 37.381C87.1744 37.381 86.2119 38.3431 86.2119 39.4425V41.2291C86.2119 42.3285 87.1744 43.2905 88.2744 43.2905C89.3744 43.2905 90.3369 42.3285 90.3369 41.2291V39.4425C90.3369 38.3431 89.3744 37.381 88.2744 37.381Z" fill="black"/>
<path d="M92.9492 89.467C91.8492 89.467 90.8867 90.429 90.8867 91.5284V93.315C90.8867 94.4145 91.8492 95.3765 92.9492 95.3765C94.0492 95.3765 95.0117 94.4145 95.0117 93.315V91.5284C95.0117 90.2916 94.0492 89.467 92.9492 89.467Z" fill="black"/>
<path d="M102.161 89.467C101.061 89.467 100.099 90.429 100.099 91.5284V93.315C100.099 94.4145 101.061 95.3765 102.161 95.3765C103.261 95.3765 104.224 94.4145 104.224 93.315V91.5284C104.224 90.2916 103.261 89.467 102.161 89.467Z" fill="black"/>
<path d="M173.661 101.973H170.636V61.5687C170.636 60.4693 169.674 59.5073 168.574 59.5073C167.474 59.5073 166.511 60.4693 166.511 61.5687V73.1129H115.224V72.5631C115.224 71.4637 114.261 70.5017 113.161 70.5017C112.061 70.5017 111.099 71.4637 111.099 72.5631V101.698H85.9361V86.7184C85.9361 85.619 84.9736 84.657 83.8736 84.657H75.3486C74.2486 84.657 73.2861 85.619 73.2861 86.7184V101.973H65.9986V90.7039C65.9986 89.6045 65.0361 88.6425 63.9361 88.6425C62.8361 88.6425 61.8736 89.6045 61.8736 90.7039V101.973H35.7486V86.7184C35.7486 85.619 34.7861 84.657 33.6861 84.657H25.5736C24.4736 84.657 23.5111 85.619 23.5111 86.7184V101.973H9.48613V48.5129H61.4611V79.1598C61.4611 80.2592 62.4236 81.2212 63.5236 81.2212C64.6236 81.2212 65.5861 80.2592 65.5861 79.1598V62.3933H71.0861C72.1861 62.3933 73.1486 61.4313 73.1486 60.3319V50.0246C76.5861 45.6268 84.1486 35.7318 87.9986 28.1732C91.5736 35.7318 98.4486 45.4894 101.611 49.8872C101.611 49.8872 101.611 53.048 101.611 55.1095C101.611 56.2089 102.574 57.171 103.674 57.171H110.549V64.4548C110.549 65.5542 111.511 66.5162 112.611 66.5162C113.711 66.5162 114.674 65.5542 114.674 64.4548V30.2346H165.961V51.8112C165.961 52.9106 166.924 53.8726 168.024 53.8726C169.124 53.8726 170.086 52.9106 170.086 51.8112V28.0358C170.086 27.7609 170.086 27.486 169.949 27.2112C166.924 19.5151 164.724 11.5441 163.624 3.43576C163.486 2.33632 162.661 1.64917 161.561 1.64917H113.161C112.061 1.64917 111.099 2.61118 111.099 3.71062V29.6849H93.9111C92.3986 27.2112 91.2986 24.6 90.4736 21.8514C90.1986 20.752 89.0986 20.0648 87.9986 20.3397C87.3111 20.4771 86.6236 21.1643 86.4861 21.8514C85.6611 24.6 84.2861 27.2112 82.7736 29.6849H65.8611V26.3866C65.8611 25.2872 64.8986 24.3251 63.7986 24.3251H22.9611C22.1361 24.3251 21.4486 24.7374 21.0361 25.562C18.0111 32.0212 11.6861 42.8782 7.01113 44.5274C6.18613 44.8022 5.63613 45.6268 5.63613 46.4514V101.973H2.47363C1.37363 101.973 0.411133 102.935 0.411133 104.035C0.411133 105.134 1.37363 106.096 2.47363 106.096H173.799C174.899 106.096 175.861 105.134 175.861 104.035C175.861 102.935 174.899 101.973 173.661 101.973ZM115.224 5.77207H160.324C161.424 12.6436 163.074 19.3777 165.549 25.9743H115.224V5.77207ZM96.2486 33.8078H110.961V52.7732H106.011V52.6358C107.111 52.2235 107.661 51.124 107.249 50.0246C107.111 49.7497 107.111 49.6123 106.974 49.4749C106.836 49.4749 101.061 41.6413 96.2486 33.8078ZM65.5861 33.8078H79.8861C76.0361 39.5799 68.3361 49.4749 68.3361 49.4749C67.6486 50.2994 67.7861 51.6737 68.6111 52.3609C68.7486 52.4983 69.0236 52.6358 69.1611 52.6358V58.133H65.7236V33.8078H65.5861ZM23.9236 28.4481C23.9236 28.3106 23.9236 28.3106 23.9236 28.4481C24.7486 28.4481 60.2236 28.4481 61.4611 28.4481V44.2525C59.9486 44.2525 15.9486 44.2525 13.7486 44.2525C18.4236 39.305 22.4111 31.6089 23.9236 28.4481ZM31.6236 101.973H27.6361V88.7799H31.6236V101.973ZM81.5361 101.973H77.1361V88.7799H81.5361V101.973ZM156.886 101.973H148.086V91.6659C148.086 89.467 149.599 87.4056 151.661 87.1307C154.411 86.581 156.886 88.7799 156.886 91.5285V101.973ZM166.511 101.973H161.149V91.8034C161.149 87.1307 157.574 83.0078 152.899 82.8704C148.086 82.733 144.099 86.581 144.099 91.3911V101.836H115.224V77.3732H166.511V101.973Z" fill="black"/>
</svg>
