<svg width="685" height="618" viewBox="0 0 685 618" fill="none" xmlns="http://www.w3.org/2000/svg">
<g filter="url(#filter0_d)">
<rect x="83" y="12" width="586" height="586" rx="293" fill="url(#paint0_linear)"/>
</g>
<g filter="url(#filter1_d)">
<rect x="16" y="21" width="72" height="72" rx="36" fill="url(#paint1_linear)"/>
</g>
<g clip-path="url(#clip0)">
<path d="M636.12 94H487.892C476.177 94 467.008 103.151 467.008 114.844V476.81H674.833V194.659C659.552 165.173 648.855 133.145 643.252 100.101C642.233 96.5419 639.686 94 636.12 94Z" fill="#33145C"/>
<path d="M372.774 209.402H350.361C345.777 209.402 343.23 204.827 345.777 200.76L356.983 182.458L368.189 163.648C370.227 160.089 375.83 160.089 377.867 163.648L389.074 182.458L400.28 200.76C402.317 204.318 399.771 209.402 395.696 209.402H372.774Z" fill="#33145C"/>
<path d="M453.256 482.402H308.594C297.388 482.402 288.219 473.251 288.219 462.067V210.927C288.219 199.743 297.388 190.592 308.594 190.592H453.256C464.463 190.592 473.631 199.743 473.631 210.927V461.559C473.631 473.251 464.463 482.402 453.256 482.402Z" fill="#33145C"/>
<path d="M278.028 175.341H153.231C146.609 175.341 140.497 178.899 137.441 184.492C121.141 214.486 108.916 241.43 82.9375 263.799V458.508C82.9375 468.168 91.0875 476.302 100.766 476.302H278.028C287.706 476.302 295.856 468.168 295.856 458.508V193.134C295.856 183.475 287.706 175.341 278.028 175.341Z" fill="#33145C"/>
<path d="M500.622 234.821H481.266C477.191 234.821 473.625 238.38 473.625 242.447V270.408C473.625 274.475 477.191 278.034 481.266 278.034H500.622C504.697 278.034 508.263 274.475 508.263 270.408V242.447C508.263 237.871 504.697 234.821 500.622 234.821ZM492.981 262.782H488.906V250.073H492.981V262.782Z" fill="black"/>
<path d="M543.919 234.821H524.563C520.488 234.821 516.922 238.38 516.922 242.447V270.408C516.922 274.475 520.488 278.034 524.563 278.034H543.919C547.994 278.034 551.559 274.475 551.559 270.408V242.447C551.559 237.871 547.994 234.821 543.919 234.821ZM536.278 262.782H532.203V250.073H536.278V262.782Z" fill="black"/>
<path d="M587.216 234.821H567.859C563.784 234.821 560.219 238.38 560.219 242.447V270.408C560.219 274.475 563.784 278.034 567.859 278.034H587.216C591.291 278.034 594.856 274.475 594.856 270.408V242.447C594.856 237.871 591.291 234.821 587.216 234.821ZM579.575 262.782H575.5V250.073H579.575V262.782Z" fill="black"/>
<path d="M630.513 234.821H611.156C607.081 234.821 603.516 238.38 603.516 242.447V270.408C603.516 274.475 607.081 278.034 611.156 278.034H630.513C634.588 278.034 638.153 274.475 638.153 270.408V242.447C638.153 237.871 634.588 234.821 630.513 234.821ZM622.872 262.782H618.797V250.073H622.872V262.782Z" fill="black"/>
<path d="M102.802 283.117H83.4453C79.3703 283.117 75.8047 286.676 75.8047 290.743V310.061C75.8047 314.128 79.3703 317.687 83.4453 317.687H102.802C106.877 317.687 110.442 314.128 110.442 310.061V290.743C110.442 286.168 107.386 283.117 102.802 283.117ZM95.1609 302.436H91.0859V298.369H95.1609V302.436Z" fill="black"/>
<path d="M151.192 283.117H131.836C127.761 283.117 124.195 286.676 124.195 290.743V310.061C124.195 314.128 127.761 317.687 131.836 317.687H151.192C155.267 317.687 158.833 314.128 158.833 310.061V290.743C158.833 286.168 155.777 283.117 151.192 283.117ZM143.552 302.436H139.477V298.369H143.552V302.436Z" fill="black"/>
<path d="M199.583 283.117H180.227C176.152 283.117 172.586 286.676 172.586 290.743V310.061C172.586 314.128 176.152 317.687 180.227 317.687H199.583C203.658 317.687 207.223 314.128 207.223 310.061V290.743C207.223 286.168 203.658 283.117 199.583 283.117ZM191.942 302.436H187.867V298.369H191.942V302.436Z" fill="black"/>
<path d="M242.88 283.117H223.523C219.448 283.117 215.883 286.676 215.883 290.743V310.061C215.883 314.128 219.448 317.687 223.523 317.687H242.88C246.955 317.687 250.52 314.128 250.52 310.061V290.743C250.52 286.168 247.464 283.117 242.88 283.117ZM235.239 302.436H231.164V298.369H235.239V302.436Z" fill="black"/>
<path d="M500.622 299.894H481.266C477.191 299.894 473.625 303.453 473.625 307.52V335.48C473.625 339.547 477.191 343.106 481.266 343.106H500.622C504.697 343.106 508.263 339.547 508.263 335.48V307.52C508.263 303.453 504.697 299.894 500.622 299.894ZM492.981 327.855H488.906V315.145H492.981V327.855Z" fill="black"/>
<path d="M543.919 299.894H524.563C520.488 299.894 516.922 303.453 516.922 307.52V335.48C516.922 339.547 520.488 343.106 524.563 343.106H543.919C547.994 343.106 551.559 339.547 551.559 335.48V307.52C551.559 303.453 547.994 299.894 543.919 299.894ZM536.278 327.855H532.203V315.145H536.278V327.855Z" fill="black"/>
<path d="M587.216 299.894H567.859C563.784 299.894 560.219 303.453 560.219 307.52V335.48C560.219 339.547 563.784 343.106 567.859 343.106H587.216C591.291 343.106 594.856 339.547 594.856 335.48V307.52C594.856 303.453 591.291 299.894 587.216 299.894ZM579.575 327.855H575.5V315.145H579.575V327.855Z" fill="black"/>
<path d="M630.513 299.894H611.156C607.081 299.894 603.516 303.453 603.516 307.52V335.48C603.516 339.547 607.081 343.106 611.156 343.106H630.513C634.588 343.106 638.153 339.547 638.153 335.48V307.52C638.153 303.453 634.588 299.894 630.513 299.894ZM622.872 327.855H618.797V315.145H622.872V327.855Z" fill="black"/>
<path d="M101.27 340.056H81.9141C77.8391 340.056 74.2734 343.615 74.2734 347.682V375.642C74.2734 379.709 77.8391 383.268 81.9141 383.268H101.27C105.345 383.268 108.911 379.709 108.911 375.642V347.682C108.911 343.615 105.345 340.056 101.27 340.056ZM93.6297 368.017H89.5547V355.307H93.6297V368.017Z" fill="black"/>
<path d="M151.192 340.056H131.836C127.761 340.056 124.195 343.615 124.195 347.682V375.642C124.195 379.709 127.761 383.268 131.836 383.268H151.192C155.267 383.268 158.833 379.709 158.833 375.642V347.682C158.833 343.615 155.777 340.056 151.192 340.056ZM143.552 368.017H139.477V355.307H143.552V368.017Z" fill="black"/>
<path d="M199.583 340.056H180.227C176.152 340.056 172.586 343.615 172.586 347.682V375.642C172.586 379.709 176.152 383.268 180.227 383.268H199.583C203.658 383.268 207.223 379.709 207.223 375.642V347.682C207.223 343.615 203.658 340.056 199.583 340.056ZM191.942 368.017H187.867V355.307H191.942V368.017Z" fill="black"/>
<path d="M242.88 340.056H223.523C219.448 340.056 215.883 343.615 215.883 347.682V375.642C215.883 379.709 219.448 383.268 223.523 383.268H242.88C246.955 383.268 250.52 379.709 250.52 375.642V347.682C250.52 343.615 247.464 340.056 242.88 340.056ZM235.239 368.017H231.164V355.307H235.239V368.017Z" fill="black"/>
<path d="M199.583 406.654H180.227C176.152 406.654 172.586 410.212 172.586 414.279V442.24C172.586 446.307 176.152 449.866 180.227 449.866H199.583C203.658 449.866 207.223 446.307 207.223 442.24V414.279C207.223 409.704 203.658 406.654 199.583 406.654ZM191.942 434.615H187.867V421.905H191.942V434.615Z" fill="black"/>
<path d="M101.27 406.654H81.9141C77.8391 406.654 74.2734 410.212 74.2734 414.279V442.24C74.2734 446.307 77.8391 449.866 81.9141 449.866H101.27C105.345 449.866 108.911 446.307 108.911 442.24V414.279C108.911 409.704 105.345 406.654 101.27 406.654ZM93.6297 434.615H89.5547V421.905H93.6297V434.615Z" fill="black"/>
<path d="M242.88 406.654H223.523C219.448 406.654 215.883 410.212 215.883 414.279V442.24C215.883 446.307 219.448 449.866 223.523 449.866H242.88C246.955 449.866 250.52 446.307 250.52 442.24V414.279C250.52 409.704 247.464 406.654 242.88 406.654ZM235.239 434.615H231.164V421.905H235.239V434.615Z" fill="black"/>
<path d="M500.622 400.553H481.266C477.191 400.553 473.625 404.112 473.625 408.179V436.14C473.625 440.207 477.191 443.765 481.266 443.765H500.622C504.697 443.765 508.263 440.207 508.263 436.14V408.179C508.263 404.112 504.697 400.553 500.622 400.553ZM492.981 428.514H488.906V415.804H492.981V428.514Z" fill="black"/>
<path d="M543.919 400.553H524.563C520.488 400.553 516.922 404.112 516.922 408.179V436.14C516.922 440.207 520.488 443.765 524.563 443.765H543.919C547.994 443.765 551.559 440.207 551.559 436.14V408.179C551.559 404.112 547.994 400.553 543.919 400.553ZM536.278 428.514H532.203V415.804H536.278V428.514Z" fill="black"/>
<path d="M308.078 372.084C304.003 372.084 300.438 375.642 300.438 379.71V386.318C300.438 390.385 304.003 393.944 308.078 393.944C312.153 393.944 315.719 390.385 315.719 386.318V379.71C315.719 375.642 312.153 372.084 308.078 372.084Z" fill="black"/>
<path d="M342.203 372.084C338.128 372.084 334.562 375.642 334.562 379.71V386.318C334.562 390.385 338.128 393.944 342.203 393.944C346.278 393.944 349.844 390.385 349.844 386.318V379.71C349.844 375.642 346.278 372.084 342.203 372.084Z" fill="black"/>
<path d="M376.336 372.084C372.261 372.084 368.695 375.642 368.695 379.71V386.318C368.695 390.385 372.261 393.944 376.336 393.944C380.411 393.944 383.977 390.385 383.977 386.318V379.71C383.977 375.642 380.411 372.084 376.336 372.084Z" fill="black"/>
<path d="M410.461 372.084C406.386 372.084 402.82 375.642 402.82 379.71V386.318C402.82 390.385 406.386 393.944 410.461 393.944C414.536 393.944 418.101 390.385 418.101 386.318V379.71C418.101 375.642 414.536 372.084 410.461 372.084Z" fill="black"/>
<path d="M324.891 324.296C320.816 324.296 317.25 327.855 317.25 331.922V338.531C317.25 342.598 320.816 346.156 324.891 346.156C328.966 346.156 332.531 342.598 332.531 338.531V331.922C332.531 327.855 328.966 324.296 324.891 324.296Z" fill="black"/>
<path d="M359.016 324.296C354.941 324.296 351.375 327.855 351.375 331.922V338.531C351.375 342.598 354.941 346.156 359.016 346.156C363.091 346.156 366.656 342.598 366.656 338.531V331.922C366.656 327.855 363.091 324.296 359.016 324.296Z" fill="black"/>
<path d="M393.141 324.296C389.066 324.296 385.5 327.855 385.5 331.922V338.531C385.5 342.598 389.066 346.156 393.141 346.156C397.216 346.156 400.781 342.598 400.781 338.531V331.922C400.781 327.855 397.216 324.296 393.141 324.296Z" fill="black"/>
<path d="M342.203 274.475C338.128 274.475 334.562 278.034 334.562 282.101V288.71C334.562 292.777 338.128 296.335 342.203 296.335C346.278 296.335 349.844 292.777 349.844 288.71V282.101C349.844 277.525 346.278 274.475 342.203 274.475Z" fill="black"/>
<path d="M376.336 274.475C372.261 274.475 368.695 278.034 368.695 282.101V288.71C368.695 292.777 372.261 296.335 376.336 296.335C380.411 296.335 383.977 292.777 383.977 288.71V282.101C383.977 277.525 380.411 274.475 376.336 274.475Z" fill="black"/>
<path d="M359.016 232.279C354.941 232.279 351.375 235.838 351.375 239.905V246.514C351.375 250.581 354.941 254.14 359.016 254.14C363.091 254.14 366.656 250.581 366.656 246.514V239.905C366.656 235.838 363.091 232.279 359.016 232.279Z" fill="black"/>
<path d="M376.336 424.955C372.261 424.955 368.695 428.514 368.695 432.581V439.19C368.695 443.257 372.261 446.816 376.336 446.816C380.411 446.816 383.977 443.257 383.977 439.19V432.581C383.977 428.006 380.411 424.955 376.336 424.955Z" fill="black"/>
<path d="M410.461 424.955C406.386 424.955 402.82 428.514 402.82 432.581V439.19C402.82 443.257 406.386 446.816 410.461 446.816C414.536 446.816 418.101 443.257 418.101 439.19V432.581C418.101 428.006 414.536 424.955 410.461 424.955Z" fill="black"/>
<path d="M675.336 471.218H664.13V321.754C664.13 317.687 660.564 314.128 656.489 314.128C652.414 314.128 648.848 317.687 648.848 321.754V364.458H458.852V362.425C458.852 358.358 455.286 354.799 451.211 354.799C447.136 354.799 443.57 358.358 443.57 362.425V470.201H350.355V414.788C350.355 410.721 346.789 407.162 342.714 407.162H311.133C307.058 407.162 303.492 410.721 303.492 414.788V471.218H276.495V429.531C276.495 425.464 272.93 421.905 268.855 421.905C264.78 421.905 261.214 425.464 261.214 429.531V471.218H164.433V414.788C164.433 410.721 160.867 407.162 156.792 407.162H126.739C122.664 407.162 119.098 410.721 119.098 414.788V471.218H67.1422V273.458H259.686V386.827C259.686 390.894 263.252 394.452 267.327 394.452C271.402 394.452 274.967 390.894 274.967 386.827V324.804H295.342C299.417 324.804 302.983 321.246 302.983 317.179V279.05C315.717 262.782 343.733 226.179 357.995 198.218C371.239 226.179 396.708 262.274 408.423 278.542C408.423 278.542 408.423 290.235 408.423 297.86C408.423 301.927 411.989 305.486 416.064 305.486H441.533V332.43C441.533 336.497 445.098 340.056 449.173 340.056C453.248 340.056 456.814 336.497 456.814 332.43V205.844H646.811V285.659C646.811 289.726 650.377 293.285 654.452 293.285C658.527 293.285 662.092 289.726 662.092 285.659V197.709C662.092 196.693 662.092 195.676 661.583 194.659C650.377 166.19 642.227 136.704 638.152 106.709C637.642 102.642 634.586 100.101 630.511 100.101H451.211C447.136 100.101 443.57 103.659 443.57 107.726V203.81H379.898C374.295 194.659 370.22 185 367.164 174.832C366.145 170.765 362.07 168.223 357.995 169.24C355.448 169.749 352.902 172.29 352.392 174.832C349.336 185 344.242 194.659 338.639 203.81H275.986V191.609C275.986 187.542 272.42 183.983 268.345 183.983H117.061C114.005 183.983 111.458 185.508 109.93 188.559C98.7234 212.452 75.2922 252.615 57.9734 258.715C54.9172 259.732 52.8797 262.782 52.8797 265.832V471.218H41.1641C37.0891 471.218 33.5234 474.776 33.5234 478.844C33.5234 482.911 37.0891 486.469 41.1641 486.469H675.845C679.92 486.469 683.486 482.911 683.486 478.844C683.486 474.776 679.92 471.218 675.336 471.218ZM458.852 115.352H625.927C630.002 140.771 636.114 165.682 645.283 190.084H458.852V115.352ZM388.558 219.061H443.061V289.218H424.723V288.709C428.798 287.184 430.836 283.117 429.308 279.05C428.798 278.034 428.798 277.525 428.289 277.017C427.78 277.017 406.386 248.039 388.558 219.061ZM274.967 219.061H327.942C313.68 240.413 285.155 277.017 285.155 277.017C282.608 280.067 283.117 285.151 286.173 287.693C286.683 288.201 287.702 288.709 288.211 288.709V309.045H275.477V219.061H274.967ZM120.627 199.235C120.627 198.726 120.627 198.726 120.627 199.235C123.683 199.235 255.102 199.235 259.686 199.235V257.698C254.083 257.698 91.0828 257.698 82.9328 257.698C100.252 239.397 115.023 210.927 120.627 199.235ZM149.152 471.218H134.38V422.413H149.152V471.218ZM334.055 471.218H317.755V422.413H334.055V471.218ZM613.192 471.218H580.592V433.089C580.592 424.955 586.195 417.33 593.836 416.313C604.023 414.279 613.192 422.413 613.192 432.581V471.218ZM648.848 471.218H628.983V433.598C628.983 416.313 615.739 401.061 598.42 400.553C580.592 400.045 565.82 414.279 565.82 432.073V470.709H458.852V380.218H648.848V471.218Z" fill="black"/>
<path d="M396.709 516.464H39.1281C36.0719 516.464 33.0156 513.922 33.0156 510.363C33.0156 507.313 35.5625 504.263 39.1281 504.263H396.709C399.766 504.263 402.822 506.804 402.822 510.363C402.822 513.413 400.275 516.464 396.709 516.464Z" fill="black"/>
<path d="M567.856 516.464H434.909C431.853 516.464 428.797 513.922 428.797 510.363C428.797 507.313 431.344 504.263 434.909 504.263H568.366C571.422 504.263 574.478 506.804 574.478 510.363C573.969 513.413 571.422 516.464 567.856 516.464Z" fill="black"/>
<path d="M677.881 516.464H605.55C602.494 516.464 599.438 513.922 599.438 510.363C599.438 507.313 601.984 504.263 605.55 504.263H677.881C680.937 504.263 683.994 506.804 683.994 510.363C683.994 513.413 681.447 516.464 677.881 516.464Z" fill="black"/>
<path d="M289.741 549H39.1281C36.0719 549 33.0156 546.458 33.0156 542.899C33.0156 539.849 35.5625 536.799 39.1281 536.799H289.741C292.797 536.799 295.853 539.341 295.853 542.899C295.853 545.95 293.306 549 289.741 549Z" fill="black"/>
<path d="M495.528 549H332.019C328.963 549 325.906 546.458 325.906 542.899C325.906 539.849 328.453 536.799 332.019 536.799H495.528C498.584 536.799 501.641 539.341 501.641 542.899C501.131 545.95 498.584 549 495.528 549Z" fill="black"/>
<path d="M677.888 549H534.753C531.697 549 528.641 546.458 528.641 542.899C528.641 539.849 531.187 536.799 534.753 536.799H677.888C680.944 536.799 684 539.341 684 542.899C684 545.95 681.453 549 677.888 549Z" fill="black"/>
</g>
<defs>
<filter id="filter0_d" x="67" y="0" width="618" height="618" filterUnits="userSpaceOnUse" color-interpolation-filters="sRGB">
<feFlood flood-opacity="0" result="BackgroundImageFix"/>
<feColorMatrix in="SourceAlpha" type="matrix" values="0 0 0 0 0 0 0 0 0 0 0 0 0 0 0 0 0 0 127 0" result="hardAlpha"/>
<feOffset dy="4"/>
<feGaussianBlur stdDeviation="8"/>
<feColorMatrix type="matrix" values="0 0 0 0 0 0 0 0 0 0 0 0 0 0 0 0 0 0 0.06 0"/>
<feBlend mode="normal" in2="BackgroundImageFix" result="effect1_dropShadow"/>
<feBlend mode="normal" in="SourceGraphic" in2="effect1_dropShadow" result="shape"/>
</filter>
<filter id="filter1_d" x="0" y="9" width="104" height="104" filterUnits="userSpaceOnUse" color-interpolation-filters="sRGB">
<feFlood flood-opacity="0" result="BackgroundImageFix"/>
<feColorMatrix in="SourceAlpha" type="matrix" values="0 0 0 0 0 0 0 0 0 0 0 0 0 0 0 0 0 0 127 0" result="hardAlpha"/>
<feOffset dy="4"/>
<feGaussianBlur stdDeviation="8"/>
<feColorMatrix type="matrix" values="0 0 0 0 0 0 0 0 0 0 0 0 0 0 0 0 0 0 0.06 0"/>
<feBlend mode="normal" in2="BackgroundImageFix" result="effect1_dropShadow"/>
<feBlend mode="normal" in="SourceGraphic" in2="effect1_dropShadow" result="shape"/>
</filter>
<linearGradient id="paint0_linear" x1="376" y1="12" x2="376" y2="598" gradientUnits="userSpaceOnUse">
<stop stop-color="#C7000D" stop-opacity="0.61"/>
<stop offset="1" stop-color="#C70077" stop-opacity="0.12"/>
</linearGradient>
<linearGradient id="paint1_linear" x1="52" y1="21" x2="52" y2="93" gradientUnits="userSpaceOnUse">
<stop stop-color="#C7000D" stop-opacity="0.61"/>
<stop offset="1" stop-color="#C70077" stop-opacity="0.12"/>
</linearGradient>
<clipPath id="clip0">
<rect width="652" height="455" fill="white" transform="translate(32 94)"/>
</clipPath>
</defs>
</svg>
