<svg width="58" height="57" viewBox="0 0 58 57" fill="none" xmlns="http://www.w3.org/2000/svg">
<circle cx="29.0537" cy="28.8772" r="27.5" transform="rotate(180 29.0537 28.8772)" stroke="white"/>
<g clip-path="url(#clip0)">
<path d="M28.0123 41.8897L28.2842 42.1617L28.5562 41.8897L30.9062 39.5397L31.1779 39.268L30.9064 38.9961L22.2616 30.3357L41.6176 30.3357L42.0022 30.3357L42.0022 29.9511L42.0021 26.6178L42.0022 26.2332L41.6175 26.2332L22.2616 26.2332L30.9064 17.5728L31.1779 17.3009L30.9062 17.0291L28.5562 14.6791L28.2842 14.4072L28.0123 14.6791L14.6789 28.0125L14.407 28.2844L14.6789 28.5564L28.0123 41.8897Z" fill="white"/>
</g>
<defs>
<clipPath id="clip0">
<rect width="40" height="40" fill="white" transform="translate(28.2842 56.5686) rotate(-135)"/>
</clipPath>
</defs>
</svg>
