<svg width="687" height="618" viewBox="0 0 687 618" fill="none" xmlns="http://www.w3.org/2000/svg">
<g filter="url(#filter0_d)">
<rect x="83" y="12" width="586" height="586" rx="293" fill="url(#paint0_linear)"/>
</g>
<g filter="url(#filter1_d)">
<rect x="16" y="21" width="72" height="72" rx="36" fill="url(#paint1_linear)"/>
</g>
<g clip-path="url(#clip0)">
<path d="M168.622 343.895H149.525V357.188H168.622V343.895Z" fill="#33145C"/>
<path d="M201.92 263.824H182.824V277.117H201.92V263.824Z" fill="#33145C"/>
<path d="M276.289 232.703H257.193V245.996H276.289V232.703Z" fill="#33145C"/>
<path d="M354.209 264.035H335.113V277.328H354.209V264.035Z" fill="#33145C"/>
<path d="M386.26 342.524H367.164V355.816H386.26V342.524Z" fill="#33145C"/>
<path d="M274.081 462.367C328.669 462.367 372.921 413.718 372.921 353.706C372.921 293.695 328.669 245.046 274.081 245.046C219.494 245.046 175.242 293.695 175.242 353.706C175.242 413.718 219.494 462.367 274.081 462.367Z" fill="#33145C"/>
<path d="M460.82 234.075H439.613V365.1H460.82V234.075Z" fill="#33145C"/>
<path d="M502.276 102.944H476.847C471.857 102.944 467.73 107.374 467.73 112.966V171.832C467.73 177.318 471.761 181.854 476.847 181.854H515.519C520.509 181.854 524.635 177.423 524.635 171.832V141.66C524.635 140.078 524.251 138.496 523.675 137.124L510.337 108.429C508.802 105.054 505.635 102.944 502.276 102.944Z" fill="#33145C"/>
<path d="M531.065 174.153H457.176V231.015H545.075V197.679L538.166 179.428C537.111 176.263 534.232 174.153 531.065 174.153Z" fill="#33145C"/>
<path d="M555.342 378.287H534.999C529.241 378.287 524.635 373.118 524.635 366.893V242.514C524.635 236.184 529.337 231.121 534.999 231.121H555.342C561.1 231.121 565.706 236.29 565.706 242.514V366.893C565.706 373.223 561.1 378.287 555.342 378.287Z" fill="#33145C"/>
<path d="M556.782 234.075H451.609V532.943H556.782V234.075Z" fill="#33145C"/>
<path d="M483.755 349.17C459.381 349.17 439.613 327.438 439.613 300.642C439.613 273.846 459.381 252.114 483.755 252.114C508.129 252.114 527.897 273.846 527.897 300.642C527.897 327.438 508.129 349.17 483.755 349.17ZM483.755 271.42C469.073 271.42 457.27 284.501 457.27 300.537C457.27 316.572 469.169 329.653 483.755 329.653C498.437 329.653 510.24 316.572 510.24 300.537C510.24 284.501 498.437 271.42 483.755 271.42Z" fill="black"/>
<path d="M545.65 378.287H421.957C417.063 378.287 413.129 373.962 413.129 368.581V358.876C413.129 353.495 417.063 349.17 421.957 349.17C426.851 349.17 430.786 353.495 430.786 358.876H536.822V242.303H430.786V320.053C430.786 325.434 426.851 329.759 421.957 329.759C417.063 329.759 413.129 325.434 413.129 320.053V232.598C413.129 227.217 417.063 222.892 421.957 222.892H545.65C550.544 222.892 554.479 227.217 554.479 232.598V368.581C554.479 373.962 550.448 378.287 545.65 378.287Z" fill="black"/>
<path d="M493.16 310.348H483.852C478.958 310.348 475.023 306.022 475.023 300.642V288.088C475.023 284.29 477.806 281.231 481.261 281.231H486.443C489.897 281.231 492.68 284.29 492.68 288.088V290.937H493.16C497.766 290.937 501.508 295.051 501.508 300.115V301.275C501.412 306.233 497.67 310.348 493.16 310.348Z" fill="black"/>
<path d="M527.897 242.303H439.518C434.624 242.303 430.689 237.978 430.689 232.598V203.481C430.689 198.101 434.624 193.775 439.518 193.775H527.897C532.791 193.775 536.726 198.101 536.726 203.481V232.598C536.822 237.978 532.791 242.303 527.897 242.303ZM448.442 222.892H519.165V213.186H448.442V222.892Z" fill="black"/>
<path d="M519.549 206.54L512.736 184.07H454.776L447.963 206.54L431.17 200.421L439.998 171.305C441.246 167.296 444.604 164.659 448.443 164.659H519.166C523.004 164.659 526.363 167.296 527.514 171.305L536.342 200.421L519.549 206.54Z" fill="black"/>
<path d="M510.242 184.07H457.272C452.378 184.07 448.443 179.744 448.443 174.364V145.142C448.443 139.762 452.378 135.436 457.272 135.436H510.242C515.136 135.436 519.07 139.762 519.07 145.142V174.259C519.07 179.639 515.136 184.07 510.242 184.07ZM466.1 164.659H501.414V154.953H466.1V164.659Z" fill="black"/>
<path d="M502.372 149.573L483.756 108.64L465.236 149.573L449.402 140.922L475.887 82.6885C478.478 77.8357 484.14 76.3588 488.554 79.2071C489.898 80.0511 490.953 81.3171 491.721 82.6885L518.206 140.922L502.372 149.573Z" fill="black"/>
<path d="M536.822 407.404H430.785C425.891 407.404 421.957 403.078 421.957 397.698V368.581C421.957 363.201 425.891 358.876 430.785 358.876H536.822C541.716 358.876 545.65 363.201 545.65 368.581V397.698C545.65 403.078 541.62 407.404 536.822 407.404ZM439.614 387.992H527.993V378.287H439.614V387.992Z" fill="black"/>
<path d="M527.897 543.387H439.518C434.624 543.387 430.689 539.062 430.689 533.682V397.698C430.689 392.318 434.624 387.992 439.518 387.992H527.897C532.791 387.992 536.726 392.318 536.726 397.698V417.109C536.726 422.489 532.791 426.815 527.897 426.815C523.003 426.815 519.069 422.489 519.069 417.109V407.404H448.346V523.976H519.069V455.932C519.069 450.551 523.003 446.226 527.897 446.226C532.791 446.226 536.726 450.551 536.726 455.932V533.682C536.822 539.062 532.791 543.387 527.897 543.387Z" fill="black"/>
<path d="M466.1 417.109C470.994 417.109 474.928 421.435 474.928 426.815V446.226C474.928 451.606 470.994 455.932 466.1 455.932C461.206 455.932 457.271 451.606 457.271 446.226V426.815C457.271 421.54 461.206 417.109 466.1 417.109Z" fill="black"/>
<path d="M501.412 417.109C506.306 417.109 510.241 421.435 510.241 426.815V446.226C510.241 451.606 506.306 455.932 501.412 455.932C496.518 455.932 492.584 451.606 492.584 446.226V426.815C492.584 421.54 496.518 417.109 501.412 417.109Z" fill="black"/>
<path d="M466.1 475.448C470.994 475.448 474.928 479.773 474.928 485.154V504.565C474.928 509.945 470.994 514.27 466.1 514.27C461.206 514.27 457.271 509.945 457.271 504.565V485.154C457.271 479.773 461.206 475.448 466.1 475.448Z" fill="black"/>
<path d="M501.412 475.448C506.306 475.448 510.241 479.773 510.241 485.154V504.565C510.241 509.945 506.306 514.27 501.412 514.27C496.518 514.27 492.584 509.945 492.584 504.565V485.154C492.584 479.773 496.518 475.448 501.412 475.448Z" fill="black"/>
<path d="M75.8284 523.976H589.792C594.686 523.976 598.621 528.301 598.621 533.682C598.621 539.062 594.686 543.387 589.792 543.387H75.8284C70.9344 543.387 67 539.062 67 533.682C67 528.301 70.9344 523.976 75.8284 523.976Z" fill="black"/>
<path d="M678.172 523.976C683.066 523.976 687 528.301 687 533.682C687 539.062 683.066 543.387 678.172 543.387C673.278 543.387 669.344 539.062 669.344 533.682C669.344 528.301 673.278 523.976 678.172 523.976Z" fill="black"/>
<path d="M625.106 523.976H642.762C647.656 523.976 651.591 528.301 651.591 533.682C651.591 539.062 647.656 543.387 642.762 543.387H625.106C620.212 543.387 616.277 539.062 616.277 533.682C616.277 528.301 620.212 523.976 625.106 523.976Z" fill="black"/>
<path d="M594.014 102.944C578.468 102.944 564.842 114.126 560.236 130.372C560.14 130.583 560.044 130.689 559.852 130.689H543.539C537.973 130.689 533.463 135.647 533.463 141.766C533.463 147.885 537.973 152.843 543.539 152.843H568.392C574.246 152.843 578.66 147.568 578.948 141.133C579.236 131.744 586.529 124.359 595.261 125.098C603.226 125.731 608.6 133.748 609.176 142.504C609.559 148.201 613.878 152.738 619.251 152.738H629.327C634.893 152.738 639.403 147.779 639.403 141.66C639.403 135.542 634.893 130.583 629.327 130.583H628.176C627.984 130.583 627.888 130.478 627.792 130.267C623.186 114.126 609.463 102.944 594.014 102.944Z" fill="black"/>
<path d="M345.189 185.547C334.442 185.547 324.941 193.248 321.679 204.641C321.679 204.747 321.583 204.852 321.391 204.852H310.068C306.229 204.852 303.062 208.334 303.062 212.553C303.062 216.773 306.229 220.255 310.068 220.255H327.34C331.371 220.255 334.538 216.562 334.633 212.131C334.825 205.591 339.911 200.527 345.957 201.054C351.523 201.582 355.265 207.068 355.649 213.186C355.937 217.195 358.911 220.36 362.654 220.36H369.659C373.497 220.36 376.664 216.879 376.664 212.659C376.664 208.439 373.497 204.958 369.659 204.958H368.795C368.699 204.958 368.603 204.852 368.508 204.747C365.437 193.353 355.937 185.547 345.189 185.547Z" fill="black"/>
<path d="M197.217 440.529C197.217 441.795 197.505 443.061 197.985 444.116L202.975 448.23C203.454 448.336 203.838 448.336 204.318 448.336H229.556C217.465 443.8 206.429 436.415 197.121 426.815V440.529H197.217Z" fill="black"/>
<path d="M235.314 449.391H204.319C203.839 449.391 203.359 449.391 202.783 449.285H202.591L197.218 444.855L197.122 444.644C196.738 443.694 196.45 442.639 196.354 441.69H196.162V424.494L197.793 426.182C207.198 435.782 217.945 442.956 229.844 447.492L235.314 449.391ZM203.359 447.281C203.647 447.281 203.935 447.281 204.319 447.281H224.278C214.682 442.956 205.95 436.942 198.081 429.241V439.474H198.177V440.529C198.177 441.479 198.369 442.534 198.753 443.378L203.359 447.281Z" fill="black"/>
<path d="M144.727 364.889H154.227C156.05 364.889 157.778 364.467 159.409 363.728C160.273 374.594 162.576 385.144 166.222 395.166H176.49C171.212 382.401 168.429 368.476 168.525 354.339H178.025C178.025 368.687 181.192 382.612 187.046 395.166H190.02C193.955 395.166 197.121 398.647 197.121 402.973V424.388L202.783 418.164C211.132 427.026 221.207 433.883 232.243 438.103L229.652 448.23H231.475C235.41 448.23 238.576 444.749 238.576 440.424C238.576 436.098 241.743 432.617 245.677 432.617H254.218C250.763 432.406 247.405 431.879 243.95 431.14L254.218 391.79V432.617H263.718V391.79L273.986 431.14C270.627 431.879 267.172 432.406 263.718 432.617H287.708C289.723 432.617 291.546 433.566 292.89 435.043C301.142 430.824 308.627 425.232 315.153 418.27L321.87 425.654C314.097 433.988 304.981 440.635 295.097 445.382C295.96 448.758 298.647 451.184 302.006 451.184H311.314L320.814 443.378V451.184H330.314V447.597C331.85 448.23 333.481 448.547 335.112 448.547H342.789C343.941 447.175 344.612 445.276 344.612 443.272V437.997H335.112C332.521 437.997 330.314 435.676 330.314 432.722C330.314 431.773 330.602 430.929 331.082 430.085C331.466 429.558 331.946 429.03 332.329 428.608C333.097 427.975 334.057 427.553 335.112 427.553H344.612C345.86 427.553 346.915 428.081 347.779 428.925C348.931 428.081 350.274 427.553 351.809 427.553H358.143C356.224 421.434 350.946 417.109 344.708 417.109H340.966C351.042 401.285 357.087 382.929 358.623 363.623C360.254 364.361 362.077 364.678 363.804 364.783H372.921C380.598 364.783 387.219 358.243 387.603 349.803C387.986 340.836 381.461 333.346 373.305 333.346H363.804C361.597 333.346 359.39 333.979 357.375 335.034C354.496 317.205 347.587 300.431 337.415 286.189H339.622C347.299 286.189 353.921 279.649 354.304 271.209C354.688 262.242 348.163 254.752 340.006 254.752H330.506C324.557 254.752 319.279 258.866 317.168 264.879C305.077 255.385 291.162 248.844 276.577 245.996C277.632 243.78 278.112 241.459 278.112 238.927C278.112 230.277 271.683 223.208 263.814 223.208H254.314C246.445 223.208 240.016 230.277 240.016 238.927C240.016 241.354 240.591 243.78 241.551 245.996C226.869 248.844 213.051 255.279 200.96 264.879C198.849 258.76 193.571 254.752 187.621 254.752H178.505C170.828 254.752 164.207 261.292 163.823 269.732C163.439 278.699 169.965 286.189 178.121 286.189H180.712C170.444 300.431 163.631 317.205 160.752 335.034C158.737 333.873 156.626 333.346 154.323 333.346H145.207C137.53 333.346 130.909 339.886 130.525 348.326C130.045 357.399 136.57 364.889 144.727 364.889ZM363.709 343.895H373.209C375.8 343.895 378.007 346.216 378.007 349.17C378.007 352.018 375.895 354.445 373.209 354.445H363.709C361.118 354.445 358.91 352.124 358.91 349.17C358.91 346.322 361.022 343.895 363.709 343.895ZM187.525 354.445H247.405L203.071 403.184C193.091 389.364 187.525 372.168 187.525 354.445ZM234.834 428.186C225.43 424.494 216.793 418.586 209.5 410.885L251.243 364.994L234.834 428.186ZM254.218 336.511L214.586 292.941C225.909 283.024 239.728 277.117 254.218 276.062V336.511ZM283.102 428.186L266.693 365.1L308.435 410.99C301.142 418.586 292.506 424.494 283.102 428.186ZM263.718 336.511V276.167C278.208 277.222 292.026 283.13 303.349 293.046L263.718 336.511ZM314.865 403.184L270.435 354.445H330.314C330.41 372.168 324.941 389.364 314.865 403.184ZM328.395 418.059L321.678 410.674C333.481 394.85 340.006 374.911 340.006 354.445H349.506C349.41 377.654 342.021 400.23 328.395 418.059ZM330.41 265.407H339.91C342.501 265.407 344.708 267.728 344.708 270.681C344.708 273.635 342.597 275.956 339.91 275.956H330.41C329.547 275.956 328.779 275.64 328.011 275.112C327.531 274.69 327.052 274.163 326.668 273.741C326.092 272.897 325.708 271.842 325.708 270.681C325.612 267.833 327.723 265.407 330.41 265.407ZM323.789 285.24C337.895 301.17 346.724 321.847 348.835 343.895H339.239C337.128 324.59 329.355 306.55 317.072 292.625L323.789 285.24ZM329.643 343.895H270.435L310.355 300.009C320.91 312.036 327.627 327.438 329.643 343.895ZM316.88 278.172L310.163 285.556C297.016 273.741 280.799 266.778 263.814 265.723V255.279C283.198 256.334 301.91 264.352 316.88 278.172ZM254.218 234.075H263.718C266.309 234.075 268.516 236.395 268.516 239.349C268.516 242.303 266.405 244.624 263.718 244.624H254.218C251.627 244.624 249.42 242.303 249.42 239.349C249.42 236.395 251.627 234.075 254.218 234.075ZM254.218 255.279V265.723C237.233 266.778 221.015 273.741 207.869 285.556L201.152 278.172C216.026 264.352 234.738 256.334 254.218 255.279ZM207.581 300.115L247.501 344.001H188.293C190.308 327.438 197.025 312.036 207.581 300.115ZM178.025 275.956C175.434 275.956 173.227 273.635 173.227 270.681C173.227 267.833 175.338 265.407 178.025 265.407H187.525C190.116 265.407 192.323 267.728 192.323 270.681C192.323 271.736 191.939 272.897 191.364 273.741C190.884 274.163 190.404 274.69 190.02 275.112C189.349 275.64 188.485 275.851 187.621 275.956H178.025ZM194.147 285.24L200.864 292.625C188.581 306.55 180.808 324.59 178.697 343.895H169.101C171.212 321.847 180.04 301.17 194.147 285.24ZM144.727 343.895H154.227C156.818 343.895 159.025 346.216 159.025 349.17C159.025 352.018 156.914 354.445 154.227 354.445H144.727C142.136 354.445 139.929 352.124 139.929 349.17C139.929 346.322 142.136 343.895 144.727 343.895Z" fill="black"/>
<path d="M331.275 452.239H319.855V445.487L311.603 452.239H302.007C298.36 452.239 295.193 449.602 294.138 445.698L293.946 444.855L294.714 444.538C304.406 439.896 313.042 433.566 320.527 425.76L315.153 419.852C308.82 426.498 301.431 431.984 293.274 436.098L292.698 436.415L292.219 435.887C290.971 434.516 289.34 433.777 287.709 433.777H245.678C242.319 433.777 239.536 436.837 239.536 440.529C239.536 445.382 235.89 449.391 231.476 449.391H228.405L231.092 438.841C220.632 434.727 210.94 428.081 202.784 419.747L196.162 427.026V403.078C196.162 399.386 193.379 396.327 190.021 396.327H186.47L186.182 395.799C180.329 383.351 177.258 369.425 177.066 355.5H169.485C169.581 368.898 172.268 382.507 177.354 394.85L177.93 396.327H165.551L165.263 395.694C161.713 385.988 159.409 375.755 158.546 365.311C157.106 365.838 155.667 366.049 154.228 366.049H144.728C140.505 366.049 136.571 364.15 133.692 360.775C130.813 357.399 129.374 352.968 129.566 348.326C129.95 339.359 136.859 332.396 145.207 332.396H154.324C156.339 332.396 158.258 332.818 160.081 333.557C162.96 316.783 169.389 300.853 178.793 287.35H178.122C173.9 287.35 169.965 285.451 167.086 282.18C164.208 278.805 162.672 274.479 162.864 269.837C163.248 260.87 170.157 253.802 178.506 253.802H187.622C193.571 253.802 198.849 257.495 201.344 263.402C213.051 254.33 226.102 248.211 240.112 245.363C239.344 243.253 238.961 241.143 238.961 239.138C238.961 229.855 245.774 222.365 254.218 222.365H263.718C272.163 222.365 278.976 229.855 278.976 239.138C278.976 241.354 278.592 243.464 277.921 245.468C291.643 248.316 304.981 254.541 316.689 263.508C319.184 257.706 324.557 253.908 330.411 253.908H339.911C344.133 253.908 348.068 255.807 350.946 259.077C353.825 262.453 355.361 266.778 355.169 271.42C354.785 280.387 347.876 287.455 339.527 287.455H339.239C348.643 301.17 355.073 317.099 357.952 333.768C359.871 332.924 361.79 332.502 363.613 332.502H373.113C377.336 332.502 381.27 334.401 384.149 337.671C387.028 341.047 388.563 345.372 388.371 350.014C387.987 358.981 381.078 366.049 372.729 366.049H363.613C361.982 365.944 360.542 365.733 359.295 365.311C357.664 383.562 351.906 401.179 342.598 416.265H344.517C351.042 416.265 356.8 420.696 358.815 427.448L359.295 428.819H351.618C350.371 428.819 349.219 429.241 348.164 429.98L347.588 430.402L347.012 429.874C346.244 429.136 345.381 428.819 344.517 428.819H335.017C334.057 428.819 333.29 429.241 332.906 429.663C332.522 430.085 332.138 430.507 331.85 430.929C331.466 431.668 331.275 432.301 331.275 432.933C331.275 435.254 333.002 437.153 335.113 437.153H345.573V443.483C345.573 445.698 344.805 447.914 343.462 449.496L343.174 449.813H335.113C333.77 449.813 332.522 449.602 331.275 449.285V452.239ZM321.774 450.129H329.355V446.12L330.699 446.648C332.138 447.281 333.578 447.492 335.113 447.492H342.31C343.174 446.331 343.653 444.855 343.653 443.272V439.052H335.113C331.946 439.052 329.355 436.204 329.355 432.723C329.355 431.668 329.643 430.613 330.315 429.558L330.411 429.452C330.795 428.925 331.37 428.292 331.754 427.87L331.85 427.764C332.81 426.92 334.057 426.498 335.209 426.498H344.709C345.861 426.498 347.012 426.92 347.972 427.659C349.219 426.92 350.563 426.498 351.906 426.498H356.8C354.689 421.435 349.987 418.164 344.805 418.164H339.239L340.295 416.476C350.179 400.863 356.224 382.612 357.76 363.517L357.856 362.041L359.103 362.568C360.446 363.201 362.078 363.517 363.997 363.623H373.017C380.214 363.623 386.356 357.399 386.74 349.698C386.932 345.689 385.588 341.785 383.093 338.937C380.502 335.983 377.144 334.401 373.401 334.401H363.901C361.982 334.401 359.871 334.928 357.856 335.983L356.704 336.616L356.512 335.245C353.729 317.732 346.82 301.064 336.744 286.822L335.497 285.134H339.719C346.916 285.134 353.058 278.91 353.441 271.209C353.633 267.2 352.29 263.297 349.795 260.448C347.204 257.495 343.845 255.912 340.103 255.912H330.603C325.133 255.912 320.143 259.71 318.128 265.407L317.648 266.673L316.689 265.934C304.694 256.44 290.779 250.004 276.481 247.261L275.234 247.05L275.809 245.785C276.769 243.78 277.249 241.67 277.249 239.244C277.249 231.121 271.299 224.58 263.91 224.58H254.41C247.021 224.58 241.072 231.121 241.072 239.244C241.072 241.354 241.552 243.675 242.511 245.89L243.087 247.156L241.839 247.367C227.253 250.215 213.723 256.545 201.632 266.04L200.576 266.884L200.097 265.618C198.082 259.921 193.188 256.123 187.622 256.123H178.506C171.309 256.123 165.167 262.347 164.783 270.048C164.591 274.057 165.935 277.961 168.43 280.809C171.021 283.763 174.379 285.345 178.122 285.345H182.728L181.48 287.033C171.405 301.064 164.591 317.732 161.713 335.456L161.521 336.827L160.369 336.194C158.546 335.139 156.627 334.612 154.42 334.612H145.303C138.106 334.612 131.965 340.836 131.581 348.537C131.389 352.651 132.637 356.449 135.132 359.403C137.626 362.357 141.081 363.939 144.824 363.939H154.324C155.955 363.939 157.586 363.623 159.122 362.885L160.369 362.357L160.465 363.834C161.329 374.278 163.44 384.511 166.99 394.322H175.147C170.157 381.768 167.566 368.054 167.662 354.55V353.495H179.081V354.55C179.081 368.265 182.056 381.979 187.718 394.322H190.117C194.531 394.322 198.177 398.331 198.177 403.184V422.067L202.88 416.898L203.551 417.637C211.804 426.393 221.88 433.25 232.627 437.364L233.491 437.681L230.996 447.386H231.572C234.93 447.386 237.713 444.327 237.713 440.635C237.713 436.731 240.016 433.461 243.183 432.195L242.799 432.09L255.274 384.406V431.668H262.855V384.406L275.234 431.668H287.709C289.628 431.668 291.547 432.406 293.082 433.883C301.047 429.663 308.244 424.283 314.481 417.637L315.153 416.898L323.214 425.76L322.542 426.498C314.961 434.621 306.133 441.162 296.249 446.015C297.209 448.547 299.416 450.235 302.007 450.235H311.027L321.774 441.373V450.129ZM245.198 430.296C248.173 430.929 250.764 431.246 253.259 431.457V399.28L245.198 430.296ZM264.678 399.28V431.457C267.269 431.246 269.956 430.824 272.739 430.296L264.678 399.28ZM235.506 429.558L234.546 429.136C224.95 425.338 216.314 419.43 208.829 411.623L208.157 410.885L253.163 361.408L235.506 429.558ZM210.844 410.885C217.657 417.953 225.526 423.228 234.163 426.815L249.228 368.581L210.844 410.885ZM282.431 429.558L264.678 361.513L309.779 411.096L309.108 411.834C301.719 419.536 292.794 425.549 283.39 429.241L282.431 429.558ZM268.612 368.687L283.678 426.815C292.123 423.333 300.183 417.848 306.997 410.99L268.612 368.687ZM328.492 419.641L320.431 410.779L321.007 410.041C332.714 394.428 339.143 374.7 339.143 354.445V353.39H350.563V354.445C350.467 378.076 342.886 400.863 329.259 418.692L328.492 419.641ZM322.926 410.568L328.3 416.476C341.062 399.386 348.164 377.759 348.547 355.5H340.967C340.775 375.438 334.345 394.955 322.926 410.568ZM202.975 404.766L202.304 403.817C192.132 389.786 186.566 372.168 186.566 354.445V353.39H249.708L202.975 404.766ZM188.485 355.5C188.677 372.063 193.859 388.309 203.167 401.601L245.102 355.5H188.485ZM314.961 404.766L268.133 353.39H331.275V354.445C331.37 372.274 325.805 389.891 315.633 403.817L314.961 404.766ZM272.739 355.5L314.769 401.601C324.078 388.414 329.259 372.168 329.355 355.5H272.739ZM373.209 355.5H363.709C360.542 355.5 357.952 352.651 357.952 349.17C357.952 345.689 360.542 342.84 363.709 342.84H373.209C376.376 342.84 378.967 345.689 378.967 349.17C378.967 352.651 376.376 355.5 373.209 355.5ZM363.709 344.95C361.598 344.95 359.871 346.849 359.871 349.17C359.871 351.491 361.598 353.39 363.709 353.39H373.209C375.32 353.39 377.048 351.491 377.048 349.17C377.048 346.849 375.32 344.95 373.209 344.95H363.709ZM154.228 355.5H144.728C141.561 355.5 138.97 352.651 138.97 349.17C138.97 345.689 141.561 342.84 144.728 342.84H154.228C157.394 342.84 159.985 345.689 159.985 349.17C159.985 352.651 157.394 355.5 154.228 355.5ZM144.728 344.95C142.712 344.95 140.889 346.955 140.889 349.17C140.889 351.491 142.616 353.39 144.728 353.39H154.228C156.339 353.39 158.066 351.491 158.066 349.17C158.066 346.849 156.339 344.95 154.228 344.95H144.728ZM249.804 345.056H187.142L187.334 343.895C189.445 326.911 196.162 311.508 206.91 299.376L207.582 298.638L249.804 345.056ZM189.445 342.946H245.198L207.582 301.592C197.794 312.985 191.556 327.227 189.445 342.946ZM349.891 344.95H338.376L338.28 344.001C336.169 325.012 328.396 306.972 316.401 293.363L315.729 292.625L323.79 283.763L324.461 284.501C338.663 300.537 347.684 321.636 349.795 343.79L349.891 344.95ZM340.103 342.84H347.78C345.573 321.847 337.032 302.014 323.79 286.717L318.416 292.625C330.219 306.339 337.896 324.062 340.103 342.84ZM330.699 344.95H268.037L310.259 298.532L310.931 299.271C321.678 311.508 328.396 326.911 330.507 343.79L330.699 344.95ZM272.739 342.84H328.492C326.381 327.227 320.047 312.985 310.259 301.486L272.739 342.84ZM179.561 344.95H168.046L168.142 343.79C170.253 321.636 179.273 300.537 193.475 284.501L194.147 283.763L202.208 292.625L201.536 293.363C189.445 306.972 181.672 325.012 179.657 344.001L179.561 344.95ZM170.157 342.84H177.834C180.041 324.062 187.718 306.339 199.521 292.625L194.147 286.717C180.905 302.014 172.46 321.847 170.157 342.84ZM255.178 339.043L213.147 292.836L214.011 292.097C225.526 281.969 239.44 276.062 254.218 275.007L255.274 274.901V339.043H255.178ZM216.026 293.047L253.259 333.979V277.222C239.632 278.383 226.87 283.868 216.026 293.047ZM262.759 339.043V275.007L263.814 275.112C278.496 276.167 292.411 282.075 304.022 292.203L304.885 292.941L262.759 339.043ZM264.678 277.328V333.979L301.911 293.152C291.067 283.974 278.304 278.488 264.678 277.328ZM310.259 286.928L309.587 286.295C296.441 274.479 280.607 267.728 263.814 266.673L262.951 266.567V254.013L263.91 254.119C283.486 255.174 302.582 263.402 317.552 277.222L318.32 277.961L310.259 286.928ZM264.774 264.774C281.375 266.04 297.017 272.686 310.067 284.185L315.441 278.277C301.143 265.407 283.198 257.706 264.774 256.44V264.774ZM207.774 286.928L199.713 278.066L200.481 277.328C215.354 263.508 234.451 255.279 254.122 254.224L255.082 254.119V266.673L254.218 266.778C237.329 267.833 221.496 274.585 208.445 286.4L207.774 286.928ZM202.592 278.277L207.965 284.185C221.016 272.686 236.658 266.04 253.259 264.774V256.44C234.738 257.6 216.794 265.407 202.592 278.277ZM339.911 277.011H330.411C329.451 277.011 328.492 276.695 327.532 275.956L327.436 275.851C326.956 275.429 326.381 274.796 325.997 274.374L325.901 274.268C325.133 273.213 324.749 271.842 324.749 270.576C324.653 268.994 325.229 267.411 326.285 266.145C327.34 264.879 328.78 264.246 330.411 264.246H339.911C343.078 264.246 345.669 267.095 345.669 270.576C345.669 274.268 343.174 277.011 339.911 277.011ZM328.588 274.268C329.259 274.69 329.835 274.901 330.411 274.901H339.911C342.022 274.901 343.749 273.002 343.749 270.681C343.749 268.361 342.022 266.462 339.911 266.462H330.411C329.355 266.462 328.396 266.884 327.724 267.728C327.052 268.572 326.668 269.521 326.668 270.681C326.668 271.736 327.052 272.58 327.436 273.108C327.724 273.424 328.204 273.846 328.588 274.268ZM187.718 277.011H178.026C174.859 277.011 172.268 274.163 172.268 270.681C172.268 267.2 174.859 264.352 178.026 264.352H187.526C190.693 264.352 193.284 267.2 193.284 270.681C193.284 271.947 192.9 273.319 192.132 274.374L191.94 274.585C191.46 275.007 191.076 275.429 190.693 275.851L190.597 275.956C189.637 276.695 188.485 276.906 187.718 277.011ZM178.026 266.462C175.915 266.462 174.187 268.361 174.187 270.681C174.187 273.002 175.915 274.901 178.026 274.901H187.526C188.39 274.796 188.965 274.585 189.349 274.268C189.733 273.846 190.117 273.424 190.597 273.002C190.98 272.369 191.268 271.42 191.268 270.681C191.268 268.361 189.541 266.462 187.43 266.462H178.026ZM263.718 245.679H254.218C251.052 245.679 248.461 242.831 248.461 239.349C248.461 235.868 251.052 233.02 254.218 233.02H263.718C266.885 233.02 269.476 235.868 269.476 239.349C269.476 242.936 266.981 245.679 263.718 245.679ZM254.218 235.129C252.107 235.129 250.38 237.028 250.38 239.349C250.38 241.67 252.107 243.569 254.218 243.569H263.718C265.83 243.569 267.557 241.67 267.557 239.349C267.557 237.028 265.83 235.129 263.718 235.129H254.218Z" fill="black"/>
<path d="M344.614 434.832V442.639C344.614 446.964 341.448 450.446 337.513 450.446H302.008C298.073 450.446 294.907 446.964 294.907 442.639V439.791C294.907 435.465 291.74 431.984 287.806 431.984H245.775C241.841 431.984 238.674 435.465 238.674 439.791C238.674 444.116 235.507 447.597 231.573 447.597H204.512C200.578 447.597 197.411 444.116 197.411 439.791V402.34C197.411 398.015 194.244 394.533 190.31 394.533H148.087C144.153 394.533 140.986 398.015 140.986 402.34V415.316C140.986 419.641 137.82 423.122 133.885 423.122H98.5718C94.6374 423.122 91.4707 426.604 91.4707 430.929V524.926C91.4707 529.251 94.6374 532.732 98.5718 532.732H140.89H147.703H193.381H197.123H238.482H249.613H290.684H294.811H344.614H347.013H414.761C418.696 532.732 421.862 529.251 421.862 524.926V434.621C421.862 430.296 418.696 426.815 414.761 426.815H351.811C347.877 426.92 344.614 430.402 344.614 434.832Z" fill="black"/>
<path d="M108.454 442.006H101.545V458.674H108.454V442.006Z" fill="white"/>
<path d="M133.884 442.006H126.975V458.674H133.884V442.006Z" fill="white"/>
<path d="M108.454 471.017H101.545V487.686H108.454V471.017Z" fill="white"/>
<path d="M133.884 471.017H126.975V487.686H133.884V471.017Z" fill="white"/>
<path d="M108.454 500.029H101.545V516.697H108.454V500.029Z" fill="white"/>
<path d="M133.884 500.029H126.975V516.697H133.884V500.029Z" fill="white"/>
<path d="M159.794 442.006H152.885V458.674H159.794V442.006Z" fill="white"/>
<path d="M185.224 442.006H178.314V458.674H185.224V442.006Z" fill="white"/>
<path d="M159.794 412.995H152.885V429.663H159.794V412.995Z" fill="white"/>
<path d="M185.224 412.995H178.314V429.663H185.224V412.995Z" fill="white"/>
<path d="M159.794 471.017H152.885V487.686H159.794V471.017Z" fill="white"/>
<path d="M185.224 471.017H178.314V487.686H185.224V471.017Z" fill="white"/>
<path d="M159.794 500.029H152.885V516.697H159.794V500.029Z" fill="white"/>
<path d="M185.224 500.029H178.314V516.697H185.224V500.029Z" fill="white"/>
<path d="M251.147 442.006H244.238V458.674H251.147V442.006Z" fill="white"/>
<path d="M276.673 442.006H269.764V458.674H276.673V442.006Z" fill="white"/>
<path d="M251.147 471.017H244.238V487.686H251.147V471.017Z" fill="white"/>
<path d="M276.673 471.017H269.764V487.686H276.673V471.017Z" fill="white"/>
<path d="M251.147 500.029H244.238V516.697H251.147V500.029Z" fill="white"/>
<path d="M276.673 500.029H269.764V516.697H276.673V500.029Z" fill="white"/>
<path d="M205.374 471.017H198.465V487.686H205.374V471.017Z" fill="white"/>
<path d="M230.804 471.017H223.895V487.686H230.804V471.017Z" fill="white"/>
<path d="M205.374 500.029H198.465V516.697H205.374V500.029Z" fill="white"/>
<path d="M230.804 500.029H223.895V516.697H230.804V500.029Z" fill="white"/>
<path d="M312.37 471.017H305.461V487.686H312.37V471.017Z" fill="white"/>
<path d="M337.8 471.017H330.891V487.686H337.8V471.017Z" fill="white"/>
<path d="M312.37 500.029H305.461V516.697H312.37V500.029Z" fill="white"/>
<path d="M337.8 500.029H330.891V516.697H337.8V500.029Z" fill="white"/>
<path d="M375.321 442.006H368.412V458.674H375.321V442.006Z" fill="white"/>
<path d="M400.847 442.006H393.938V458.674H400.847V442.006Z" fill="white"/>
<path d="M375.321 471.017H368.412V487.686H375.321V471.017Z" fill="white"/>
<path d="M400.847 471.017H393.938V487.686H400.847V471.017Z" fill="white"/>
<path d="M375.321 500.029H368.412V516.697H375.321V500.029Z" fill="white"/>
<path d="M400.847 500.029H393.938V516.697H400.847V500.029Z" fill="white"/>
<path d="M421.957 574.297H73.5252C70.3585 574.297 67.7676 571.449 67.7676 567.968C67.7676 564.486 70.3585 561.638 73.5252 561.638H421.957C425.124 561.638 427.715 564.486 427.715 567.968C427.715 571.449 425.124 574.297 421.957 574.297Z" fill="black"/>
<path d="M310.931 598.772H73.5252C70.3585 598.772 67.7676 595.924 67.7676 592.443C67.7676 588.961 70.3585 586.113 73.5252 586.113H310.931C314.098 586.113 316.689 588.961 316.689 592.443C316.689 595.924 314.098 598.772 310.931 598.772Z" fill="black"/>
<path d="M571.08 598.772H329.26C326.093 598.772 323.502 595.924 323.502 592.443C323.502 588.961 326.093 586.113 329.26 586.113H571.08C574.246 586.113 576.837 588.961 576.837 592.443C576.837 595.924 574.246 598.772 571.08 598.772Z" fill="black"/>
<path d="M625.394 598.772H598.621C595.454 598.772 592.863 595.924 592.863 592.443C592.863 588.961 595.454 586.113 598.621 586.113H625.394C628.561 586.113 631.151 588.961 631.151 592.443C631.151 595.924 628.561 598.772 625.394 598.772Z" fill="black"/>
<path d="M678.172 574.297H460.822C457.655 574.297 455.064 571.449 455.064 567.968C455.064 564.486 457.655 561.638 460.822 561.638H678.172C681.339 561.638 683.93 564.486 683.93 567.968C683.93 571.449 681.339 574.297 678.172 574.297Z" fill="black"/>
</g>
<defs>
<filter id="filter0_d" x="67" y="0" width="618" height="618" filterUnits="userSpaceOnUse" color-interpolation-filters="sRGB">
<feFlood flood-opacity="0" result="BackgroundImageFix"/>
<feColorMatrix in="SourceAlpha" type="matrix" values="0 0 0 0 0 0 0 0 0 0 0 0 0 0 0 0 0 0 127 0" result="hardAlpha"/>
<feOffset dy="4"/>
<feGaussianBlur stdDeviation="8"/>
<feColorMatrix type="matrix" values="0 0 0 0 0 0 0 0 0 0 0 0 0 0 0 0 0 0 0.06 0"/>
<feBlend mode="normal" in2="BackgroundImageFix" result="effect1_dropShadow"/>
<feBlend mode="normal" in="SourceGraphic" in2="effect1_dropShadow" result="shape"/>
</filter>
<filter id="filter1_d" x="0" y="9" width="104" height="104" filterUnits="userSpaceOnUse" color-interpolation-filters="sRGB">
<feFlood flood-opacity="0" result="BackgroundImageFix"/>
<feColorMatrix in="SourceAlpha" type="matrix" values="0 0 0 0 0 0 0 0 0 0 0 0 0 0 0 0 0 0 127 0" result="hardAlpha"/>
<feOffset dy="4"/>
<feGaussianBlur stdDeviation="8"/>
<feColorMatrix type="matrix" values="0 0 0 0 0 0 0 0 0 0 0 0 0 0 0 0 0 0 0.06 0"/>
<feBlend mode="normal" in2="BackgroundImageFix" result="effect1_dropShadow"/>
<feBlend mode="normal" in="SourceGraphic" in2="effect1_dropShadow" result="shape"/>
</filter>
<linearGradient id="paint0_linear" x1="376" y1="12" x2="376" y2="598" gradientUnits="userSpaceOnUse">
<stop stop-color="#C7000D" stop-opacity="0.61"/>
<stop offset="1" stop-color="#C70077" stop-opacity="0.12"/>
</linearGradient>
<linearGradient id="paint1_linear" x1="52" y1="21" x2="52" y2="93" gradientUnits="userSpaceOnUse">
<stop stop-color="#C7000D" stop-opacity="0.61"/>
<stop offset="1" stop-color="#C70077" stop-opacity="0.12"/>
</linearGradient>
<clipPath id="clip0">
<rect width="620" height="533.174" fill="white" transform="translate(67 77.6247)"/>
</clipPath>
</defs>
</svg>
