<svg width="168" height="131" viewBox="0 0 168 131" fill="none" xmlns="http://www.w3.org/2000/svg">
<path d="M27.5358 65.4222H22.3613V68.6882H27.5358V65.4222Z" fill="#33145C"/>
<path d="M36.5592 45.7489H31.3848V49.0148H36.5592V45.7489Z" fill="#33145C"/>
<path d="M56.7106 38.1025H51.5361V41.3684H56.7106V38.1025Z" fill="#33145C"/>
<path d="M77.8248 45.8007H72.6504V49.0666H77.8248V45.8007Z" fill="#33145C"/>
<path d="M86.5094 65.0853H81.335V68.3512H86.5094V65.0853Z" fill="#33145C"/>
<path d="M56.1133 94.5304C70.9047 94.5304 82.8955 82.5775 82.8955 67.8328C82.8955 53.0881 70.9047 41.1351 56.1133 41.1351C41.3219 41.1351 29.3311 53.0881 29.3311 67.8328C29.3311 82.5775 41.3219 94.5304 56.1133 94.5304Z" fill="#33145C"/>
<path d="M106.712 38.4395H100.966V70.6322H106.712V38.4395Z" fill="#33145C"/>
<path d="M117.946 6.22086H111.055C109.703 6.22086 108.585 7.3095 108.585 8.68326V23.1467C108.585 24.4945 109.677 25.6091 111.055 25.6091H121.534C122.886 25.6091 124.004 24.5204 124.004 23.1467V15.7335C124.004 15.3447 123.9 14.9559 123.744 14.619L120.13 7.5687C119.714 6.73926 118.856 6.22086 117.946 6.22086Z" fill="#33145C"/>
<path d="M125.746 23.7169H105.725V37.6878H129.543V29.4971L127.67 25.0129C127.384 24.2353 126.604 23.7169 125.746 23.7169Z" fill="#33145C"/>
<path d="M132.325 73.8722H126.812C125.252 73.8722 124.004 72.6021 124.004 71.0728V40.5131C124.004 38.9579 125.278 37.7137 126.812 37.7137H132.325C133.885 37.7137 135.133 38.9838 135.133 40.5131V71.0728C135.133 72.628 133.885 73.8722 132.325 73.8722Z" fill="#33145C"/>
<path d="M132.715 38.4395H104.217V111.871H132.715V38.4395Z" fill="#33145C"/>
<path d="M112.927 66.7182C106.322 66.7182 100.966 61.3787 100.966 54.795C100.966 48.2113 106.322 42.8718 112.927 42.8718C119.531 42.8718 124.888 48.2113 124.888 54.795C124.888 61.3787 119.531 66.7182 112.927 66.7182ZM112.927 47.6152C108.948 47.6152 105.75 50.8293 105.75 54.7691C105.75 58.709 108.974 61.923 112.927 61.923C116.905 61.923 120.103 58.709 120.103 54.7691C120.103 50.8293 116.905 47.6152 112.927 47.6152Z" fill="black"/>
<path d="M129.699 73.8722H96.1822C94.8561 73.8722 93.79 72.8095 93.79 71.4875V69.1029C93.79 67.781 94.8561 66.7183 96.1822 66.7183C97.5083 66.7183 98.5744 67.781 98.5744 69.1029H127.307V40.4612H98.5744V59.5643C98.5744 60.8862 97.5083 61.949 96.1822 61.949C94.8561 61.949 93.79 60.8862 93.79 59.5643V38.0766C93.79 36.7546 94.8561 35.6919 96.1822 35.6919H129.699C131.025 35.6919 132.091 36.7546 132.091 38.0766V71.4875C132.091 72.8095 130.999 73.8722 129.699 73.8722Z" fill="black"/>
<path d="M115.476 57.1798H112.954C111.628 57.1798 110.562 56.1171 110.562 54.7951V51.7107C110.562 50.7775 111.316 50.0258 112.252 50.0258H113.656C114.592 50.0258 115.346 50.7775 115.346 51.7107V52.4105H115.476C116.724 52.4105 117.738 53.4214 117.738 54.6655V54.9507C117.712 56.1689 116.698 57.1798 115.476 57.1798Z" fill="black"/>
<path d="M124.888 40.4613H100.94C99.6139 40.4613 98.5479 39.3985 98.5479 38.0766V30.9227C98.5479 29.6007 99.6139 28.538 100.94 28.538H124.888C126.214 28.538 127.28 29.6007 127.28 30.9227V38.0766C127.306 39.3985 126.214 40.4613 124.888 40.4613ZM103.358 35.692H122.522V33.3073H103.358V35.692Z" fill="black"/>
<path d="M122.627 31.6744L120.781 26.1534H105.075L103.229 31.6744L98.6787 30.171L101.071 23.0171C101.409 22.0321 102.319 21.3841 103.359 21.3841H122.523C123.563 21.3841 124.473 22.0321 124.785 23.0171L127.177 30.171L122.627 31.6744Z" fill="black"/>
<path d="M120.104 26.1534H105.751C104.424 26.1534 103.358 25.0907 103.358 23.7688V16.5889C103.358 15.267 104.424 14.2043 105.751 14.2043H120.104C121.43 14.2043 122.496 15.267 122.496 16.5889V23.7428C122.496 25.0648 121.43 26.1534 120.104 26.1534ZM108.143 21.3841H117.712V18.9995H108.143V21.3841Z" fill="black"/>
<path d="M117.972 17.6775L112.928 7.62056L107.909 17.6775L103.619 15.5521L110.796 1.24422C111.498 0.051901 113.032 -0.31098 114.228 0.388862C114.592 0.596222 114.878 0.907263 115.086 1.24422L122.263 15.5521L117.972 17.6775Z" fill="black"/>
<path d="M127.307 81.0261H98.5748C97.2487 81.0261 96.1826 79.9634 96.1826 78.6415V71.4875C96.1826 70.1656 97.2487 69.1029 98.5748 69.1029H127.307C128.633 69.1029 129.699 70.1656 129.699 71.4875V78.6415C129.699 79.9634 128.607 81.0261 127.307 81.0261ZM100.967 76.2568H124.915V73.8722H100.967V76.2568Z" fill="black"/>
<path d="M124.888 114.437H100.94C99.6139 114.437 98.5479 113.374 98.5479 112.052V78.6415C98.5479 77.3196 99.6139 76.2569 100.94 76.2569H124.888C126.214 76.2569 127.28 77.3196 127.28 78.6415V83.4108C127.28 84.7327 126.214 85.7955 124.888 85.7955C123.562 85.7955 122.496 84.7327 122.496 83.4108V81.0262H103.332V109.668H122.496V92.9494C122.496 91.6275 123.562 90.5648 124.888 90.5648C126.214 90.5648 127.28 91.6275 127.28 92.9494V112.052C127.306 113.374 126.214 114.437 124.888 114.437Z" fill="black"/>
<path d="M108.143 83.4108C109.469 83.4108 110.535 84.4736 110.535 85.7955V90.5648C110.535 91.8867 109.469 92.9494 108.143 92.9494C106.817 92.9494 105.751 91.8867 105.751 90.5648V85.7955C105.751 84.4995 106.817 83.4108 108.143 83.4108Z" fill="black"/>
<path d="M117.712 83.4108C119.038 83.4108 120.104 84.4736 120.104 85.7955V90.5648C120.104 91.8867 119.038 92.9494 117.712 92.9494C116.385 92.9494 115.319 91.8867 115.319 90.5648V85.7955C115.319 84.4995 116.385 83.4108 117.712 83.4108Z" fill="black"/>
<path d="M108.143 97.7446C109.469 97.7446 110.535 98.8073 110.535 100.129V104.899C110.535 106.22 109.469 107.283 108.143 107.283C106.817 107.283 105.751 106.22 105.751 104.899V100.129C105.751 98.8073 106.817 97.7446 108.143 97.7446Z" fill="black"/>
<path d="M117.712 97.7446C119.038 97.7446 120.104 98.8073 120.104 100.129V104.899C120.104 106.22 119.038 107.283 117.712 107.283C116.385 107.283 115.319 106.22 115.319 104.899V100.129C115.319 98.8073 116.385 97.7446 117.712 97.7446Z" fill="black"/>
<path d="M2.3922 109.668H141.66C142.986 109.668 144.052 110.731 144.052 112.052C144.052 113.374 142.986 114.437 141.66 114.437H2.3922C1.06609 114.437 0 113.374 0 112.052C0 110.731 1.06609 109.668 2.3922 109.668Z" fill="black"/>
<path d="M165.608 109.668C166.934 109.668 168 110.731 168 112.052C168 113.374 166.934 114.437 165.608 114.437C164.282 114.437 163.216 113.374 163.216 112.052C163.216 110.731 164.282 109.668 165.608 109.668Z" fill="black"/>
<path d="M151.229 109.668H156.014C157.34 109.668 158.406 110.731 158.406 112.052C158.406 113.374 157.34 114.437 156.014 114.437H151.229C149.903 114.437 148.837 113.374 148.837 112.052C148.837 110.731 149.903 109.668 151.229 109.668Z" fill="black"/>
<path d="M142.804 6.22086C138.591 6.22086 134.899 8.96838 133.651 12.9601C133.625 13.0119 133.599 13.0378 133.547 13.0378H129.127C127.619 13.0378 126.396 14.2561 126.396 15.7594C126.396 17.2628 127.619 18.481 129.127 18.481H135.861C137.447 18.481 138.644 17.185 138.722 15.6039C138.8 13.297 140.776 11.4826 143.142 11.6641C145.3 11.8196 146.756 13.7895 146.912 15.9409C147.016 17.3406 148.186 18.4551 149.642 18.4551H152.373C153.881 18.4551 155.103 17.2369 155.103 15.7335C155.103 14.2302 153.881 13.0119 152.373 13.0119H152.061C152.009 13.0119 151.983 12.986 151.957 12.9342C150.709 8.96838 146.99 6.22086 142.804 6.22086Z" fill="black"/>
<path d="M75.3798 26.5163C72.4676 26.5163 69.8933 28.4084 69.0093 31.2078C69.0093 31.2337 68.9833 31.2596 68.9313 31.2596H65.863C64.8229 31.2596 63.9648 32.115 63.9648 33.1518C63.9648 34.1886 64.8229 35.044 65.863 35.044H70.5434C71.6355 35.044 72.4936 34.1368 72.5196 33.0481C72.5716 31.4411 73.9497 30.1969 75.5878 30.3265C77.0959 30.4561 78.11 31.804 78.214 33.3073C78.292 34.2923 79.0981 35.0699 80.1122 35.0699H82.0104C83.0504 35.0699 83.9085 34.2145 83.9085 33.1777C83.9085 32.1409 83.0504 31.2856 82.0104 31.2856H81.7763C81.7503 31.2856 81.7243 31.2596 81.6983 31.2337C80.8663 28.4344 78.292 26.5163 75.3798 26.5163Z" fill="black"/>
<path d="M35.2848 89.1651C35.2848 89.4761 35.3628 89.7872 35.4928 90.0464L36.8449 91.0572C36.9749 91.0832 37.0789 91.0832 37.209 91.0832H44.0475C40.7712 89.9686 37.781 88.1542 35.2588 85.7955V89.1651H35.2848Z" fill="black"/>
<path d="M45.6079 91.3424H37.2092C37.0792 91.3424 36.9492 91.3424 36.7932 91.3164H36.7412L35.285 90.2278L35.259 90.176C35.155 89.9427 35.077 89.6835 35.051 89.4502H34.999V85.2252L35.4411 85.6399C37.9893 87.9987 40.9015 89.7612 44.1258 90.8758L45.6079 91.3424ZM36.9492 90.824C37.0272 90.824 37.1052 90.824 37.2092 90.824H42.6176C40.0174 89.7612 37.6512 88.2838 35.5191 86.3916V88.9059H35.5451V89.1651C35.5451 89.3984 35.5971 89.6576 35.7011 89.8649L36.9492 90.824Z" fill="black"/>
<path d="M21.0621 70.5803H23.6363C24.1303 70.5803 24.5984 70.4767 25.0404 70.2952C25.2744 72.965 25.8985 75.557 26.8866 78.0194H29.6688C28.2387 74.8831 27.4846 71.4616 27.5106 67.9883H30.0848C30.0848 71.5134 30.9429 74.9349 32.529 78.0194H33.3351C34.4012 78.0194 35.2593 78.8747 35.2593 79.9375V85.1992L36.7934 83.67C39.0556 85.8472 41.7858 87.5321 44.7761 88.5689L44.074 91.0572H44.568C45.6341 91.0572 46.4922 90.2018 46.4922 89.1391C46.4922 88.0764 47.3503 87.221 48.4164 87.221H50.7306C49.7945 87.1692 48.8844 87.0396 47.9483 86.8581L50.7306 77.1899V87.221H53.3048V77.1899L56.087 86.8581C55.1769 87.0396 54.2409 87.1692 53.3048 87.221H59.8053C60.3514 87.221 60.8454 87.4543 61.2094 87.8172C63.4456 86.7804 65.4738 85.4066 67.2419 83.6959L69.0621 85.5103C66.9559 87.558 64.4857 89.1909 61.8075 90.3573C62.0415 91.1868 62.7696 91.7829 63.6796 91.7829H66.2019L68.7761 89.8649V91.7829H71.3503V90.9017C71.7663 91.0572 72.2083 91.1349 72.6504 91.1349H74.7306C75.0426 90.798 75.2246 90.3314 75.2246 89.8389V88.5429H72.6504C71.9483 88.5429 71.3503 87.9727 71.3503 87.2469C71.3503 87.0136 71.4283 86.8063 71.5583 86.5989C71.6623 86.4693 71.7923 86.3397 71.8963 86.236C72.1043 86.0805 72.3644 85.9768 72.6504 85.9768H75.2246C75.5626 85.9768 75.8487 86.1064 76.0827 86.3138C76.3947 86.1064 76.7587 85.9768 77.1748 85.9768H78.8909C78.3709 84.4735 76.9407 83.4108 75.2506 83.4108H74.2365C76.9667 79.5227 78.6049 75.0127 79.0209 70.2693C79.463 70.4507 79.957 70.5285 80.425 70.5544H82.8952C84.9754 70.5544 86.7696 68.9474 86.8736 66.8738C86.9776 64.6706 85.2094 62.8302 82.9993 62.8302H80.425C79.827 62.8302 79.2289 62.9858 78.6829 63.245C77.9028 58.8645 76.0307 54.7432 73.2744 51.244H73.8725C75.9527 51.244 77.7468 49.6369 77.8508 47.5633C77.9548 45.3601 76.1867 43.5198 73.9765 43.5198H71.4023C69.7901 43.5198 68.36 44.5307 67.788 46.0081C64.5117 43.6753 60.7414 42.0683 56.7891 41.3684C57.0751 40.8241 57.2051 40.2539 57.2051 39.6318C57.2051 37.5063 55.463 35.7697 53.3308 35.7697H50.7566C48.6244 35.7697 46.8822 37.5063 46.8822 39.6318C46.8822 40.2279 47.0383 40.8241 47.2983 41.3684C43.3199 42.0683 39.5756 43.6494 36.2994 46.0081C35.7273 44.5047 34.2972 43.5198 32.6851 43.5198H30.2149C28.1347 43.5198 26.3405 45.1268 26.2365 47.2004C26.1325 49.4036 27.9007 51.244 30.1108 51.244H30.8129C28.0307 54.7432 26.1845 58.8645 25.4045 63.245C24.8584 62.9598 24.2864 62.8302 23.6623 62.8302H21.1921C19.1119 62.8302 17.3178 64.4373 17.2138 66.5109C17.0838 68.74 18.8519 70.5803 21.0621 70.5803ZM80.399 65.4222H82.9733C83.6753 65.4222 84.2734 65.9925 84.2734 66.7182C84.2734 67.4181 83.7013 68.0142 82.9733 68.0142H80.399C79.697 68.0142 79.0989 67.444 79.0989 66.7182C79.0989 66.0184 79.671 65.4222 80.399 65.4222ZM32.6591 68.0142H48.8844L36.8714 79.9893C34.1672 76.5938 32.6591 72.3688 32.6591 68.0142ZM45.4781 86.1324C42.9299 85.2252 40.5897 83.7736 38.6136 81.8815L49.9245 70.6062L45.4781 86.1324ZM50.7306 63.6078L39.9917 52.9028C43.0599 50.4664 46.8042 49.0148 50.7306 48.7556V63.6078ZM58.5572 86.1324L54.1108 70.6322L65.4218 81.9074C63.4456 83.7736 61.1054 85.2252 58.5572 86.1324ZM53.3048 63.6078V48.7816C57.2311 49.0408 60.9754 50.4923 64.0437 52.9288L53.3048 63.6078ZM67.1639 79.9893L55.1249 68.0142H71.3503C71.3763 72.3688 69.8942 76.5938 67.1639 79.9893ZM70.8302 83.644L69.0101 81.8296C72.2083 77.9416 73.9765 73.0427 73.9765 68.0142H76.5507C76.5247 73.7167 74.5225 79.2636 70.8302 83.644ZM71.3763 46.1377H73.9505C74.6525 46.1377 75.2506 46.708 75.2506 47.4337C75.2506 48.1595 74.6786 48.7297 73.9505 48.7297H71.3763C71.1423 48.7297 70.9342 48.652 70.7262 48.5224C70.5962 48.4187 70.4662 48.2891 70.3622 48.1854C70.2062 47.978 70.1022 47.7188 70.1022 47.4337C70.0762 46.7339 70.6482 46.1377 71.3763 46.1377ZM69.5821 51.0107C73.4044 54.9246 75.7966 60.0049 76.3687 65.4222H73.7685C73.1964 60.6789 71.0903 56.2465 67.762 52.8251L69.5821 51.0107ZM71.1683 65.4222H55.1249L65.9418 54.6395C68.8021 57.5944 70.6222 61.3787 71.1683 65.4222ZM67.71 49.274L65.8898 51.0884C62.3275 48.1854 57.9332 46.4747 53.3308 46.2155V43.6494C58.5832 43.9086 63.6536 45.8785 67.71 49.274ZM50.7306 38.4395H53.3048C54.0068 38.4395 54.6049 39.0097 54.6049 39.7355C54.6049 40.4612 54.0328 41.0315 53.3048 41.0315H50.7306C50.0285 41.0315 49.4305 40.4612 49.4305 39.7355C49.4305 39.0097 50.0285 38.4395 50.7306 38.4395ZM50.7306 43.6494V46.2155C46.1282 46.4747 41.7338 48.1854 38.1715 51.0884L36.3514 49.274C40.3817 45.8785 45.4521 43.9086 50.7306 43.6494ZM38.0935 54.6654L48.9104 65.4482H32.8671C33.4131 61.3787 35.2333 57.5944 38.0935 54.6654ZM30.0848 48.7297C29.3828 48.7297 28.7847 48.1595 28.7847 47.4337C28.7847 46.7339 29.3568 46.1377 30.0848 46.1377H32.6591C33.3611 46.1377 33.9592 46.708 33.9592 47.4337C33.9592 47.6929 33.8552 47.978 33.6991 48.1854C33.5691 48.2891 33.4391 48.4187 33.3351 48.5224C33.1531 48.652 32.9191 48.7038 32.6851 48.7297H30.0848ZM34.4532 51.0107L36.2734 52.8251C32.9451 56.2465 30.8389 60.6789 30.2669 65.4222H27.6666C28.2387 60.0049 30.6309 54.9246 34.4532 51.0107ZM21.0621 65.4222H23.6363C24.3384 65.4222 24.9364 65.9925 24.9364 66.7182C24.9364 67.4181 24.3644 68.0142 23.6363 68.0142H21.0621C20.36 68.0142 19.762 67.444 19.762 66.7182C19.762 66.0184 20.36 65.4222 21.0621 65.4222Z" fill="black"/>
<path d="M71.6104 92.0422H68.5161V90.3833L66.2799 92.0422H63.6797C62.6916 92.0422 61.8336 91.3942 61.5476 90.4351L61.4955 90.2278L61.7036 90.15C64.3298 89.0095 66.67 87.4543 68.6982 85.5362L67.242 84.0847C65.5259 85.7177 63.5237 87.0655 61.3135 88.0764L61.1575 88.1542L61.0275 88.0246C60.6895 87.6876 60.2474 87.5062 59.8054 87.5062H48.4165C47.5064 87.5062 46.7523 88.2579 46.7523 89.1651C46.7523 90.3574 45.7642 91.3423 44.5681 91.3423H43.7361L44.4641 88.7503C41.6299 87.7394 39.0037 86.1065 36.7935 84.0588L34.9993 85.8473V79.9634C34.9993 79.0562 34.2453 78.3046 33.3352 78.3046H32.3731L32.2951 78.1749C30.709 75.1164 29.8769 71.6949 29.8249 68.2735H27.7707C27.7967 71.5653 28.5248 74.909 29.9029 77.9417L30.0589 78.3046H26.7046L26.6266 78.149C25.6645 75.7644 25.0405 73.2501 24.8065 70.6841C24.4164 70.8137 24.0264 70.8655 23.6364 70.8655H21.0622C19.9181 70.8655 18.852 70.3989 18.0719 69.5695C17.2918 68.74 16.9018 67.6514 16.9538 66.5109C17.0578 64.3077 18.93 62.597 21.1922 62.597H23.6624C24.2084 62.597 24.7285 62.7007 25.2225 62.8821C26.0026 58.7608 27.7447 54.8469 30.2929 51.5291H30.1109C28.9668 51.5291 27.9007 51.0626 27.1207 50.259C26.3406 49.4296 25.9246 48.3669 25.9766 47.2264C26.0806 45.0232 27.9527 43.2866 30.2149 43.2866H32.6851C34.2973 43.2866 35.7274 44.1938 36.4034 45.6453C39.5757 43.4162 43.112 41.9128 46.9083 41.213C46.7003 40.6945 46.5963 40.1761 46.5963 39.6837C46.5963 37.4027 48.4425 35.5624 50.7306 35.5624H53.3049C55.5931 35.5624 57.4392 37.4027 57.4392 39.6837C57.4392 40.228 57.3352 40.7464 57.1532 41.2389C60.8715 41.9387 64.4858 43.468 67.6581 45.6712C68.3341 44.2456 69.7902 43.3125 71.3764 43.3125H73.9506C75.0947 43.3125 76.1608 43.779 76.9408 44.5826C77.7209 45.412 78.1369 46.4747 78.0849 47.6152C77.9809 49.8184 76.1088 51.5551 73.8466 51.5551H73.7686C76.3168 54.9247 78.0589 58.8386 78.839 62.934C79.359 62.7266 79.8791 62.6229 80.3731 62.6229H82.9473C84.0914 62.6229 85.1575 63.0895 85.9376 63.893C86.7177 64.7224 87.1337 65.7852 87.0817 66.9256C86.9777 69.1289 85.1055 70.8655 82.8433 70.8655H80.3731C79.9311 70.8396 79.5411 70.7877 79.203 70.6841C78.761 75.1682 77.2009 79.4969 74.6787 83.2034H75.1987C76.9668 83.2034 78.527 84.2921 79.073 85.951L79.203 86.2879H77.1229C76.7848 86.2879 76.4728 86.3916 76.1868 86.573L76.0308 86.6767L75.8747 86.5471C75.6667 86.3657 75.4327 86.2879 75.1987 86.2879H72.6245C72.3645 86.2879 72.1564 86.3916 72.0524 86.4953C71.9484 86.599 71.8444 86.7026 71.7664 86.8063C71.6624 86.9878 71.6104 87.1433 71.6104 87.2988C71.6104 87.869 72.0784 88.3356 72.6505 88.3356H75.4847V89.8908C75.4847 90.4351 75.2767 90.9795 74.9127 91.3683L74.8347 91.446H72.6505C72.2864 91.446 71.9484 91.3942 71.6104 91.3164V92.0422ZM69.0362 91.5238H71.0904V90.5388L71.4544 90.6684C71.8444 90.8239 72.2344 90.8758 72.6505 90.8758H74.6006C74.8347 90.5907 74.9647 90.2278 74.9647 89.839V88.8022H72.6505C71.7924 88.8022 71.0904 88.1023 71.0904 87.247C71.0904 86.9878 71.1684 86.7286 71.3504 86.4694L71.3764 86.4434C71.4804 86.3138 71.6364 86.1583 71.7404 86.0546L71.7664 86.0287C72.0264 85.8214 72.3645 85.7177 72.6765 85.7177H75.2507C75.5627 85.7177 75.8747 85.8214 76.1348 86.0028C76.4728 85.8214 76.8368 85.7177 77.2009 85.7177H78.527C77.9549 84.4735 76.6808 83.67 75.2767 83.67H73.7686L74.0546 83.2553C76.7328 79.4191 78.371 74.9349 78.787 70.2434L78.813 69.8805L79.151 70.0101C79.5151 70.1657 79.9571 70.2434 80.4771 70.2693H82.9213C84.8715 70.2693 86.5357 68.74 86.6397 66.8479C86.6917 65.8629 86.3276 64.9039 85.6516 64.204C84.9495 63.4783 84.0394 63.0895 83.0253 63.0895H80.4511C79.9311 63.0895 79.359 63.2191 78.813 63.4783L78.501 63.6338L78.449 63.2968C77.6949 58.9941 75.8228 54.8987 73.0925 51.3995L72.7545 50.9848H73.8986C75.8488 50.9848 77.5129 49.4555 77.6169 47.5634C77.6689 46.5784 77.3049 45.6194 76.6288 44.9195C75.9268 44.1938 75.0167 43.805 74.0026 43.805H71.4284C69.9463 43.805 68.5941 44.7381 68.0481 46.1378L67.9181 46.4488L67.6581 46.2674C64.4078 43.9346 60.6375 42.3534 56.7632 41.6795L56.4251 41.6277L56.5811 41.3166C56.8412 40.8241 56.9712 40.3057 56.9712 39.7096C56.9712 37.7137 55.359 36.1067 53.3569 36.1067H50.7826C48.7805 36.1067 47.1683 37.7137 47.1683 39.7096C47.1683 40.228 47.2984 40.7982 47.5584 41.3426L47.7144 41.6536L47.3764 41.7054C43.424 42.4053 39.7577 43.9605 36.4815 46.2933L36.1954 46.5006L36.0654 46.1896C35.5194 44.7899 34.1933 43.8568 32.6851 43.8568H30.2149C28.2648 43.8568 26.6006 45.3861 26.4966 47.2782C26.4446 48.2632 26.8086 49.2222 27.4847 49.9221C28.1868 50.6479 29.0968 51.0366 30.1109 51.0366H31.359L31.021 51.4514C28.2908 54.8987 26.4446 58.9941 25.6645 63.3487L25.6125 63.6856L25.3005 63.5301C24.8065 63.2709 24.2864 63.1413 23.6884 63.1413H21.2182C19.268 63.1413 17.6039 64.6706 17.4999 66.5628C17.4479 67.5736 17.7859 68.5068 18.4619 69.2325C19.138 69.9583 20.0741 70.3471 21.0882 70.3471H23.6624C24.1044 70.3471 24.5465 70.2693 24.9625 70.0879L25.3005 69.9583L25.3265 70.3212C25.5605 72.8873 26.1326 75.4015 27.0947 77.8121H29.3049C27.9527 74.7276 27.2507 71.358 27.2767 68.0402V67.781H30.3709V68.0402C30.3709 71.4098 31.177 74.7794 32.7111 77.8121H33.3612C34.5573 77.8121 35.5454 78.797 35.5454 79.9894V84.629L36.8195 83.359L37.0015 83.5404C39.2377 85.6918 41.9679 87.3766 44.8802 88.3875L45.1142 88.4652L44.4381 90.8499H44.5941C45.5042 90.8499 46.2583 90.0982 46.2583 89.191C46.2583 88.2319 46.8823 87.4284 47.7404 87.1174L47.6364 87.0914L51.0167 75.3756V86.9878H53.0708V75.3756L56.4251 86.9878H59.8054C60.3255 86.9878 60.8455 87.1692 61.2615 87.5321C63.4197 86.4953 65.3699 85.1734 67.06 83.5404L67.242 83.359L69.4262 85.5362L69.2442 85.7177C67.19 87.7135 64.7978 89.3206 62.1196 90.5129C62.3796 91.135 62.9777 91.5497 63.6797 91.5497H66.1239L69.0362 89.3724V91.5238ZM48.2864 86.6508C49.0925 86.8063 49.7946 86.8841 50.4706 86.9359V79.0303L48.2864 86.6508ZM53.5649 79.0303V86.9359C54.2669 86.8841 54.995 86.7804 55.7491 86.6508L53.5649 79.0303ZM45.6602 86.4694L45.4002 86.3657C42.8 85.4326 40.4598 83.981 38.4316 82.063L38.2496 81.8815L50.4446 69.725L45.6602 86.4694ZM38.9777 81.8815C40.8238 83.6182 42.956 84.9142 45.2962 85.7954L49.3785 71.4876L38.9777 81.8815ZM58.3753 86.4694L53.5649 69.7509L65.7859 81.9334L65.6039 82.1148C63.6017 84.007 61.1835 85.4844 58.6353 86.3916L58.3753 86.4694ZM54.631 71.5135L58.7133 85.7954C61.0015 84.9401 63.1857 83.5922 65.0318 81.9074L54.631 71.5135ZM70.8563 84.0329L68.6721 81.8556L68.8282 81.6742C72.0004 77.838 73.7426 72.9909 73.7426 68.0143V67.7551H76.8368V68.0143C76.8108 73.8204 74.7567 79.4191 71.0643 83.7996L70.8563 84.0329ZM69.3482 81.8038L70.8043 83.2553C74.2626 79.0562 76.1868 73.7426 76.2908 68.2735H74.2366C74.1846 73.1724 72.4425 77.9676 69.3482 81.8038ZM36.8455 80.3782L36.6635 80.1449C33.9072 76.6975 32.3991 72.3689 32.3991 68.0143V67.7551H49.5085L36.8455 80.3782ZM32.9192 68.2735C32.9712 72.3429 34.3753 76.3346 36.8975 79.6006L48.2604 68.2735H32.9192ZM67.19 80.3782L54.501 67.7551H71.6104V68.0143C71.6364 72.3948 70.1283 76.7234 67.372 80.1449L67.19 80.3782ZM55.7491 68.2735L67.138 79.6006C69.6602 76.3605 71.0643 72.3689 71.0904 68.2735H55.7491ZM82.9734 68.2735H80.3991C79.5411 68.2735 78.839 67.5736 78.839 66.7183C78.839 65.8629 79.5411 65.1631 80.3991 65.1631H82.9734C83.8314 65.1631 84.5335 65.8629 84.5335 66.7183C84.5335 67.5736 83.8314 68.2735 82.9734 68.2735ZM80.3991 65.6815C79.8271 65.6815 79.359 66.148 79.359 66.7183C79.359 67.2885 79.8271 67.7551 80.3991 67.7551H82.9734C83.5454 67.7551 84.0134 67.2885 84.0134 66.7183C84.0134 66.148 83.5454 65.6815 82.9734 65.6815H80.3991ZM23.6364 68.2735H21.0622C20.2041 68.2735 19.502 67.5736 19.502 66.7183C19.502 65.8629 20.2041 65.1631 21.0622 65.1631H23.6364C24.4945 65.1631 25.1965 65.8629 25.1965 66.7183C25.1965 67.5736 24.4945 68.2735 23.6364 68.2735ZM21.0622 65.6815C20.5161 65.6815 20.0221 66.174 20.0221 66.7183C20.0221 67.2885 20.4901 67.7551 21.0622 67.7551H23.6364C24.2084 67.7551 24.6765 67.2885 24.6765 66.7183C24.6765 66.148 24.2084 65.6815 23.6364 65.6815H21.0622ZM49.5345 65.7074H32.5551L32.6071 65.4223C33.1792 61.2492 34.9993 57.4648 37.9116 54.484L38.0936 54.3026L49.5345 65.7074ZM33.1792 65.189H48.2864L38.0936 55.0283C35.4414 57.8277 33.7512 61.3269 33.1792 65.189ZM76.6548 65.6815H73.5346L73.5086 65.4482C72.9365 60.7826 70.8303 56.3503 67.5801 53.0066L67.398 52.8251L69.5822 50.6478L69.7642 50.8293C73.6126 54.7691 76.0568 59.9531 76.6288 65.3964L76.6548 65.6815ZM74.0026 65.1631H76.0828C75.4847 60.005 73.1705 55.132 69.5822 51.3736L68.1261 52.8251C71.3244 56.1947 73.4045 60.5493 74.0026 65.1631ZM71.4544 65.6815H54.475L65.9159 54.2767L66.0979 54.4581C69.0102 57.4648 70.8303 61.2492 71.4024 65.3964L71.4544 65.6815ZM55.7491 65.1631H70.8563C70.2843 61.3269 68.5681 57.8277 65.9159 55.0024L55.7491 65.1631ZM30.501 65.6815H27.3807L27.4067 65.3964C27.9787 59.9531 30.4229 54.7691 34.2713 50.8293L34.4533 50.6478L36.6375 52.8251L36.4555 53.0066C33.1792 56.3503 31.073 60.7826 30.527 65.4482L30.501 65.6815ZM27.9527 65.1631H30.0329C30.631 60.5493 32.7111 56.1947 35.9094 52.8251L34.4533 51.3736C30.865 55.132 28.5768 60.005 27.9527 65.1631ZM50.9907 64.23L39.6017 52.877L39.8357 52.6955C42.956 50.2072 46.7263 48.7557 50.7306 48.4965L51.0167 48.4706V64.23H50.9907ZM40.3818 52.9288L50.4706 62.9858V49.0408C46.7783 49.3259 43.32 50.6738 40.3818 52.9288ZM53.0448 64.23V48.4965L53.3309 48.5224C57.3092 48.7816 61.0795 50.2331 64.2258 52.7215L64.4598 52.9029L53.0448 64.23ZM53.5649 49.0667V62.9858L63.6537 52.9547C60.7155 50.6997 57.2572 49.3518 53.5649 49.0667ZM65.9159 51.4255L65.7339 51.2699C62.1716 48.3669 57.8812 46.708 53.3309 46.4488L53.0968 46.4229V43.3384L53.3569 43.3643C58.6613 43.6235 63.8357 45.6453 67.8921 49.0408L68.1001 49.2222L65.9159 51.4255ZM53.5909 45.9822C58.0893 46.2933 62.3276 47.9262 65.8639 50.7515L67.32 49.3C63.4457 46.1378 58.5833 44.2456 53.5909 43.9346V45.9822ZM38.1456 51.4255L35.9614 49.2482L36.1694 49.0667C40.1998 45.6712 45.3742 43.6494 50.7046 43.3902L50.9647 43.3643V46.4488L50.7306 46.4747C46.1543 46.7339 41.8639 48.3928 38.3276 51.2958L38.1456 51.4255ZM36.7415 49.3L38.1976 50.7515C41.7339 47.9262 45.9722 46.2933 50.4706 45.9822V43.9346C45.4522 44.2197 40.5898 46.1378 36.7415 49.3ZM73.9506 48.989H71.3764C71.1164 48.989 70.8563 48.9112 70.5963 48.7298L70.5703 48.7038C70.4403 48.6002 70.2843 48.4446 70.1803 48.341L70.1543 48.315C69.9463 48.0558 69.8422 47.7189 69.8422 47.4078C69.8162 47.019 69.9723 46.6302 70.2583 46.3192C70.5443 46.0082 70.9343 45.8526 71.3764 45.8526H73.9506C74.8087 45.8526 75.5107 46.5525 75.5107 47.4078C75.5107 48.315 74.8347 48.989 73.9506 48.989ZM70.8823 48.315C71.0644 48.4187 71.2204 48.4706 71.3764 48.4706H73.9506C74.5226 48.4706 74.9907 48.004 74.9907 47.4338C74.9907 46.8635 74.5226 46.397 73.9506 46.397H71.3764C71.0904 46.397 70.8303 46.5006 70.6483 46.708C70.4663 46.9154 70.3623 47.1486 70.3623 47.4338C70.3623 47.693 70.4663 47.9003 70.5703 48.0299C70.6483 48.1077 70.7783 48.2114 70.8823 48.315ZM32.7111 48.989H30.0849C29.2268 48.989 28.5248 48.2891 28.5248 47.4338C28.5248 46.5784 29.2268 45.8786 30.0849 45.8786H32.6591C33.5172 45.8786 34.2193 46.5784 34.2193 47.4338C34.2193 47.7448 34.1153 48.0818 33.9072 48.341L33.8552 48.3928C33.7252 48.4965 33.6212 48.6002 33.5172 48.7038L33.4912 48.7298C33.2312 48.9112 32.9192 48.963 32.7111 48.989ZM30.0849 46.397C29.5129 46.397 29.0448 46.8635 29.0448 47.4338C29.0448 48.004 29.5129 48.4706 30.0849 48.4706H32.6591C32.8932 48.4446 33.0492 48.3928 33.1532 48.315C33.2572 48.2114 33.3612 48.1077 33.4912 48.004C33.5952 47.8485 33.6732 47.6152 33.6732 47.4338C33.6732 46.8635 33.2052 46.397 32.6331 46.397H30.0849ZM53.3049 41.2907H50.7306C49.8726 41.2907 49.1705 40.5909 49.1705 39.7355C49.1705 38.8801 49.8726 38.1803 50.7306 38.1803H53.3049C54.1629 38.1803 54.865 38.8801 54.865 39.7355C54.865 40.6168 54.1889 41.2907 53.3049 41.2907ZM50.7306 38.6987C50.1586 38.6987 49.6906 39.1653 49.6906 39.7355C49.6906 40.3057 50.1586 40.7723 50.7306 40.7723H53.3049C53.8769 40.7723 54.3449 40.3057 54.3449 39.7355C54.3449 39.1653 53.8769 38.6987 53.3049 38.6987H50.7306Z" fill="black"/>
<path d="M75.2236 87.7653V89.6834C75.2236 90.7461 74.3655 91.6015 73.2994 91.6015H63.6786C62.6125 91.6015 61.7545 90.7461 61.7545 89.6834V88.9836C61.7545 87.9209 60.8964 87.0655 59.8303 87.0655H48.4414C47.3753 87.0655 46.5172 87.9209 46.5172 88.9836C46.5172 90.0463 45.6591 90.9017 44.593 90.9017H37.2604C36.1943 90.9017 35.3363 90.0463 35.3363 88.9836V79.7819C35.3363 78.7192 34.4782 77.8639 33.4121 77.8639H21.9712C20.9051 77.8639 20.047 78.7192 20.047 79.7819V82.9701C20.047 84.0328 19.1889 84.8882 18.1228 84.8882H8.55404C7.48795 84.8882 6.62988 85.7436 6.62988 86.8063V109.901C6.62988 110.964 7.48795 111.819 8.55404 111.819H20.021H21.8672H34.2442H35.2583H46.4652H49.4815H60.6104H61.7285H75.2236H75.8737H94.2312C95.2973 111.819 96.1553 110.964 96.1553 109.901V87.7135C96.1553 86.6508 95.2973 85.7954 94.2312 85.7954H77.1738C76.1077 85.8213 75.2236 86.6767 75.2236 87.7653Z" fill="black"/>
<path d="M11.2325 89.5279H9.36035V93.6233H11.2325V89.5279Z" fill="white"/>
<path d="M18.1241 89.5279H16.252V93.6233H18.1241V89.5279Z" fill="white"/>
<path d="M11.2325 96.6559H9.36035V100.751H11.2325V96.6559Z" fill="white"/>
<path d="M18.1241 96.6559H16.252V100.751H18.1241V96.6559Z" fill="white"/>
<path d="M11.2325 103.784H9.36035V107.879H11.2325V103.784Z" fill="white"/>
<path d="M18.1241 103.784H16.252V107.879H18.1241V103.784Z" fill="white"/>
<path d="M25.1436 89.5279H23.2715V93.6233H25.1436V89.5279Z" fill="white"/>
<path d="M32.0352 89.5279H30.1631V93.6233H32.0352V89.5279Z" fill="white"/>
<path d="M25.1436 82.3998H23.2715V86.4952H25.1436V82.3998Z" fill="white"/>
<path d="M32.0352 82.3998H30.1631V86.4952H32.0352V82.3998Z" fill="white"/>
<path d="M25.1436 96.6559H23.2715V100.751H25.1436V96.6559Z" fill="white"/>
<path d="M32.0352 96.6559H30.1631V100.751H32.0352V96.6559Z" fill="white"/>
<path d="M25.1436 103.784H23.2715V107.879H25.1436V103.784Z" fill="white"/>
<path d="M32.0352 103.784H30.1631V107.879H32.0352V103.784Z" fill="white"/>
<path d="M49.8985 89.5279H48.0264V93.6233H49.8985V89.5279Z" fill="white"/>
<path d="M56.8146 89.5279H54.9424V93.6233H56.8146V89.5279Z" fill="white"/>
<path d="M49.8985 96.6559H48.0264V100.751H49.8985V96.6559Z" fill="white"/>
<path d="M56.8146 96.6559H54.9424V100.751H56.8146V96.6559Z" fill="white"/>
<path d="M49.8985 103.784H48.0264V107.879H49.8985V103.784Z" fill="white"/>
<path d="M56.8146 103.784H54.9424V107.879H56.8146V103.784Z" fill="white"/>
<path d="M37.4952 96.6559H35.623V100.751H37.4952V96.6559Z" fill="white"/>
<path d="M44.3858 96.6559H42.5137V100.751H44.3858V96.6559Z" fill="white"/>
<path d="M37.4952 103.784H35.623V107.879H37.4952V103.784Z" fill="white"/>
<path d="M44.3858 103.784H42.5137V107.879H44.3858V103.784Z" fill="white"/>
<path d="M66.4874 96.6559H64.6152V100.751H66.4874V96.6559Z" fill="white"/>
<path d="M73.378 96.6559H71.5059V100.751H73.378V96.6559Z" fill="white"/>
<path d="M66.4874 103.784H64.6152V107.879H66.4874V103.784Z" fill="white"/>
<path d="M73.378 103.784H71.5059V107.879H73.378V103.784Z" fill="white"/>
<path d="M83.545 89.5279H81.6729V93.6233H83.545V89.5279Z" fill="white"/>
<path d="M90.461 89.5279H88.5889V93.6233H90.461V89.5279Z" fill="white"/>
<path d="M83.545 96.6559H81.6729V100.751H83.545V96.6559Z" fill="white"/>
<path d="M90.461 96.6559H88.5889V100.751H90.461V96.6559Z" fill="white"/>
<path d="M83.545 103.784H81.6729V107.879H83.545V103.784Z" fill="white"/>
<path d="M90.461 103.784H88.5889V107.879H90.461V103.784Z" fill="white"/>
</svg>
