<svg width="685" height="618" viewBox="0 0 685 618" fill="none" xmlns="http://www.w3.org/2000/svg">
<g filter="url(#filter0_d)">
<rect x="83" y="12" width="586" height="586" rx="293" fill="url(#paint0_linear)"/>
</g>
<g filter="url(#filter1_d)">
<rect x="16" y="21" width="72" height="72" rx="36" fill="url(#paint1_linear)"/>
</g>
<g clip-path="url(#clip0)">
<path d="M281.269 53C278.053 53 275.373 55.2764 275.373 58.0081V112.642C275.373 115.374 278.053 117.65 281.269 117.65C284.485 117.65 287.165 115.374 287.165 112.642V58.0081C287.165 55.2764 284.485 53 281.269 53Z" fill="#33145C"/>
<path d="M304.318 141.325H270.014V174.106H308.606L304.318 141.325Z" fill="#33145C"/>
<path d="M298.422 118.106H270.014V139.049H302.174L298.422 118.106Z" fill="#33145C"/>
<path d="M332.73 227.374H246.97L236.25 200.968L246.97 174.106H333.802L340.234 199.146L332.73 227.374Z" fill="#33145C"/>
<path d="M316.113 227.374H258.225V282.463H316.113V227.374Z" fill="#33145C"/>
<path d="M324.153 266.528L266.265 279.276C261.441 280.187 258.225 283.829 258.225 288.382V336.187C258.225 341.195 263.049 345.293 268.945 345.293H307.537C312.361 345.293 316.649 342.561 318.257 338.463L337.553 277.911C339.161 271.081 332.193 264.707 324.153 266.528Z" fill="#33145C"/>
<path d="M315.577 341.65H266.801V500.089H315.577V341.65Z" fill="#33145C"/>
<path d="M559.308 503.031H530.653C511.55 503.031 495.818 490.248 495.818 474.727V363.335C495.818 347.814 511.55 335.031 530.653 335.031H559.308C578.411 335.031 594.143 347.814 594.143 363.335V474.27C594.143 490.248 578.973 503.031 559.308 503.031Z" fill="#33145C"/>
<path d="M494.132 503.031H447.906C434.884 503.031 424.467 495.708 424.467 486.555V430.72C424.467 421.566 434.884 414.244 447.906 414.244H494.132C507.153 414.244 517.571 421.566 517.571 430.72V458.637V486.555C517.571 495.708 507.153 503.031 494.132 503.031Z" fill="#33145C"/>
<path d="M417.954 502.821H389.546C378.826 502.821 370.25 495.537 370.25 486.431V401.748C370.25 392.642 378.826 385.358 389.546 385.358H417.954C428.674 385.358 437.25 392.642 437.25 401.748V486.431C437.25 495.537 428.674 502.821 417.954 502.821Z" fill="#33145C"/>
<path d="M282.879 341.65H266.799V358.496H282.879V341.65Z" fill="black"/>
<path d="M282.879 366.691H266.799V383.537H282.879V366.691Z" fill="black"/>
<path d="M424.386 408.122C428.674 408.122 432.426 411.309 432.426 414.951V418.138C432.426 421.78 428.674 424.967 424.386 424.967C420.098 424.967 416.346 421.78 416.346 418.138V414.951C416.346 411.309 420.098 408.122 424.386 408.122Z" fill="black"/>
<path d="M449.573 408.122C453.861 408.122 457.613 411.309 457.613 414.951V418.138C457.613 421.78 453.861 424.967 449.573 424.967C445.285 424.967 441.533 421.78 441.533 418.138V414.951C441.533 411.309 445.285 408.122 449.573 408.122Z" fill="black"/>
<path d="M557.847 429.976V495.537H485.487V433.163V355.309C485.487 348.935 491.383 343.472 499.423 343.472H543.911C551.415 343.472 557.847 348.48 557.847 355.309V398.561C557.847 402.203 561.063 404.935 565.351 404.935C569.639 404.935 572.855 402.203 572.855 398.561V341.65C572.855 335.276 566.959 329.813 558.919 329.813H557.311H483.343C475.839 329.813 469.407 334.821 469.407 341.65V400.837H448.503V387.179C448.503 382.171 443.679 378.073 437.783 378.073H357.919C352.023 378.073 347.199 382.171 347.199 387.179V455.927V508.285H363.815H515.503H557.847H572.855V430.431C572.855 426.789 569.639 424.057 565.351 424.057C561.063 423.602 557.847 426.333 557.847 429.976ZM388.471 411.309V457.748V496.447H363.279V457.293V400.837C363.279 395.829 368.103 391.732 373.999 391.732H421.167C427.063 391.732 432.423 395.829 432.423 401.293H400.799C393.831 401.293 388.471 405.846 388.471 411.309ZM469.407 442.268V496.902H404.551V456.837V421.78C404.551 418.138 408.303 414.951 412.591 414.951H461.903C466.191 414.951 469.943 418.138 469.943 421.78V442.268H469.407Z" fill="black"/>
<path d="M324.689 217.358C324.153 217.358 323.617 217.358 322.545 217.813L325.225 206.886C332.193 206.431 339.161 205.52 347.736 204.61C352.025 204.154 355.241 200.512 354.705 196.87C354.169 193.228 349.881 190.496 345.593 190.951C339.161 191.406 333.265 192.317 327.368 192.772L324.153 183.211C324.689 183.211 325.225 183.211 325.761 183.211C330.049 182.756 333.265 179.569 332.729 175.472C332.193 171.829 328.441 169.098 324.153 169.553C316.649 170.008 308.609 170.463 300.033 170.919L298.425 155.439L298.961 149.976C302.177 149.976 305.393 149.52 308.609 149.52C313.433 149.065 316.649 145.878 316.113 141.78C315.577 138.138 311.825 135.407 307.536 135.862C304.321 135.862 301.105 136.317 297.353 136.317L293.601 112.187H281.273V63.9268C281.273 62.561 280.737 60.7398 279.665 59.8293C276.449 56.187 270.017 56.187 266.801 59.8293C265.729 61.1951 265.193 62.561 265.193 63.9268V112.187H251.793L249.113 136.317C243.753 136.317 238.929 135.862 235.177 135.862C230.889 135.862 227.137 138.593 226.601 142.236C226.065 145.878 229.817 149.52 234.105 149.52C237.857 149.52 242.145 149.976 247.505 149.976L246.969 155.439L245.361 170.463C233.569 170.008 223.921 169.553 217.489 169.098C213.201 168.642 209.449 171.829 208.913 175.472C208.377 179.114 212.129 182.756 216.417 182.756C216.953 182.756 217.489 182.756 218.561 182.756L215.345 192.317C209.449 191.862 203.553 191.406 196.585 190.496C192.297 190.041 188.009 192.772 187.473 196.415C186.937 200.057 190.153 203.699 194.441 204.154C201.409 204.61 208.377 205.52 214.273 205.976L217.489 216.447H216.953C212.665 215.992 208.913 218.724 207.841 222.366C207.305 226.008 210.521 229.65 214.809 230.106C218.561 230.561 223.921 231.016 229.817 231.472V265.618C227.137 265.163 224.457 265.163 222.313 266.984C217.489 270.171 219.097 275.179 220.169 277.455C229.817 307.504 239.465 339.829 241.073 345.293V395.829V415.406V505.553H305.393V436.35V345.293C305.929 341.195 311.289 313.423 321.473 277.455C322.545 272.447 320.401 269.715 318.793 268.805C316.649 266.984 313.433 266.528 310.753 266.984V232.837C316.113 232.382 321.473 231.927 326.833 231.016C331.121 230.561 334.337 226.463 333.265 222.821C332.729 219.179 328.977 216.902 324.689 217.358ZM266.265 125.846H279.129L280.736 136.772C275.377 136.772 270.017 136.772 265.193 136.772L266.265 125.846ZM263.585 150.431C267.873 150.431 272.697 150.431 277.521 150.431C279.129 150.431 280.737 150.431 282.345 150.431L283.416 156.35L285.025 170.919C276.985 170.919 268.945 170.919 261.441 170.919L263.585 150.431ZM290.385 493.715H258.225V409.943V347.569C263.049 348.48 268.945 348.935 275.913 348.935C280.737 348.935 285.561 348.48 290.385 347.569V429.065V493.715ZM292.529 333.455C277.521 337.553 259.297 334.366 255.009 333.455C251.793 322.073 245.897 302.951 239.465 283.829C246.969 286.106 257.689 288.382 271.625 288.382C285.025 288.382 296.281 285.65 304.321 283.374C298.425 304.317 294.673 322.528 292.529 333.455ZM246.969 271.081V232.837C257.153 233.293 267.873 233.748 279.665 233.748C285.025 233.748 290.385 233.748 295.209 233.293V270.626C288.777 272.447 280.737 274.268 271.625 274.268C260.905 274.268 252.865 272.902 246.969 271.081ZM305.929 219.179C280.737 220.545 253.401 219.634 234.641 218.268H235.177L231.961 207.797C249.649 209.163 263.049 209.618 275.913 209.618C286.633 209.618 296.817 209.163 309.145 208.252L305.929 219.179ZM231.425 194.138L234.641 183.667C247.505 184.122 263.584 184.577 280.736 184.577C289.849 184.577 299.497 184.577 308.609 184.122L311.825 194.593C282.881 196.87 265.193 196.87 231.425 194.138Z" fill="black"/>
<path d="M633.424 510.106H114.576C109.752 510.106 106 506.919 106 502.821C106 498.724 109.752 495.537 114.576 495.537H632.888C637.712 495.537 641.464 498.724 641.464 502.821C642 506.919 638.248 510.106 633.424 510.106Z" fill="black"/>
<path d="M297.888 533.325H112.432C108.68 533.325 106 531.049 106 527.862C106 524.675 108.68 522.398 112.432 522.398H297.888C301.64 522.398 304.32 524.675 304.32 527.862C304.32 531.049 301.64 533.325 297.888 533.325Z" fill="black"/>
<path d="M521.939 533.325H336.483C332.731 533.325 330.051 531.049 330.051 527.862C330.051 524.675 332.731 522.398 336.483 522.398H521.939C525.691 522.398 528.371 524.675 528.371 527.862C528.371 531.049 525.691 533.325 521.939 533.325Z" fill="black"/>
<path d="M380.968 557H112.432C108.68 557 106 554.724 106 551.537C106 548.35 108.68 546.073 112.432 546.073H380.968C384.72 546.073 387.4 548.35 387.4 551.537C387.4 554.268 384.72 557 380.968 557Z" fill="black"/>
<path d="M475.842 557H404.018C400.266 557 397.586 554.724 397.586 551.537C397.586 548.35 400.266 546.073 404.018 546.073H475.842C479.594 546.073 482.274 548.35 482.274 551.537C482.274 554.268 479.058 557 475.842 557Z" fill="black"/>
<path d="M517.649 557H495.137C491.385 557 488.705 554.724 488.705 551.537C488.705 548.35 491.385 546.073 495.137 546.073H517.649C521.401 546.073 524.081 548.35 524.081 551.537C524.081 554.268 521.401 557 517.649 557Z" fill="black"/>
<path d="M635.564 557H536.94C533.188 557 530.508 554.724 530.508 551.537C530.508 548.35 533.188 546.073 536.94 546.073H635.564C639.316 546.073 641.996 548.35 641.996 551.537C641.996 554.268 639.316 557 635.564 557Z" fill="black"/>
<path d="M635.572 533.325H564.284C560.532 533.325 557.852 531.049 557.852 527.862C557.852 524.675 560.532 522.398 564.284 522.398H635.572C639.324 522.398 642.004 524.675 642.004 527.862C642.004 531.049 639.324 533.325 635.572 533.325Z" fill="black"/>
</g>
<defs>
<filter id="filter0_d" x="67" y="0" width="618" height="618" filterUnits="userSpaceOnUse" color-interpolation-filters="sRGB">
<feFlood flood-opacity="0" result="BackgroundImageFix"/>
<feColorMatrix in="SourceAlpha" type="matrix" values="0 0 0 0 0 0 0 0 0 0 0 0 0 0 0 0 0 0 127 0" result="hardAlpha"/>
<feOffset dy="4"/>
<feGaussianBlur stdDeviation="8"/>
<feColorMatrix type="matrix" values="0 0 0 0 0 0 0 0 0 0 0 0 0 0 0 0 0 0 0.06 0"/>
<feBlend mode="normal" in2="BackgroundImageFix" result="effect1_dropShadow"/>
<feBlend mode="normal" in="SourceGraphic" in2="effect1_dropShadow" result="shape"/>
</filter>
<filter id="filter1_d" x="0" y="9" width="104" height="104" filterUnits="userSpaceOnUse" color-interpolation-filters="sRGB">
<feFlood flood-opacity="0" result="BackgroundImageFix"/>
<feColorMatrix in="SourceAlpha" type="matrix" values="0 0 0 0 0 0 0 0 0 0 0 0 0 0 0 0 0 0 127 0" result="hardAlpha"/>
<feOffset dy="4"/>
<feGaussianBlur stdDeviation="8"/>
<feColorMatrix type="matrix" values="0 0 0 0 0 0 0 0 0 0 0 0 0 0 0 0 0 0 0.06 0"/>
<feBlend mode="normal" in2="BackgroundImageFix" result="effect1_dropShadow"/>
<feBlend mode="normal" in="SourceGraphic" in2="effect1_dropShadow" result="shape"/>
</filter>
<linearGradient id="paint0_linear" x1="376" y1="12" x2="376" y2="598" gradientUnits="userSpaceOnUse">
<stop stop-color="#C7000D" stop-opacity="0.61"/>
<stop offset="1" stop-color="#C70077" stop-opacity="0.12"/>
</linearGradient>
<linearGradient id="paint1_linear" x1="52" y1="21" x2="52" y2="93" gradientUnits="userSpaceOnUse">
<stop stop-color="#C7000D" stop-opacity="0.61"/>
<stop offset="1" stop-color="#C70077" stop-opacity="0.12"/>
</linearGradient>
<clipPath id="clip0">
<rect width="536" height="504" fill="white" transform="translate(106 53)"/>
</clipPath>
</defs>
</svg>
