<svg width="182" height="77" viewBox="0 0 182 77" fill="none" xmlns="http://www.w3.org/2000/svg">
<path d="M20.8284 73.5136C20.8284 73.5136 12.9077 56.0803 3.81348 53.9883C3.81348 53.9883 35.4965 47.7123 46.3509 73.5136H20.8284Z" fill="#33145C"/>
<path d="M42.5379 73.5134C42.5379 73.5134 31.9768 38.6467 19.3623 34.4628C19.3623 34.4628 62.4864 22.2594 77.1545 73.5134H42.5379Z" fill="#33145C"/>
<path d="M69.2328 75.6055C69.2328 75.6055 54.5648 21.911 37.5498 15.635C37.5498 15.635 96.8088 -3.19297 117.051 75.6055H69.2328Z" fill="#33145C"/>
<path d="M129.371 73.5137C129.371 73.5137 142.279 35.5091 157.534 30.9764C157.534 30.9764 104.729 17.7271 86.834 73.5137H129.371Z" fill="#33145C"/>
<path d="M159.004 73.5136C159.004 73.5136 167.218 56.0803 176.899 53.9883C176.899 53.9883 143.163 47.7123 131.722 73.5136H159.004Z" fill="#33145C"/>
<path d="M91.8212 35.5088C92.7013 34.1142 92.408 31.6735 91.2345 30.6275C86.5407 26.4435 80.9669 22.9568 75.393 20.1675C73.9262 19.4702 72.166 20.1675 71.5793 21.9108C70.9926 23.6542 71.5793 25.7462 73.0461 26.4435C78.62 29.2328 83.6071 32.7195 88.0076 36.2061C88.3009 36.9035 90.3544 37.9495 91.8212 35.5088Z" fill="black"/>
<path d="M2.93361 77H99.4495C101.21 77 102.383 75.6054 102.383 73.5134C102.383 71.4214 101.21 70.0267 99.4495 70.0267H73.047L80.9678 62.7047C82.1412 61.6587 82.4346 59.2181 81.5545 57.8234C80.6744 56.4287 78.6209 56.0801 77.4474 57.1261L72.1669 62.0074C74.2204 53.6394 74.2204 44.9228 71.8736 36.2061C68.9399 25.0488 62.486 15.2862 53.6851 7.96417C73.047 11.1022 90.062 20.8648 101.796 34.8114L87.4217 48.0607C86.2483 49.1067 85.9549 51.5474 86.835 52.9421C88.3018 55.3827 90.3553 53.9881 90.942 53.6394L105.61 40.0414C111.771 48.7581 115.584 58.8694 117.051 69.678H111.771C110.011 69.678 108.837 71.0727 108.837 73.1647C108.837 75.2567 110.011 76.6514 111.771 76.6514H178.95C180.711 76.6514 181.884 75.2567 181.884 73.1647C181.884 71.0727 180.711 69.678 178.95 69.678H158.122C158.415 68.9807 158.709 67.9347 159.295 67.2374C160.175 65.494 159.589 63.402 158.122 62.356C156.655 61.31 154.895 62.0074 154.015 63.7507C153.135 65.494 152.255 67.586 151.668 69.678H136.12C141.694 58.1721 152.548 52.2447 163.109 49.8041C162.522 50.5014 161.936 51.1987 161.055 52.2447C159.882 53.6394 159.882 55.7314 161.055 57.1261C162.229 58.5207 163.989 58.5207 165.162 57.1261C167.803 53.6394 171.03 50.8501 174.257 48.4094C175.43 47.7121 176.017 45.9688 175.723 44.5741C175.43 43.1794 174.257 42.1334 172.79 42.1334C163.109 42.1334 151.374 45.2714 141.987 52.5934C137.88 48.0607 132.893 44.9228 127.319 43.1794C131.719 36.2061 137.293 30.6275 144.627 26.7921C145.801 26.0948 146.681 24.3515 146.387 22.9568C146.094 21.5621 144.921 20.1675 143.454 20.1675C137.587 20.1675 131.719 20.8648 126.145 22.2595C124.679 22.6081 123.505 24.7001 123.799 26.4435C124.092 28.1868 125.852 29.5815 127.319 29.2328C128.786 28.8841 129.959 28.5355 131.426 28.1868C125.265 34.1141 120.278 41.4361 117.345 49.8041C115.291 45.2714 112.944 40.7388 110.011 36.5548C112.357 35.1601 114.704 33.7654 117.051 32.7194C118.518 32.0221 119.398 29.9301 118.811 28.1868C118.225 26.4435 116.464 25.3975 114.998 26.0948C111.771 27.4895 108.837 29.2328 105.903 30.9761C91.2354 12.4968 66.8864 0.293518 39.8972 0.293518C38.4303 0.293518 37.2569 1.33952 36.9635 3.08285C36.6702 4.82617 37.5503 6.22084 38.7237 6.91817C51.6316 12.8455 61.0192 23.3055 65.4196 35.8574C63.0727 34.1141 60.7258 32.7194 58.3789 31.3248C56.9121 30.6275 55.152 31.3248 54.5652 33.0681C53.9785 34.8114 54.5652 36.9034 56.032 37.6008C59.5524 39.6928 63.0727 42.1334 66.2997 44.9228L51.0449 66.54C50.1648 52.2447 43.7109 38.9954 33.1498 29.5815C36.3768 30.2788 39.6038 30.9761 42.8308 32.0221C44.2976 32.7194 46.0577 31.3248 46.3511 29.5815C46.9378 27.8381 45.7644 25.7461 44.2976 25.3975C36.6702 22.6081 28.7494 21.2135 20.5353 21.2135C19.0685 21.2135 17.895 22.2595 17.6017 24.0028C17.3083 25.7461 18.1884 27.1408 19.3619 27.8381C30.2162 33.4168 38.137 42.4821 42.244 52.9421C31.9764 45.9688 20.5353 42.1334 8.80084 42.1334C7.33404 42.1334 6.16059 43.1794 5.86723 44.9228C5.57387 46.6661 6.16059 48.0607 7.33404 48.7581C14.6681 53.6394 21.122 60.9614 25.2291 70.0267H2.93361C1.17345 70.0267 0 71.4214 0 73.5134C0 75.6054 1.17345 77 2.93361 77ZM124.385 49.4554C129.372 50.5014 133.773 52.9421 137.587 56.7774C134.36 60.2641 131.426 64.7967 129.372 70.0267H122.625C122.332 66.54 121.745 63.4021 120.865 60.2641C121.745 56.4287 122.918 52.9421 124.385 49.4554ZM67.4731 53.9881C66.8864 59.5667 65.4196 64.7967 62.7793 70.0267H56.032L67.4731 53.9881ZM19.3619 50.1527C28.4561 52.2447 36.9635 56.7774 44.5909 63.4021C44.8843 65.494 45.1777 67.586 45.1777 70.0267H31.683C28.7494 62.356 24.6424 55.7314 19.3619 50.1527Z" fill="black"/>
</svg>
