<svg width="685" height="618" viewBox="0 0 685 618" fill="none" xmlns="http://www.w3.org/2000/svg">
<g filter="url(#filter0_d)">
<rect x="83" y="12" width="586" height="586" rx="293" fill="url(#paint0_linear)"/>
</g>
<g filter="url(#filter1_d)">
<rect x="16" y="21" width="72" height="72" rx="36" fill="url(#paint1_linear)"/>
</g>
<g clip-path="url(#clip0)">
<path d="M368.365 96.8573L382.288 29C382.845 25.6628 387.3 25.1065 388.414 29L407.349 94.6324L368.365 96.8573Z" fill="#33145C"/>
<path d="M417.932 96.8573H368.368C363.356 96.8573 358.9 100.751 358.9 106.313V130.786C358.9 135.792 362.799 140.241 368.368 140.241H417.932C422.945 140.241 427.4 136.348 427.4 130.786V106.313C427.4 101.307 423.501 96.8573 417.932 96.8573Z" fill="#33145C"/>
<path d="M486.986 341.588H450.788C448.003 341.588 445.775 343.813 445.775 346.594V362.168C445.775 364.949 448.003 367.174 450.788 367.174H486.986C489.771 367.174 491.999 364.949 491.999 362.168V346.594C491.999 343.813 489.771 341.588 486.986 341.588Z" fill="#33145C"/>
<path d="M481.416 389.422H423.498C419.043 389.422 415.701 386.085 415.701 381.635V359.943C415.701 355.494 419.043 352.156 423.498 352.156H481.416C485.871 352.156 489.213 355.494 489.213 359.943V381.635C489.213 386.085 485.871 389.422 481.416 389.422Z" fill="#33145C"/>
<path d="M445.776 239.246H409.02C406.235 239.246 404.008 241.471 404.008 244.252V256.489C404.008 259.27 406.235 261.495 409.02 261.495H445.219C448.003 261.495 450.231 259.27 450.231 256.489V244.252C450.788 241.471 448.56 239.246 445.776 239.246Z" fill="#33145C"/>
<path d="M440.205 280.406H381.73C377.275 280.406 373.934 277.068 373.934 272.619V256.489C373.934 252.039 377.275 248.702 381.73 248.702H440.205C444.661 248.702 448.002 252.039 448.002 256.489V272.619C448.002 276.512 444.661 280.406 440.205 280.406Z" fill="#33145C"/>
<path d="M251.979 493.433C251.979 493.433 358.348 319.34 370.043 139.685H413.481C413.481 139.685 432.973 314.334 534.33 493.433V510.119H467.501C467.501 510.119 470.286 394.428 386.75 394.428C303.214 394.428 308.226 496.77 308.226 496.77L251.979 493.433Z" fill="#33145C"/>
<path d="M234.152 516.238V504.557C234.152 500.108 237.494 496.77 241.949 496.77H333.839C338.294 496.77 341.635 500.108 341.635 504.557V516.238C341.635 520.687 338.294 524.024 333.839 524.024H241.949C237.494 524.024 234.152 520.687 234.152 516.238Z" fill="#33145C"/>
<path d="M445.775 516.238V504.557C445.775 500.108 449.117 496.77 453.572 496.77H545.462C549.917 496.77 553.258 500.108 553.258 504.557V516.238C553.258 520.687 549.917 524.024 545.462 524.024H453.572C449.117 524.024 445.775 520.687 445.775 516.238Z" fill="#33145C"/>
<path d="M209.645 172.501C192.381 172.501 177.345 183.626 172.332 199.756C172.332 199.756 172.332 200.312 171.776 200.312H153.955C147.829 200.312 142.816 205.318 142.816 211.436C142.816 217.554 147.829 222.56 153.955 222.56H181.243C187.926 222.56 192.381 216.998 192.938 210.88C193.495 201.424 201.292 194.194 210.759 194.75C219.669 195.306 225.239 203.649 226.352 211.992C226.909 217.554 231.364 222.004 237.49 222.004H248.629C254.755 222.004 259.767 216.998 259.767 210.88C259.767 204.762 254.755 199.756 248.629 199.756H247.515C247.515 199.756 246.958 199.756 246.958 199.199C241.946 183.626 226.352 172.501 209.645 172.501Z" fill="black"/>
<path d="M558.276 64.5973C541.012 64.5973 525.975 75.7214 520.963 91.8514C520.963 91.8514 520.963 92.4076 520.406 92.4076H502.585C496.459 92.4076 491.447 97.4135 491.447 103.532C491.447 109.65 496.459 114.656 502.585 114.656H529.874C536.557 114.656 541.012 109.094 541.569 102.976C542.126 93.52 549.922 86.2894 559.39 86.8456C568.3 87.4018 573.869 95.7449 574.983 104.088C575.54 109.65 579.995 114.1 586.121 114.1H597.259C603.385 114.1 608.398 109.094 608.398 102.976C608.398 96.8573 603.385 91.8514 597.259 91.8514H596.146C596.146 91.8514 595.589 91.8514 595.589 91.2952C590.577 75.7214 575.54 64.5973 558.276 64.5973Z" fill="black"/>
<path d="M620.646 517.906H543.793V494.546C543.793 490.096 539.895 486.202 535.44 486.202H526.529C523.188 481.197 520.403 476.191 517.619 471.185C515.948 468.404 513.164 467.291 510.379 467.291C504.253 467.291 499.798 473.966 503.139 479.528C504.253 481.753 505.924 483.978 507.038 486.202H458.03V484.534C458.03 437.812 422.945 399.434 380.063 399.434H374.494C331.612 399.434 296.527 437.812 296.527 484.534V486.202H247.519C265.34 456.167 281.491 425.02 295.413 393.316H459.144C461.928 399.434 464.713 405.552 467.497 411.114C469.168 415.008 474.18 417.233 478.635 415.008C483.091 413.339 484.761 407.777 482.534 403.884C480.863 399.99 479.192 396.653 477.522 392.76C479.192 392.76 480.863 391.647 481.977 390.535C483.648 388.866 484.204 387.198 484.761 384.416V373.292C487.546 372.18 489.217 369.399 489.773 365.505V352.713C489.773 348.263 485.875 344.37 481.42 344.37H458.03C456.359 340.476 455.245 336.583 453.575 332.689C452.461 329.352 449.119 327.127 445.778 327.127C439.652 327.127 435.754 332.689 437.981 338.251C438.538 340.476 439.652 342.145 440.209 344.37H412.92L400.669 289.305C400.112 287.08 398.441 284.855 396.77 283.743H419.603C421.274 288.749 422.945 293.755 424.059 298.204C425.172 301.542 428.514 303.766 431.855 303.766C437.424 303.766 441.88 298.204 439.652 292.642C438.538 288.749 437.424 285.412 436.311 281.518C438.538 279.85 440.209 277.625 440.209 274.287V264.832C442.436 263.163 444.107 260.938 444.107 257.601V247.033C444.107 244.808 443.55 242.584 441.88 240.915C440.209 239.246 438.538 238.69 435.754 238.134H424.615C422.388 229.235 420.717 220.335 418.49 210.88C417.376 206.43 413.477 203.093 408.465 204.205C404.01 205.318 401.225 209.767 401.782 214.773C403.453 222.56 405.124 230.347 406.794 238.134H396.77L391.758 215.329C390.644 211.436 387.303 208.655 383.404 208.655H370.039C366.14 208.655 362.799 211.436 361.685 215.329L357.23 240.359H347.206C353.888 211.992 358.901 183.626 362.242 154.703H391.758C392.872 163.602 393.986 172.501 395.099 180.845C395.656 184.738 399.555 188.075 403.453 188.075C408.465 188.075 412.364 183.626 411.807 178.62C410.693 170.277 409.579 161.377 408.465 153.034C411.807 151.366 414.034 148.028 414.034 144.135C419.046 142.466 422.388 137.46 422.388 132.455V108.538C422.388 102.976 419.046 97.9697 414.034 96.3011C413.477 90.1828 408.465 85.7331 402.896 85.7331H395.099L385.075 38.4555C384.518 36.2307 383.404 34.5621 381.734 32.8934C380.063 31.781 377.835 31.2248 375.608 31.2248C372.266 31.781 369.482 34.5621 368.925 37.8993L358.901 85.7331H351.104C344.978 85.7331 340.523 90.1828 339.966 96.3011C334.954 97.9697 331.612 102.976 331.612 107.981V132.455C331.612 138.017 334.954 142.466 339.966 144.135C340.523 148.028 342.193 151.366 345.535 153.034C342.193 182.513 336.624 211.992 329.941 240.359H318.803C314.348 240.359 310.45 244.252 310.45 248.702V259.27C310.45 262.051 312.12 264.832 314.348 266.501V275.956C314.348 278.737 316.019 281.518 318.246 283.187C312.12 303.21 304.881 324.346 296.527 345.482H273.137C270.909 345.482 268.682 346.038 267.011 347.707C265.34 349.375 264.783 351.044 264.227 353.825V366.062C264.227 369.399 265.897 372.18 269.239 373.849V384.973C269.239 387.198 269.796 389.422 271.466 391.091C272.58 392.203 274.251 393.316 275.922 393.316C261.442 425.576 244.735 457.28 226.357 487.315H217.446C212.991 487.315 209.093 491.208 209.093 495.658V518.462H133.354C128.898 518.462 125 522.356 125 526.806C125 531.255 128.898 535.149 133.354 535.149H620.646C625.102 535.149 629 531.255 629 526.806C629 522.356 625.102 517.906 620.646 517.906ZM376.722 80.1711L377.835 85.1769H375.608L376.722 80.1711ZM348.319 111.875H405.681V128.005H348.319V111.875ZM376.722 227.566L379.506 240.359H373.937L376.722 227.566ZM369.482 299.873H384.518L394.543 344.926H359.457L369.482 299.873ZM335.51 284.299H358.901C357.23 285.412 355.559 287.08 355.002 289.861L342.193 344.926H314.905C322.145 324.902 329.385 304.879 335.51 284.299ZM286.503 373.849H467.497V375.517H286.503V373.849ZM317.689 517.906H226.914V502.889H317.689V517.906ZM419.603 494.546V517.906H334.397V494.546C334.397 490.096 330.498 486.202 326.043 486.202H312.677V484.534C312.677 446.712 339.966 416.12 373.937 416.12H379.506C413.477 416.12 440.766 446.712 440.766 484.534V486.202H427.4C423.502 486.202 419.603 490.096 419.603 494.546ZM527.086 517.906H436.311V502.889H527.086V517.906Z" fill="black"/>
<path d="M525.972 566.296H133.354C128.898 566.296 125 562.403 125 557.953C125 553.503 128.898 549.61 133.354 549.61H525.972C530.428 549.61 534.326 553.503 534.326 557.953C534.326 562.403 530.985 566.296 525.972 566.296Z" fill="black"/>
<path d="M620.649 566.296H561.617C557.162 566.296 553.264 562.403 553.264 557.953C553.264 553.503 557.162 549.61 561.617 549.61H620.649C625.104 549.61 629.003 553.503 629.003 557.953C629.003 562.403 625.104 566.296 620.649 566.296Z" fill="black"/>
<path d="M556.604 598H497.572C493.117 598 489.219 594.107 489.219 589.657C489.219 585.207 493.117 581.314 497.572 581.314H556.604C561.06 581.314 564.958 585.207 564.958 589.657C564.958 594.107 561.06 598 556.604 598Z" fill="black"/>
<path d="M461.928 598H133.354C128.898 598 125 594.107 125 589.657C125 585.207 128.898 581.314 133.354 581.314H461.928C466.383 581.314 470.282 585.207 470.282 589.657C470.282 594.107 466.383 598 461.928 598Z" fill="black"/>
<path d="M620.648 598H589.461C585.006 598 581.107 594.107 581.107 589.657C581.107 585.207 585.006 581.314 589.461 581.314H620.648C625.103 581.314 629.001 585.207 629.001 589.657C629.001 594.107 625.103 598 620.648 598Z" fill="black"/>
</g>
<defs>
<filter id="filter0_d" x="67" y="0" width="618" height="618" filterUnits="userSpaceOnUse" color-interpolation-filters="sRGB">
<feFlood flood-opacity="0" result="BackgroundImageFix"/>
<feColorMatrix in="SourceAlpha" type="matrix" values="0 0 0 0 0 0 0 0 0 0 0 0 0 0 0 0 0 0 127 0" result="hardAlpha"/>
<feOffset dy="4"/>
<feGaussianBlur stdDeviation="8"/>
<feColorMatrix type="matrix" values="0 0 0 0 0 0 0 0 0 0 0 0 0 0 0 0 0 0 0.06 0"/>
<feBlend mode="normal" in2="BackgroundImageFix" result="effect1_dropShadow"/>
<feBlend mode="normal" in="SourceGraphic" in2="effect1_dropShadow" result="shape"/>
</filter>
<filter id="filter1_d" x="0" y="9" width="104" height="104" filterUnits="userSpaceOnUse" color-interpolation-filters="sRGB">
<feFlood flood-opacity="0" result="BackgroundImageFix"/>
<feColorMatrix in="SourceAlpha" type="matrix" values="0 0 0 0 0 0 0 0 0 0 0 0 0 0 0 0 0 0 127 0" result="hardAlpha"/>
<feOffset dy="4"/>
<feGaussianBlur stdDeviation="8"/>
<feColorMatrix type="matrix" values="0 0 0 0 0 0 0 0 0 0 0 0 0 0 0 0 0 0 0.06 0"/>
<feBlend mode="normal" in2="BackgroundImageFix" result="effect1_dropShadow"/>
<feBlend mode="normal" in="SourceGraphic" in2="effect1_dropShadow" result="shape"/>
</filter>
<linearGradient id="paint0_linear" x1="376" y1="12" x2="376" y2="598" gradientUnits="userSpaceOnUse">
<stop stop-color="#C7000D" stop-opacity="0.61"/>
<stop offset="1" stop-color="#C70077" stop-opacity="0.12"/>
</linearGradient>
<linearGradient id="paint1_linear" x1="52" y1="21" x2="52" y2="93" gradientUnits="userSpaceOnUse">
<stop stop-color="#C7000D" stop-opacity="0.61"/>
<stop offset="1" stop-color="#C70077" stop-opacity="0.12"/>
</linearGradient>
<clipPath id="clip0">
<rect width="504" height="569" fill="white" transform="translate(125 29)"/>
</clipPath>
</defs>
</svg>
