<svg width="142" height="137" viewBox="0 0 142 137" fill="none" xmlns="http://www.w3.org/2000/svg">
<g clip-path="url(#clip0)">
<path d="M68.5674 16.3382L72.49 -4.75049e-05C72.6469 -0.803567 73.9022 -0.937486 74.216 -4.75049e-05L79.5508 15.8025L68.5674 16.3382Z" fill="#33145C"/>
<path d="M82.5334 16.3382H68.5688C67.1566 16.3382 65.9014 17.2756 65.9014 18.6148V24.5073C65.9014 25.7126 66.9997 26.7839 68.5688 26.7839H82.5334C83.9456 26.7839 85.2008 25.8465 85.2008 24.5073V18.6148C85.2008 17.4096 84.1025 16.3382 82.5334 16.3382Z" fill="#33145C"/>
<path d="M101.988 75.2629H91.7891C91.0046 75.2629 90.377 75.7986 90.377 76.4682V80.218C90.377 80.8876 91.0046 81.4232 91.7891 81.4232H101.988C102.773 81.4232 103.4 80.8876 103.4 80.218V76.4682C103.4 75.7986 102.773 75.2629 101.988 75.2629Z" fill="#33145C"/>
<path d="M100.418 86.7801H84.1C82.8448 86.7801 81.9033 85.9765 81.9033 84.9052V79.6823C81.9033 78.611 82.8448 77.8074 84.1 77.8074H100.418C101.673 77.8074 102.615 78.611 102.615 79.6823V84.9052C102.615 85.9765 101.673 86.7801 100.418 86.7801Z" fill="#33145C"/>
<path d="M90.3773 50.6217H80.0215C79.237 50.6217 78.6094 51.1574 78.6094 51.827V54.7732C78.6094 55.4428 79.237 55.9785 80.0215 55.9785H90.2204C91.005 55.9785 91.6326 55.4428 91.6326 54.7732V51.827C91.7895 51.1574 91.1619 50.6217 90.3773 50.6217Z" fill="#33145C"/>
<path d="M88.8076 60.5318H72.3324C71.0772 60.5318 70.1357 59.7282 70.1357 58.6569V54.7732C70.1357 53.7018 71.0772 52.8983 72.3324 52.8983H88.8076C90.0628 52.8983 91.0043 53.7018 91.0043 54.7732V58.6569C91.0043 59.5943 90.0628 60.5318 88.8076 60.5318Z" fill="#33145C"/>
<path d="M35.7754 111.823C35.7754 111.823 65.7445 69.9062 69.0395 26.6501H81.2782C81.2782 26.6501 86.7699 68.7009 115.327 111.823V115.841H96.4981C96.4981 115.841 97.2826 87.9854 73.7467 87.9854C50.2108 87.9854 51.6229 112.627 51.6229 112.627L35.7754 111.823Z" fill="#33145C"/>
<path d="M30.7529 117.314V114.501C30.7529 113.43 31.6944 112.627 32.9496 112.627H58.8391C60.0944 112.627 61.0358 113.43 61.0358 114.501V117.314C61.0358 118.385 60.0944 119.189 58.8391 119.189H32.9496C31.6944 119.189 30.7529 118.385 30.7529 117.314Z" fill="#33145C"/>
<path d="M90.377 117.314V114.501C90.377 113.43 91.3184 112.627 92.5736 112.627H118.463C119.718 112.627 120.66 113.43 120.66 114.501V117.314C120.66 118.385 119.718 119.189 118.463 119.189H92.5736C91.3184 119.189 90.377 118.385 90.377 117.314Z" fill="#33145C"/>
<path d="M23.8492 34.5513C18.9851 34.5513 14.7487 37.2297 13.3365 41.1134C13.3365 41.1134 13.3365 41.2473 13.1796 41.2473H8.15863C6.43266 41.2473 5.02051 42.4526 5.02051 43.9257C5.02051 45.3988 6.43266 46.6041 8.15863 46.6041H15.847C17.7299 46.6041 18.9851 45.2649 19.1421 43.7918C19.299 41.5152 21.4956 39.7742 24.163 39.9081C26.6735 40.042 28.2426 42.0508 28.5564 44.0596C28.7133 45.3988 29.9686 46.4702 31.6945 46.4702H34.8327C36.5586 46.4702 37.9708 45.2649 37.9708 43.7918C37.9708 42.3187 36.5586 41.1134 34.8327 41.1134H34.5188C34.5188 41.1134 34.3619 41.1134 34.3619 40.9795C32.9498 37.2297 28.5564 34.5513 23.8492 34.5513Z" fill="black"/>
<path d="M122.074 8.57086C117.21 8.57086 112.973 11.2493 111.561 15.1329C111.561 15.1329 111.561 15.2669 111.404 15.2669H106.383C104.657 15.2669 103.245 16.4721 103.245 17.9452C103.245 19.4184 104.657 20.6236 106.383 20.6236H114.072C115.954 20.6236 117.21 19.2844 117.367 17.8113C117.524 15.5347 119.72 13.7937 122.388 13.9277C124.898 14.0616 126.467 16.0704 126.781 18.0792C126.938 19.4184 128.193 20.4897 129.919 20.4897H133.057C134.783 20.4897 136.195 19.2844 136.195 17.8113C136.195 16.3382 134.783 15.1329 133.057 15.1329H132.743C132.743 15.1329 132.587 15.1329 132.587 14.999C131.174 11.2493 126.938 8.57086 122.074 8.57086Z" fill="black"/>
<path d="M139.646 117.716H117.993V112.091C117.993 111.02 116.895 110.082 115.64 110.082H113.129C112.188 108.877 111.403 107.672 110.619 106.466C110.148 105.797 109.364 105.529 108.579 105.529C106.853 105.529 105.598 107.136 106.539 108.475C106.853 109.011 107.324 109.546 107.638 110.082H93.8298V109.68C93.8298 98.4311 83.9447 89.1906 71.863 89.1906H70.2939C58.2122 89.1906 48.3271 98.4311 48.3271 109.68V110.082H34.5193C39.5403 102.85 44.0906 95.3509 48.0133 87.7175H94.1436C94.9282 89.1906 95.7127 90.6637 96.4972 92.0029C96.968 92.9403 98.3801 93.476 99.6354 92.9403C100.891 92.5386 101.361 91.1994 100.734 90.2619C100.263 89.3245 99.7923 88.521 99.3215 87.5835C99.7923 87.5835 100.263 87.3157 100.577 87.0479C101.048 86.6461 101.204 86.2444 101.361 85.5748V82.8964C102.146 82.6285 102.617 81.9589 102.773 81.0215V77.9413C102.773 76.87 101.675 75.9325 100.42 75.9325H93.8298C93.3591 74.9951 93.0453 74.0576 92.5746 73.1202C92.2608 72.3167 91.3193 71.781 90.3779 71.781C88.6519 71.781 87.5536 73.1202 88.1812 74.4594C88.3381 74.9951 88.6519 75.3968 88.8088 75.9325H81.1204L77.6685 62.6745C77.5116 62.1388 77.0409 61.6031 76.5702 61.3353H83.0033C83.474 62.5405 83.9448 63.7458 84.2586 64.8172C84.5724 65.6207 85.5138 66.1564 86.4552 66.1564C88.0243 66.1564 89.2796 64.8172 88.6519 63.478C88.3381 62.5405 88.0243 61.737 87.7105 60.7996C88.3381 60.3978 88.8088 59.8621 88.8088 59.0586V56.782C89.4365 56.3802 89.9072 55.8445 89.9072 55.041V52.4965C89.9072 51.9609 89.7503 51.4252 89.2796 51.0234C88.8088 50.6217 88.3381 50.4877 87.5536 50.3538H84.4155C83.7878 48.2111 83.3171 46.0684 82.6895 43.7918C82.3757 42.7204 81.2774 41.9169 79.8652 42.1847C78.6099 42.4526 77.8254 43.5239 77.9823 44.7292C78.453 46.6041 78.9238 48.479 79.3945 50.3538H76.5702L75.158 44.8631C74.8442 43.9257 73.9028 43.2561 72.8044 43.2561H69.0387C67.9403 43.2561 66.9989 43.9257 66.6851 44.8631L65.4298 50.8895H62.6055C64.4884 44.0596 65.9006 37.2297 66.842 30.2659H75.158C75.4718 32.4086 75.7856 34.5513 76.0994 36.5601C76.2564 37.4975 77.3547 38.301 78.453 38.301C79.8652 38.301 80.9635 37.2297 80.8066 36.0244C80.4928 34.0156 80.179 31.8729 79.8652 29.8641C80.8066 29.4623 81.4343 28.6588 81.4343 27.7214C82.8464 27.3196 83.7878 26.1143 83.7878 24.9091V19.1505C83.7878 17.8113 82.8464 16.606 81.4343 16.2043C81.2774 14.7312 79.8652 13.6598 78.2961 13.6598H76.0994L73.2751 2.2766C73.1182 1.74092 72.8044 1.33916 72.3337 0.937404C71.863 0.669564 71.2354 0.535645 70.6077 0.535645C69.6663 0.669564 68.8818 1.33916 68.7249 2.14268L65.9006 13.6598H63.7039C61.9779 13.6598 60.7227 14.7312 60.5657 16.2043C59.1536 16.606 58.2122 17.8113 58.2122 19.0166V24.9091C58.2122 26.2483 59.1536 27.3196 60.5657 27.7214C60.7227 28.6588 61.1934 29.4623 62.1348 29.8641C61.1934 36.9618 59.6243 44.0596 57.7414 50.8895H54.6033C53.3481 50.8895 52.2497 51.827 52.2497 52.8983V55.4428C52.2497 56.1124 52.7204 56.782 53.3481 57.1837V59.4604C53.3481 60.13 53.8188 60.7996 54.4464 61.2013C52.7204 66.0225 50.6807 71.1114 48.3271 76.2004H41.737C41.1094 76.2004 40.4818 76.3343 40.0111 76.736C39.5403 77.1378 39.3834 77.5396 39.2265 78.2092V81.1554C39.2265 81.9589 39.6972 82.6285 40.6387 83.0303V85.7087C40.6387 86.2444 40.7956 86.78 41.2663 87.1818C41.5801 87.4496 42.0508 87.7175 42.5215 87.7175C38.442 95.4848 33.7348 103.118 28.5569 110.35H26.0464C24.7912 110.35 23.6928 111.287 23.6928 112.359V117.849H2.35359C1.09834 117.849 0 118.787 0 119.858C0 120.93 1.09834 121.867 2.35359 121.867H139.646C140.902 121.867 142 120.93 142 119.858C142 118.787 140.902 117.716 139.646 117.716ZM70.9215 12.3206L71.2354 13.5259H70.6077L70.9215 12.3206ZM62.9193 19.954H79.0807V23.8377H62.9193V19.954ZM70.9215 47.8094L71.7061 50.8895H70.137L70.9215 47.8094ZM68.8818 65.2189H73.1182L75.9425 76.0664H66.0575L68.8818 65.2189ZM59.3105 61.4692H65.9006C65.4298 61.737 64.9591 62.1388 64.8022 62.8084L61.1934 76.0664H53.505C55.5448 71.2453 57.5845 66.4242 59.3105 61.4692ZM45.5028 83.0303H96.4972V83.432H45.5028V83.0303ZM54.2895 117.716H28.7138V114.1H54.2895V117.716ZM83.0033 112.091V117.716H58.9967V112.091C58.9967 111.02 57.8983 110.082 56.6431 110.082H52.8773V109.68C52.8773 100.574 60.5658 93.2082 70.137 93.2082H71.7061C81.2774 93.2082 88.9658 100.574 88.9658 109.68V110.082H85.2C84.1017 110.082 83.0033 111.02 83.0033 112.091ZM113.286 117.716H87.7105V114.1H113.286V117.716Z" fill="black"/>
</g>
<defs>
<clipPath id="clip0">
<rect width="142" height="137" fill="white"/>
</clipPath>
</defs>
</svg>
