<svg width="133" height="114" viewBox="0 0 133 114" fill="none" xmlns="http://www.w3.org/2000/svg">
<g clip-path="url(#clip0)">
<path d="M82.8737 42.0515H81.6523V50.9614H82.8737V42.0515Z" fill="#33145C"/>
<path d="M83.332 29.8712V41.8713C83.332 42.206 83.561 42.515 83.8664 42.618L88.9044 44.2919C89.0317 44.3434 89.1589 44.3434 89.2861 44.3176L100.533 42.4378L103.332 41.9485C103.713 41.8713 103.993 41.5622 103.993 41.176V29.9485C103.993 29.6137 103.764 29.3047 103.459 29.2017C102.568 28.9185 100.635 28.4807 97.7338 29.0215C93.6117 29.794 91.169 31.0043 89.4133 30.515C87.8103 30.0515 86.9961 29.3562 84.1972 29.0987C83.7391 29.0472 83.332 29.4077 83.332 29.8712Z" fill="#33145C"/>
<path d="M88.0132 51.4249L84.8326 48.6437C84.5527 48.3862 84.1201 48.3862 83.8402 48.618L79.54 52.0429C78.9294 52.5322 79.311 53.5107 80.0998 53.4592L87.5806 52.8154C88.2676 52.7639 88.5475 51.8884 88.0132 51.4249Z" fill="#33145C"/>
<path d="M102.822 66.2575H64.757C63.1795 66.2575 61.9072 64.9699 61.9072 63.3734V54.309C61.9072 52.7124 63.1795 51.4249 64.757 51.4249H102.822C104.4 51.4249 105.672 52.7124 105.672 54.309V63.3476C105.672 64.9699 104.4 66.2575 102.822 66.2575Z" fill="#33145C"/>
<path d="M117.199 56.9871H113.484C112.695 56.9871 112.033 57.6309 112.033 58.4549V63.7082C112.033 64.5064 112.669 65.176 113.484 65.176H117.199C117.987 65.176 118.649 64.5322 118.649 63.7082V58.4549C118.649 57.6566 117.987 56.9871 117.199 56.9871Z" fill="#33145C"/>
<path d="M127.733 69.7081H53.7903C53.2051 69.7081 52.7471 69.2446 52.7471 68.6523V64.7124C52.7471 64.1201 53.2051 63.6566 53.7903 63.6566H127.733C128.318 63.6566 128.776 64.1201 128.776 64.7124V68.6523C128.802 69.2446 128.318 69.7081 127.733 69.7081Z" fill="#33145C"/>
<path d="M53.3836 71.4077H50.203C49.2107 71.4077 48.4219 70.6094 48.4219 69.6051V58.7897C48.4219 57.7854 49.2107 56.9871 50.203 56.9871H53.3836C54.376 56.9871 55.1647 57.7854 55.1647 58.7897V69.6051C55.1647 70.6094 54.376 71.4077 53.3836 71.4077Z" fill="#33145C"/>
<path d="M129.31 111.167H47.0723C45.0367 111.167 43.3828 109.494 43.3828 107.433V71.3305C43.3828 69.2704 45.0367 67.5966 47.0723 67.5966H129.31C131.346 67.5966 132.999 69.2704 132.999 71.3305V107.433C132.999 109.494 131.346 111.167 129.31 111.167Z" fill="#33145C"/>
<path d="M129.259 71.4077H124.196V68.0085H125.875C126.817 68.0085 127.555 67.236 127.555 66.309C127.555 65.3562 126.791 64.6094 125.875 64.6094H117.453V59.4849C117.453 58.5321 116.69 57.7854 115.774 57.7854H109.031C108.089 57.7854 107.351 58.5579 107.351 59.4849V64.6094H103.993V54.3862C103.993 53.4334 103.229 52.6866 102.313 52.6866H87.5554L82.1102 48.412V44.2145C83.0771 44.3175 84.0186 44.5493 84.9346 44.8841C88.5477 46.1459 92.4917 46.1459 96.1049 44.8841C97.5552 44.3433 99.0819 44.0858 100.634 44.1115C101.575 44.1115 102.313 43.339 102.313 42.412V32.1888C102.313 31.236 101.55 30.4892 100.634 30.4892C98.7257 30.4635 96.8428 30.7725 95.0616 31.442C92.1355 32.472 88.9549 32.472 86.0287 31.442C84.2476 30.7725 82.3392 30.4635 80.4563 30.4892C79.5148 30.4892 78.7769 31.2617 78.7769 32.1888V48.412L73.2809 52.6609H58.5229C57.5814 52.6609 56.8435 53.4334 56.8435 54.3605V64.5836H53.4848V59.4849C53.4848 58.5321 52.7215 57.7854 51.8054 57.7854H45.0626C44.1211 57.7854 43.3832 58.5579 43.3832 59.4849V64.6094H33.2816V68.0085H36.6403V71.4077H31.5768C30.6354 71.4077 29.8975 72.1802 29.8975 73.1072V110.601C29.8975 111.554 30.6608 112.3 31.5768 112.3H129.259C130.201 112.3 130.939 111.528 130.939 110.601V73.1072C130.939 72.1802 130.201 71.4077 129.259 71.4077ZM120.837 71.4077H117.479V68.0085H120.837V71.4077ZM103.993 71.4077V68.0085H107.377V71.4077H103.993ZM60.2022 71.4077V68.0085H100.609V71.4077H60.2022ZM72.0086 95.2789H88.8531V98.6781H72.0086V95.2789ZM88.8531 102.103V108.927H82.1102V102.103H88.8531ZM88.8531 91.854H72.0086V74.8068H88.8531V91.854ZM53.4848 71.4077V68.0085H56.8435V71.4077H53.4848ZM46.7419 68.0085H50.1006V71.4077H46.7419V68.0085ZM63.4846 64.6094L80.4309 51.4248L97.3771 64.6094H63.4846ZM110.736 68.0085H114.094V71.4077H110.736V68.0085ZM110.736 61.1845H114.094V64.5836H110.736V61.1845ZM100.634 56.0858V62.8326L91.9319 56.06H100.634V56.0858ZM82.1102 33.9914C83.0771 34.0944 84.0186 34.3261 84.9346 34.6609C88.5477 35.9227 92.4917 35.9227 96.1049 34.6609C97.0209 34.3261 97.9623 34.0944 98.9292 33.9914V40.7896C97.6061 40.8926 96.283 41.2017 95.0362 41.6652C92.11 42.6952 88.9294 42.6952 86.0033 41.6652C84.7565 41.2017 83.4333 40.9184 82.1102 40.7896V33.9914ZM68.9044 56.0858L60.2022 62.8326V56.06H68.9044V56.0858ZM46.7419 61.1845H50.1006V64.5836H46.7419V61.1845ZM39.9991 68.0085H43.3578V71.4077H39.9991V68.0085ZM33.2562 74.8326H55.1387V108.927H50.0752V105.528H46.7165V108.927H41.653V105.528H38.2942V108.927H33.2307V74.8326H33.2562ZM58.5229 74.8326H61.8816V108.927H58.5229V74.8326ZM65.2658 74.8326H68.6245V108.927H65.2658V74.8326ZM72.0086 102.103H78.7515V108.927H72.0086V102.103ZM92.2118 74.8326H95.5705V108.927H92.2118V74.8326ZM98.9547 74.8326H102.313V108.927H98.9547V74.8326ZM127.58 108.901H122.517V105.502H119.158V108.901H114.094V105.502H110.736V108.901H105.672V74.8326H127.555V108.901H127.58Z" fill="black"/>
<path d="M114.094 78.2317H110.735V81.6309H114.094V78.2317Z" fill="black"/>
<path d="M122.517 78.2317H119.158V81.6309H122.517V78.2317Z" fill="black"/>
<path d="M114.094 85.0557H110.735V88.4549H114.094V85.0557Z" fill="black"/>
<path d="M122.517 85.0557H119.158V88.4549H122.517V85.0557Z" fill="black"/>
<path d="M114.094 91.854H110.735V95.2531H114.094V91.854Z" fill="black"/>
<path d="M122.517 91.854H119.158V95.2531H122.517V91.854Z" fill="black"/>
<path d="M114.094 98.6781H110.735V102.077H114.094V98.6781Z" fill="black"/>
<path d="M122.517 98.6781H119.158V102.077H122.517V98.6781Z" fill="black"/>
<path d="M50.1009 78.2317H46.7422V81.6309H50.1009V78.2317Z" fill="black"/>
<path d="M41.6781 78.2317H38.3193V81.6309H41.6781V78.2317Z" fill="black"/>
<path d="M50.1009 85.0557H46.7422V88.4549H50.1009V85.0557Z" fill="black"/>
<path d="M41.6781 85.0557H38.3193V88.4549H41.6781V85.0557Z" fill="black"/>
<path d="M50.1009 91.854H46.7422V95.2531H50.1009V91.854Z" fill="black"/>
<path d="M41.6781 91.854H38.3193V95.2531H41.6781V91.854Z" fill="black"/>
<path d="M50.1009 98.6781H46.7422V102.077H50.1009V98.6781Z" fill="black"/>
<path d="M41.6781 98.6781H38.3193V102.077H41.6781V98.6781Z" fill="black"/>
<path d="M78.7259 78.2317H75.3672V81.6309H78.7259V78.2317Z" fill="black"/>
<path d="M85.4691 78.2317H82.1104V81.6309H85.4691V78.2317Z" fill="black"/>
<path d="M78.7259 85.0557H75.3672V88.4549H78.7259V85.0557Z" fill="black"/>
<path d="M85.4691 85.0557H82.1104V88.4549H85.4691V85.0557Z" fill="black"/>
<path d="M43.3837 10.0944C43.3582 10.0687 43.3582 10.0429 43.3328 10.0172C43.1801 9.70814 42.3913 7.77681 43.1801 5.81973C43.8671 4.14591 44.4269 1.54505 44.6305 0.48926C44.6814 0.257501 44.9358 0.128745 45.1648 0.257501C46.6661 1.18454 51.526 4.55793 50.1011 8.44634C50.1011 8.47209 50.0757 8.49784 50.0757 8.52359L48.7271 10.6867C48.6508 10.7897 48.549 10.8412 48.4218 10.8412H44.1216C44.0198 10.8412 43.918 10.7897 43.8417 10.7124L43.3837 10.0944Z" fill="#33145C"/>
<path d="M48.9302 15.2704H43.2305C42.4672 15.2704 41.8311 14.6523 41.8311 13.8541C41.8311 13.0815 42.4417 12.4377 43.2305 12.4377H48.9302C49.6935 12.4377 50.3296 13.0558 50.3296 13.8541C50.3296 14.6523 49.6935 15.2704 48.9302 15.2704Z" fill="#33145C"/>
<path d="M23.3072 30.412H21.6533C21.1444 30.412 20.7373 30.824 20.7373 31.339V31.442C20.7373 31.9571 21.1444 32.3691 21.6533 32.3691H23.3072C23.8161 32.3691 24.2232 31.9571 24.2232 31.442V31.339C24.2487 30.824 23.8161 30.412 23.3072 30.412Z" fill="#33145C"/>
<path d="M25.5207 26.8583L24.452 25.5708C24.1212 25.1845 23.536 25.133 23.1543 25.4678L23.078 25.5193C22.6963 25.854 22.6454 26.4463 22.9762 26.8326L24.0449 28.1201C24.3756 28.5064 24.9609 28.5579 25.3425 28.2231L25.4189 28.1716C25.8005 27.8626 25.8514 27.2703 25.5207 26.8583Z" fill="#33145C"/>
<path d="M30.0754 26.3176V24.6438C30.0754 24.1288 29.6683 23.7167 29.1594 23.7167H29.0576C28.5487 23.7167 28.1416 24.1288 28.1416 24.6438V26.3176C28.1416 26.8326 28.5487 27.2446 29.0576 27.2446H29.1594C29.6683 27.2446 30.0754 26.8326 30.0754 26.3176Z" fill="#33145C"/>
<path d="M33.8165 29.5365L34.9106 28.2747C35.2414 27.8884 35.216 27.2962 34.8343 26.9356L34.758 26.8841C34.3763 26.5494 33.7911 26.5751 33.4348 26.9614L32.3407 28.2232C32.0099 28.6095 32.0354 29.2017 32.4171 29.5623L32.4934 29.6138C32.8751 29.9743 33.4603 29.9228 33.8165 29.5365Z" fill="#33145C"/>
<path d="M31.3481 27.3477H31.0936C28.5746 27.3477 26.5645 29.4077 26.5645 31.9313V38.4979C26.5645 41.0472 28.6 43.0816 31.0936 43.0816H31.3481C33.8671 43.0816 35.8772 41.0215 35.8772 38.4979V31.9313C35.8772 29.4077 33.8417 27.3477 31.3481 27.3477Z" fill="#33145C"/>
<path d="M17.353 76.6867C17.3021 76.7382 17.2257 76.7639 17.1748 76.8154C16.6405 77.1244 14.0451 78.4635 12.8238 76.7639C11.7042 75.2189 6.1318 68.0858 4.01988 65.4077C3.56188 64.8412 3.66366 64.0172 4.22344 63.5536L10.7119 58.1202C11.2717 57.6566 12.1113 57.7339 12.5693 58.3004L20.1519 67.7253C20.3554 67.9571 20.4572 68.2661 20.4572 68.5751V73.4935C20.4572 73.9056 20.2791 74.2661 19.9738 74.5236L17.353 76.6867Z" fill="#33145C"/>
<path d="M22.7992 108.129C23.3081 108.335 23.6897 96.9785 23.817 81.2704C23.9187 69.2961 22.6719 53.2017 22.7992 52.4292C23.1299 50.4978 34.631 45.2446 36.0305 43.6996C37.4045 42.1545 41.781 37.0043 41.781 31.7768V18.1802C41.781 17.588 42.2644 17.1245 42.8242 17.1245H46.9717C47.5315 17.1245 47.9895 17.5622 48.015 18.1287C48.244 21.9399 48.8546 35.691 46.9208 42.0772C46.8445 42.2832 46.8445 42.515 46.9208 42.7468C47.2516 43.7768 48.2185 47.0987 47.3788 49.4163C46.6664 51.3476 45.3433 52.3519 44.6054 52.7897C44.2746 52.9957 44.071 53.3305 44.071 53.7167C44.1474 58.2232 44.6817 84.1802 45.3433 87.2189C45.9794 90.1287 45.8267 92.6008 45.7758 93.1931C45.7758 93.2704 45.7504 93.3734 45.7249 93.4506L45.0888 95.3562C45.0634 95.4592 45.0379 95.588 45.0379 95.691V102.747C45.0379 103.03 44.9361 103.288 44.7326 103.494L40.4579 107.845C40.2543 108.051 39.9999 108.154 39.72 108.154H22.7992V108.129Z" fill="#33145C"/>
<path d="M44.5028 102.979H21.4498C19.5414 102.979 17.9893 104.549 17.9893 106.481V109.828C17.9893 111.76 19.5414 113.33 21.4498 113.33H44.5028C46.4111 113.33 47.9632 111.76 47.9632 109.828V106.481C47.9378 104.524 46.4111 102.979 44.5028 102.979Z" fill="#33145C"/>
<path d="M39.8722 34.7897C40.6864 29.8455 40.9154 24.103 40.9663 20.1631C40.9663 19.3905 40.3556 18.7468 39.5923 18.7468H39.5668C38.8035 18.7468 38.1928 19.3648 38.1674 20.1373C38.1165 23.9742 37.8875 29.588 37.0987 34.3519C37.0987 34.4292 37.0732 34.4807 37.0732 34.5579C37.0732 35.3305 37.6839 35.9742 38.4727 36C39.1852 35.9742 39.7449 35.4592 39.8722 34.7897Z" fill="black"/>
<path d="M41.2208 15.6567H47.6328C48.3962 15.6567 49.0323 15.0386 49.0323 14.2403C49.0323 13.4678 48.4216 12.824 47.6328 12.824H41.2208C40.4574 12.824 39.8213 13.4678 39.8213 14.2403C39.8467 15.0386 40.4574 15.6567 41.2208 15.6567Z" fill="black"/>
<path d="M44.4014 17.0987C43.638 17.1244 43.0273 17.7682 43.0273 18.5408L43.0782 21.1931C43.1037 21.9656 43.7144 22.5837 44.4777 22.5837H44.5031C45.2665 22.5579 45.8772 21.9141 45.8517 21.1416L45.8008 18.515C45.8008 17.7425 45.1647 17.1244 44.4014 17.1244V17.0987Z" fill="black"/>
<path d="M41.2971 1.69957C41.3989 2.24035 41.4498 3.27039 41.1953 3.70816L41.1699 3.75966C40.4829 4.94421 38.8544 7.67382 40.3048 10.1459C40.6864 10.7897 41.5261 10.9957 42.1622 10.6352C42.8238 10.2489 43.0782 9.39915 42.6966 8.72962C42.1113 7.69957 43.0528 6.07726 43.5617 5.22747L43.5871 5.17597C43.8416 4.71245 44.0197 4.22318 44.096 3.68241C44.9866 4.30043 45.6991 5.15022 46.1825 6.15451L46.208 6.23176C46.5642 7.0043 46.437 7.93133 45.8772 8.60086C45.4955 9.16739 45.5464 9.93992 46.0298 10.4292C46.5896 10.97 47.4547 10.97 47.9891 10.4034C49.2359 8.90987 49.5158 6.84979 48.727 5.07297L48.6761 4.96996C46.8695 1.13305 43.1546 0.128759 43.0019 0.077257C42.5439 -0.0514984 42.035 0.077257 41.6788 0.412021C41.3225 0.721034 41.1953 1.23606 41.2971 1.69957Z" fill="black"/>
<path d="M51.7292 112.584C51.7292 111.811 51.0931 111.167 50.3297 111.193H46.8438V108.824C46.8438 106.172 44.7319 104.034 42.1111 104.034H42.0602L41.9075 101.614L41.933 101.588C43.0271 100.944 43.6632 99.7339 43.5614 98.4721C43.4342 96.7468 43.2815 94.3519 43.078 91.6481C43.2815 91.6481 43.4851 91.5708 43.6632 91.4936C44.3502 91.133 44.5792 90.2833 44.223 89.588L33.9178 70.1974C33.5616 69.5794 32.7728 69.3219 32.1113 69.6567C31.4243 69.9914 31.1189 70.8412 31.4751 71.5365L40.05 87.7082C40.0246 87.8369 40.0246 87.9399 40.0246 88.0687C40.3045 92.3434 40.5589 96.206 40.7371 98.6781C40.7625 98.8069 40.7116 98.9356 40.6353 99.0386C40.4826 99.2704 40.1518 99.3219 39.9228 99.1416L29.5668 92.1373C29.4905 92.0858 29.4396 91.9828 29.4396 91.8798C29.4396 91.7768 29.4905 91.6996 29.5668 91.6481L30.7881 90.9013C32.1622 90.0773 32.6711 88.3004 31.9586 86.8584L26.6406 66.8755C26.4371 66.1545 25.6992 65.7425 24.9867 65.9228C24.2488 66.103 23.7654 66.8498 23.9435 67.6223L28.0655 83.1245L22.1369 77.897C21.3227 77.2017 20.8647 76.1717 20.8647 75.0901V54.5665C20.8647 51.7339 22.4931 49.1331 25.0376 47.9485C30.9408 45.2189 34.4267 42.412 36.1315 40.764C38.3198 43.7768 41.6785 45.3477 42.2892 45.6052C42.4673 45.7082 43.1289 46.1974 42.9508 46.97C42.7981 47.588 41.3477 48.0515 40.5844 48.103C39.8719 48.1545 39.3121 48.7725 39.3121 49.4936V55.2876L33.409 49.3391C33.3835 49.3133 33.3581 49.2876 33.3326 49.2618C32.7728 48.7468 31.8823 48.7725 31.3734 49.3391C30.8645 49.9056 30.8899 50.8069 31.4497 51.3219L39.6938 59.6395L39.7193 59.6652C40.1009 60.0773 40.279 60.618 40.2282 61.1846C40.2027 61.3648 40.1518 61.5451 40.1009 61.6996L36.7677 58.4292C36.2333 57.9399 35.3936 57.9399 34.8593 58.4549C34.2995 58.9957 34.2995 59.897 34.8084 60.4378L38.7524 64.3262C38.7778 66.9785 38.9559 71.2532 39.2867 77.0987C39.3376 77.8713 39.9992 78.4635 40.7625 78.412C41.5258 78.3605 42.1111 77.691 42.0602 76.9185C41.7548 71.2017 41.5767 67.0043 41.5513 64.3777C43.2815 62.7296 43.5105 60.0258 42.0856 58.0944V50.6009C43.3833 50.2661 45.2408 49.4421 45.6733 47.5107C46.1314 45.5022 45.0118 44.0601 44.0703 43.3391C45.2408 39.8112 45.8006 36.1288 45.7751 32.3949V25.8798C45.7751 25.8283 45.7751 25.8026 45.7751 25.7511C45.7497 24.9786 45.0881 24.3605 44.3248 24.412C43.5614 24.4378 42.9508 25.1073 43.0016 25.8798V32.3949C43.0271 35.6137 42.5691 38.8326 41.6276 41.9228C40.279 41.0472 38.5488 39.6567 37.6582 37.7511C37.5565 37.5451 37.4292 37.3648 37.2511 37.2361C36.6404 36.7725 35.7753 36.8755 35.2919 37.4936C34.8339 38.0343 34.3504 38.5494 33.8161 39.0129V33.8627H34.2995H34.325C35.0374 33.8369 35.6481 33.2704 35.6735 32.5236C35.7244 31.7511 35.1138 31.0816 34.3504 31.0301L33.6634 31.0043C33.5362 30.4893 33.3581 30.0258 33.1036 29.5622L34.5794 27.7339C35.012 27.1416 34.9356 26.3176 34.3759 25.8283C33.7906 25.3133 32.9255 25.3648 32.4166 25.9571L31.1698 27.5022C30.6864 27.1931 30.152 26.9614 29.5922 26.8069V24.9271C29.5922 24.8755 29.5922 24.8498 29.5922 24.7983C29.5668 24.0258 28.9052 23.4077 28.1419 23.4592C27.3785 23.485 26.7679 24.1545 26.8187 24.9271V26.7811C26.259 26.9356 25.7246 27.1674 25.2412 27.4764L23.9944 25.9313C23.5109 25.3391 22.6458 25.2361 22.0351 25.7253C21.4499 26.2146 21.3481 27.0901 21.8316 27.7082L23.3074 29.5622C23.0529 30 22.8748 30.4893 22.7476 31.0043L20.6611 31.0301C19.9487 31.0558 19.3634 31.6481 19.338 32.3949C19.3125 33.1674 19.9232 33.8369 20.6866 33.8627H20.712L22.5949 33.8369V39.6309C22.5949 41.9485 23.46 43.7253 24.9613 44.7811C24.6305 44.9614 24.2743 45.1416 23.918 45.2961C20.3812 46.9442 18.1166 50.5236 18.1166 54.4635V57.2961C18.0403 57.3734 17.964 57.4764 17.9131 57.5794C17.3533 58.6867 16.6663 59.7167 15.8775 60.6438C15.3686 61.2361 15.4195 62.1116 16.0047 62.6266C16.5899 63.1416 17.4551 63.0901 17.964 62.4979C18.0148 62.4464 18.0657 62.3691 18.1166 62.2919V66.8755L10.1015 58.1202C9.59262 57.5794 8.75294 57.5022 8.19315 57.9914L2.11184 63.3476C2.06096 63.3992 1.98462 63.4507 1.93373 63.5022C0.12715 65.2017 0.025371 68.0601 1.73017 69.8884L9.59262 78.3863C11.2465 80.1889 14.02 80.3176 15.8266 78.6695C16.4118 78.1545 16.4373 77.2532 15.9284 76.6867C15.4195 76.0944 14.5289 76.0687 13.9691 76.5837C13.2821 77.2017 12.2389 77.1502 11.6028 76.4807L3.74031 67.9828C3.71487 67.9571 3.68942 67.9313 3.66398 67.9056C3.0533 67.1846 3.15508 66.103 3.86754 65.485L8.98194 61.1331L18.1421 71.1502V75.0901C18.1421 76.7125 18.7527 78.309 19.8469 79.4936L18.2438 103.983H18.2184C15.5976 103.983 13.4857 106.12 13.4857 108.773V111.142H8.77838C8.72749 111.142 8.70205 111.142 8.65116 111.142C7.88781 111.167 7.27714 111.837 7.32803 112.609C7.35347 113.382 8.01504 114 8.77838 113.949H50.3552C51.1185 114 51.7292 113.356 51.7292 112.584ZM31.1189 32.3691C29.3632 31.3133 27.2004 31.3133 25.4447 32.3691C25.4702 30.7983 26.7424 29.5622 28.2945 29.5622C29.8212 29.5622 31.068 30.824 31.1189 32.3691ZM31.1444 41.3047C30.3556 41.8713 29.4396 42.4635 28.3963 43.0816C26.4371 43.0301 25.4447 41.897 25.4447 39.7339V37.2618C25.4447 37.2103 25.4447 37.1588 25.4447 37.0816C25.4956 35.485 26.7933 34.2489 28.3709 34.3004C29.9485 34.3519 31.1698 35.6652 31.1189 37.2618V41.1502C31.1189 41.2017 31.1189 41.2532 31.1444 41.3047ZM44.0703 111.167H16.2846V108.798C16.2846 107.691 17.1497 106.815 18.2438 106.815H22.6967C23.4091 106.79 23.9944 106.197 24.0198 105.476C24.0453 104.704 23.46 104.034 22.6967 104.009H21.0428L22.4931 81.8884L29.465 88.0429C29.5413 88.0944 29.5668 88.1974 29.5668 88.2747C29.5668 88.3777 29.5159 88.4549 29.4396 88.5064L28.2182 89.2275C27.8111 89.4592 27.4803 89.794 27.2259 90.1803C26.2844 91.5966 26.6915 93.5279 28.091 94.4549L38.4216 101.459C38.6251 101.614 38.8541 101.717 39.1086 101.82L39.2613 104.009H30.2029C30.152 104.009 30.1266 104.009 30.0757 104.009C29.3123 104.034 28.7017 104.704 28.7526 105.476C28.778 106.249 29.4396 106.867 30.2029 106.815H42.0856C43.1798 106.815 44.0449 107.717 44.0449 108.798V111.167H44.0703Z" fill="black"/>
<path d="M3.30765 112.584C3.30765 111.811 2.67153 111.193 1.90818 111.193H1.32295C0.610498 111.219 0.0252673 111.811 -0.000177457 112.532C-0.0256223 113.305 0.559608 113.974 1.32295 114H1.93363C2.69697 114 3.30765 113.356 3.30765 112.584Z" fill="black"/>
<path d="M132.135 111.631H50.1006V114H132.135V111.631Z" fill="black"/>
</g>
<defs>
<clipPath id="clip0">
<rect width="133" height="114" fill="white"/>
</clipPath>
</defs>
</svg>
