<svg width="685" height="618" viewBox="0 0 685 618" fill="none" xmlns="http://www.w3.org/2000/svg">
<g filter="url(#filter0_d)">
<rect x="83" y="12" width="586" height="586" rx="293" fill="url(#paint0_linear)"/>
</g>
<g filter="url(#filter1_d)">
<rect x="16" y="21" width="72" height="72" rx="36" fill="url(#paint1_linear)"/>
</g>
<g clip-path="url(#clip0)">
<path d="M450.33 236.027H444.637V277.138H450.33V236.027Z" fill="#2281C4"/>
<path d="M452.465 179.827V235.195C452.465 236.74 453.532 238.166 454.956 238.641L478.441 246.364C479.035 246.602 479.628 246.602 480.221 246.483L532.648 237.809L545.696 235.552C547.475 235.195 548.78 233.77 548.78 231.987V180.183C548.78 178.639 547.713 177.213 546.289 176.738C542.138 175.431 533.123 173.411 519.601 175.906C500.385 179.471 488.998 185.055 480.814 182.797C473.341 180.659 469.545 177.451 456.498 176.262C454.363 176.025 452.465 177.688 452.465 179.827Z" fill="#33145C"/>
<path d="M474.288 279.276L459.461 266.444C458.157 265.256 456.14 265.256 454.835 266.325L434.79 282.128C431.943 284.385 433.722 288.9 437.399 288.663L472.272 285.692C475.474 285.455 476.779 281.415 474.288 279.276Z" fill="#33145C"/>
<path d="M543.323 347.714H365.875C358.521 347.714 352.59 341.774 352.59 334.407V292.584C352.59 285.217 358.521 279.276 365.875 279.276H543.323C550.677 279.276 556.607 285.217 556.607 292.584V334.288C556.607 341.774 550.677 347.714 543.323 347.714Z" fill="#33145C"/>
<path d="M610.341 304.941H593.023C589.346 304.941 586.262 307.911 586.262 311.713V335.952C586.262 339.635 589.227 342.724 593.023 342.724H610.341C614.018 342.724 617.102 339.754 617.102 335.952V311.713C617.102 308.03 614.018 304.941 610.341 304.941Z" fill="#33145C"/>
<path d="M659.449 363.636H314.754C312.026 363.636 309.891 361.497 309.891 358.764V340.585C309.891 337.853 312.026 335.714 314.754 335.714H659.449C662.177 335.714 664.312 337.853 664.312 340.585V358.764C664.43 361.497 662.177 363.636 659.449 363.636Z" fill="#33145C"/>
<path d="M312.853 371.478H298.026C293.4 371.478 289.723 367.794 289.723 363.161V313.258C289.723 308.624 293.4 304.941 298.026 304.941H312.853C317.479 304.941 321.156 308.624 321.156 313.258V363.161C321.156 367.794 317.479 371.478 312.853 371.478Z" fill="#33145C"/>
<path d="M666.801 554.93H283.437C273.948 554.93 266.238 547.207 266.238 537.702V371.121C266.238 361.616 273.948 353.893 283.437 353.893H666.801C676.29 353.893 684 361.616 684 371.121V537.702C684 547.207 676.29 554.93 666.801 554.93Z" fill="#33145C"/>
<path d="M666.562 371.478H642.958V355.794H650.786C655.175 355.794 658.615 352.229 658.615 347.952C658.615 343.556 655.057 340.11 650.786 340.11H611.525V316.466C611.525 312.07 607.966 308.624 603.696 308.624H572.263C567.875 308.624 564.435 312.188 564.435 316.466V340.11H548.778V292.94C548.778 288.544 545.219 285.098 540.949 285.098H472.152L446.769 265.375V246.008C451.276 246.483 455.665 247.552 459.935 249.097C476.778 254.919 495.164 254.919 512.007 249.097C518.768 246.602 525.885 245.414 533.12 245.532C537.509 245.532 540.949 241.968 540.949 237.691V190.52C540.949 186.124 537.391 182.679 533.12 182.679C524.224 182.56 515.447 183.986 507.144 187.075C493.503 191.827 478.676 191.827 465.036 187.075C456.732 183.986 447.836 182.56 439.059 182.679C434.67 182.679 431.23 186.243 431.23 190.52V265.375L405.609 284.979H336.813C332.424 284.979 328.984 288.544 328.984 292.821V339.991H313.327V316.466C313.327 312.07 309.769 308.624 305.499 308.624H274.066C269.677 308.624 266.237 312.188 266.237 316.466V340.11H219.147V355.794H234.804V371.478H211.2C206.811 371.478 203.371 375.042 203.371 379.32V552.316C203.371 556.712 206.93 560.158 211.2 560.158H666.562C670.951 560.158 674.391 556.594 674.391 552.316V379.32C674.391 375.042 670.951 371.478 666.562 371.478ZM627.301 371.478H611.644V355.794H627.301V371.478ZM548.778 371.478V355.794H564.553V371.478H548.778ZM344.641 371.478V355.794H533.002V371.478H344.641ZM399.679 481.62H478.202V497.304H399.679V481.62ZM478.202 513.107V544.593H446.769V513.107H478.202ZM478.202 465.818H399.679V387.161H478.202V465.818ZM313.327 371.478V355.794H328.984V371.478H313.327ZM281.894 355.794H297.551V371.478H281.894V355.794ZM359.943 340.11L438.94 279.276L517.938 340.11H359.943ZM580.211 355.794H595.868V371.478H580.211V355.794ZM580.211 324.308H595.868V339.991H580.211V324.308ZM533.12 300.782V331.912L492.554 300.663H533.12V300.782ZM446.769 198.838C451.276 199.313 455.665 200.382 459.935 201.927C476.778 207.749 495.164 207.749 512.007 201.927C516.277 200.382 520.666 199.313 525.173 198.838V230.205C519.005 230.68 512.837 232.106 507.025 234.245C493.384 238.998 478.558 238.998 464.917 234.245C459.105 232.106 452.937 230.799 446.769 230.205V198.838ZM385.208 300.782L344.641 331.912V300.663H385.208V300.782ZM281.894 324.308H297.551V339.991H281.894V324.308ZM250.461 355.794H266.118V371.478H250.461V355.794ZM219.028 387.28H321.037V544.593H297.433V528.909H281.776V544.593H258.171V528.909H242.514V544.593H218.91V387.28H219.028ZM336.813 387.28H352.47V544.593H336.813V387.28ZM368.246 387.28H383.903V544.593H368.246V387.28ZM399.679 513.107H431.112V544.593H399.679V513.107ZM493.859 387.28H509.516V544.593H493.859V387.28ZM525.292 387.28H540.949V544.593H525.292V387.28ZM658.734 544.474H635.129V528.791H619.472V544.474H595.868V528.791H580.211V544.474H556.606V387.28H658.615V544.474H658.734Z" fill="black"/>
<path d="M595.868 402.964H580.211V418.648H595.868V402.964Z" fill="black"/>
<path d="M635.13 402.964H619.473V418.648H635.13V402.964Z" fill="black"/>
<path d="M595.868 434.45H580.211V450.134H595.868V434.45Z" fill="black"/>
<path d="M635.13 434.45H619.473V450.134H635.13V434.45Z" fill="black"/>
<path d="M595.868 465.818H580.211V481.502H595.868V465.818Z" fill="black"/>
<path d="M635.13 465.818H619.473V481.502H635.13V465.818Z" fill="black"/>
<path d="M595.868 497.304H580.211V512.988H595.868V497.304Z" fill="black"/>
<path d="M635.13 497.304H619.473V512.988H635.13V497.304Z" fill="black"/>
<path d="M297.552 402.964H281.895V418.648H297.552V402.964Z" fill="black"/>
<path d="M258.29 402.964H242.633V418.648H258.29V402.964Z" fill="black"/>
<path d="M297.552 434.45H281.895V450.134H297.552V434.45Z" fill="black"/>
<path d="M258.29 434.45H242.633V450.134H258.29V434.45Z" fill="black"/>
<path d="M297.552 465.818H281.895V481.502H297.552V465.818Z" fill="black"/>
<path d="M258.29 465.818H242.633V481.502H258.29V465.818Z" fill="black"/>
<path d="M297.552 497.304H281.895V512.988H297.552V497.304Z" fill="black"/>
<path d="M258.29 497.304H242.633V512.988H258.29V497.304Z" fill="black"/>
<path d="M430.993 402.964H415.336V418.648H430.993V402.964Z" fill="black"/>
<path d="M462.427 402.964H446.77V418.648H462.427V402.964Z" fill="black"/>
<path d="M430.993 434.45H415.336V450.134H430.993V434.45Z" fill="black"/>
<path d="M462.427 434.45H446.77V450.134H462.427V434.45Z" fill="black"/>
<path d="M266.238 88.576C266.119 88.4572 266.119 88.3384 266 88.2196C265.289 86.7938 261.612 77.8825 265.289 68.8525C268.491 61.1294 271.101 49.129 272.05 44.2575C272.287 43.1882 273.473 42.5941 274.541 43.1882C281.539 47.4655 304.194 63.0305 297.552 80.9718C297.552 81.0906 297.433 81.2094 297.433 81.3282L291.147 91.3088C290.791 91.784 290.317 92.0217 289.723 92.0217H269.678C269.203 92.0217 268.729 91.784 268.373 91.4276L266.238 88.576Z" fill="#33145C"/>
<path d="M292.097 112.458H265.528C261.969 112.458 259.004 109.607 259.004 105.923C259.004 102.359 261.851 99.3883 265.528 99.3883H292.097C295.656 99.3883 298.621 102.24 298.621 105.923C298.621 109.607 295.656 112.458 292.097 112.458Z" fill="#33145C"/>
<path d="M172.652 182.322H164.942C162.57 182.322 160.672 184.223 160.672 186.599V187.075C160.672 189.451 162.57 191.352 164.942 191.352H172.652C175.024 191.352 176.922 189.451 176.922 187.075V186.599C177.041 184.223 175.024 182.322 172.652 182.322Z" fill="#2281C4"/>
<path d="M182.97 165.925L177.988 159.985C176.446 158.202 173.718 157.965 171.939 159.509L171.583 159.747C169.804 161.292 169.566 164.024 171.108 165.807L176.09 171.747C177.632 173.53 180.36 173.767 182.14 172.223L182.495 171.985C184.275 170.559 184.512 167.827 182.97 165.925Z" fill="#2281C4"/>
<path d="M204.202 163.43V155.707C204.202 153.331 202.304 151.43 199.932 151.43H199.458C197.085 151.43 195.188 153.331 195.188 155.707V163.43C195.188 165.807 197.085 167.708 199.458 167.708H199.932C202.304 167.708 204.202 165.807 204.202 163.43Z" fill="#2281C4"/>
<path d="M221.641 178.282L226.741 172.46C228.283 170.678 228.165 167.945 226.386 166.282L226.03 166.044C224.251 164.5 221.522 164.618 219.862 166.401L214.761 172.223C213.219 174.005 213.338 176.738 215.117 178.401L215.473 178.639C217.252 180.302 219.98 180.065 221.641 178.282Z" fill="#2281C4"/>
<path d="M210.136 168.183H208.949C197.207 168.183 187.836 177.688 187.836 189.332V219.63C187.836 231.393 197.325 240.78 208.949 240.78H210.136C221.878 240.78 231.249 231.274 231.249 219.63V189.332C231.249 177.688 221.76 168.183 210.136 168.183Z" fill="#33145C"/>
<path d="M144.893 395.835C144.656 396.073 144.3 396.192 144.063 396.429C141.572 397.855 129.473 404.033 123.78 396.192C118.561 389.063 92.5842 356.15 82.7391 343.794C80.6041 341.18 81.0785 337.377 83.688 335.239L113.935 310.169C116.544 308.03 120.459 308.386 122.594 311L157.941 354.487C158.89 355.556 159.364 356.982 159.364 358.408V381.102C159.364 383.003 158.534 384.666 157.111 385.855L144.893 395.835Z" fill="#33145C"/>
<path d="M170.281 540.91C172.653 541.86 174.432 489.462 175.025 416.984C175.5 361.735 169.688 287.475 170.281 283.91C171.823 274.999 225.437 250.76 231.961 243.631C238.366 236.502 258.768 212.739 258.768 188.619V125.884C258.768 123.152 261.021 121.013 263.631 121.013H282.965C285.574 121.013 287.71 123.033 287.828 125.647C288.896 143.232 291.742 206.679 282.728 236.146C282.372 237.096 282.372 238.166 282.728 239.235C284.27 243.988 288.777 259.315 284.863 270.009C281.542 278.92 275.374 283.554 271.934 285.574C270.392 286.524 269.443 288.069 269.443 289.851C269.799 310.644 272.29 430.411 275.374 444.431C278.339 457.857 277.627 469.264 277.39 471.996C277.39 472.353 277.271 472.828 277.153 473.185L274.187 481.977C274.069 482.452 273.95 483.046 273.95 483.522V516.077C273.95 517.384 273.476 518.572 272.527 519.523L252.6 539.603C251.651 540.553 250.464 541.029 249.16 541.029H170.281V540.91Z" fill="#33145C"/>
<path d="M271.456 517.147H163.991C155.095 517.147 147.859 524.394 147.859 533.306V548.752C147.859 557.663 155.095 564.911 163.991 564.911H271.456C280.352 564.911 287.588 557.663 287.588 548.752V533.306C287.469 524.276 280.352 517.147 271.456 517.147Z" fill="#33145C"/>
<path d="M249.868 202.521C253.664 179.708 254.731 153.212 254.968 135.033C254.968 131.469 252.122 128.498 248.563 128.498H248.445C244.886 128.498 242.039 131.35 241.921 134.914C241.684 152.618 240.616 178.52 236.939 200.501C236.939 200.857 236.82 201.095 236.82 201.452C236.82 205.016 239.667 207.986 243.344 208.105C246.665 207.986 249.275 205.61 249.868 202.521Z" fill="black"/>
<path d="M256.157 114.24H286.048C289.606 114.24 292.571 111.389 292.571 107.705C292.571 104.141 289.725 101.171 286.048 101.171H256.157C252.598 101.171 249.633 104.141 249.633 107.705C249.751 111.389 252.598 114.24 256.157 114.24Z" fill="black"/>
<path d="M270.983 120.894C267.425 121.013 264.578 123.983 264.578 127.548L264.815 139.786C264.934 143.35 267.781 146.202 271.339 146.202H271.458C275.016 146.083 277.863 143.113 277.744 139.548L277.507 127.429C277.507 123.864 274.542 121.013 270.983 121.013V120.894Z" fill="black"/>
<path d="M256.512 49.8419C256.987 52.337 257.224 57.0897 256.038 59.1096L255.919 59.3472C252.716 64.8127 245.125 77.4073 251.886 88.8136C253.665 91.784 257.58 92.7346 260.545 91.0711C263.629 89.2889 264.815 85.368 263.036 82.2787C260.308 77.5261 264.696 70.0407 267.069 66.1197L267.187 65.8821C268.374 63.7434 269.204 61.4859 269.56 58.9907C273.711 61.8423 277.032 65.7633 279.286 70.3971L279.405 70.7536C281.065 74.318 280.472 78.5954 277.863 81.6847C276.084 84.2986 276.321 87.8631 278.574 90.1206C281.184 92.6158 285.217 92.6158 287.708 90.0018C293.52 83.1105 294.825 73.6051 291.148 65.4068L290.91 64.9316C282.489 47.2279 265.171 42.5941 264.459 42.3564C262.324 41.7624 259.952 42.3564 258.291 43.9011C256.631 45.3269 256.038 47.7032 256.512 49.8419Z" fill="black"/>
<path d="M305.144 561.465C305.144 557.901 302.179 554.93 298.62 555.049H282.37V544.118C282.37 531.88 272.525 522.018 260.308 522.018H260.071L259.359 510.849L259.478 510.73C264.578 507.76 267.543 502.176 267.069 496.354C266.476 488.393 265.764 477.343 264.815 464.867C265.764 464.867 266.713 464.511 267.543 464.154C270.746 462.491 271.814 458.57 270.153 455.362L222.114 365.893C220.453 363.042 216.776 361.854 213.692 363.398C210.49 364.943 209.066 368.864 210.727 372.072L250.7 446.688C250.581 447.283 250.581 447.758 250.581 448.352C251.886 468.075 253.072 485.898 253.903 497.304C254.021 497.898 253.784 498.492 253.428 498.968C252.717 500.037 251.175 500.275 250.107 499.443L201.831 467.125C201.475 466.887 201.238 466.412 201.238 465.937C201.238 465.461 201.475 465.105 201.831 464.867L207.524 461.422C213.929 457.62 216.302 449.421 212.981 442.767L188.19 350.566C187.241 347.239 183.801 345.338 180.48 346.17C177.04 347.002 174.787 350.447 175.617 354.012L194.832 425.539L167.195 401.419C163.4 398.211 161.264 393.459 161.264 388.468V293.772C161.264 280.702 168.856 268.702 180.717 263.236C208.236 250.641 224.486 237.691 232.433 230.086C242.634 243.988 258.291 251.236 261.138 252.424C261.968 252.899 265.052 255.157 264.222 258.721C263.51 261.573 256.749 263.711 253.191 263.949C249.87 264.187 247.26 267.038 247.26 270.365V297.099L219.742 269.652C219.623 269.533 219.504 269.414 219.386 269.296C216.776 266.919 212.625 267.038 210.252 269.652C207.88 272.266 207.999 276.425 210.608 278.801L249.039 317.179L249.158 317.297C250.937 319.199 251.768 321.694 251.53 324.308C251.412 325.139 251.175 325.971 250.937 326.684L235.399 311.594C232.908 309.337 228.994 309.337 226.503 311.713C223.893 314.208 223.893 318.367 226.265 320.862L244.651 338.803C244.769 351.041 245.6 370.765 247.142 397.736C247.379 401.301 250.463 404.033 254.021 403.796C257.58 403.558 260.308 400.469 260.071 396.904C258.647 370.527 257.817 351.16 257.698 339.041C265.764 331.437 266.832 318.961 260.189 310.05V275.474C266.239 273.929 274.898 270.127 276.914 261.216C279.049 251.948 273.83 245.295 269.441 241.968C274.898 225.69 277.507 208.699 277.388 191.471V161.41C277.388 161.173 277.388 161.054 277.388 160.816C277.27 157.252 274.186 154.4 270.627 154.638C267.069 154.757 264.222 157.846 264.459 161.41V191.471C264.578 206.323 262.443 221.175 258.054 235.433C251.768 231.393 243.702 224.977 239.55 216.185C239.076 215.234 238.483 214.403 237.652 213.808C234.806 211.67 230.773 212.145 228.519 214.997C226.384 217.492 224.13 219.868 221.639 222.007V198.243H223.893H224.012C227.333 198.125 230.18 195.511 230.298 192.065C230.536 188.501 227.689 185.411 224.13 185.174L220.928 185.055C220.335 182.679 219.504 180.54 218.318 178.401L225.198 169.965C227.214 167.232 226.858 163.43 224.249 161.173C221.521 158.796 217.488 159.034 215.116 161.767L209.303 168.896C207.05 167.47 204.559 166.401 201.949 165.688V157.014C201.949 156.777 201.949 156.658 201.949 156.42C201.831 152.856 198.747 150.004 195.188 150.242C191.63 150.361 188.783 153.45 189.02 157.014V165.569C186.411 166.282 183.92 167.351 181.666 168.777L175.854 161.648C173.6 158.915 169.568 158.44 166.721 160.698C163.993 162.955 163.518 166.995 165.772 169.846L172.651 178.401C171.465 180.421 170.635 182.679 170.042 185.055L160.316 185.174C156.994 185.293 154.266 188.025 154.148 191.471C154.029 195.035 156.876 198.125 160.434 198.243H160.553L169.33 198.125V224.858C169.33 235.552 173.363 243.75 180.361 248.622C178.819 249.453 177.159 250.285 175.498 250.998C159.011 258.602 148.454 275.118 148.454 293.297V306.366C148.098 306.723 147.742 307.198 147.505 307.673C144.896 312.782 141.693 317.535 138.016 321.812C135.644 324.545 135.881 328.585 138.609 330.961C141.337 333.338 145.37 333.1 147.742 330.367C147.98 330.13 148.217 329.773 148.454 329.417V350.566L111.09 310.168C108.718 307.673 104.804 307.317 102.194 309.574L73.8453 334.288C73.6081 334.526 73.2522 334.763 73.015 335.001C64.5933 342.843 64.1189 356.032 72.0661 364.468L108.718 403.677C116.428 411.994 129.357 412.588 137.779 404.984C140.507 402.608 140.625 398.449 138.253 395.835C135.881 393.102 131.729 392.983 129.12 395.36C125.917 398.211 121.054 397.974 118.089 394.885L81.4367 355.675C81.318 355.556 81.1994 355.438 81.0808 355.319C78.2341 351.992 78.7085 347.002 82.0297 344.15L105.871 324.07L148.573 370.29V388.468C148.573 395.954 151.419 403.32 156.52 408.786L149.047 521.78H148.929C136.711 521.78 126.866 531.642 126.866 543.88V554.811H104.922C104.685 554.811 104.567 554.811 104.329 554.811C100.771 554.93 97.9241 558.019 98.1614 561.584C98.28 565.148 101.364 568 104.922 567.762H298.739C302.298 568 305.144 565.03 305.144 561.465ZM209.066 191.352C200.882 186.481 190.8 186.481 182.615 191.352C182.734 184.104 188.665 178.401 195.9 178.401C203.017 178.401 208.829 184.223 209.066 191.352ZM209.185 232.581C205.508 235.195 201.238 237.928 196.374 240.78C187.241 240.542 182.615 235.314 182.615 225.334V213.927C182.615 213.69 182.615 213.452 182.615 213.096C182.852 205.729 188.902 200.026 196.256 200.263C203.61 200.501 209.303 206.561 209.066 213.927V231.869C209.066 232.106 209.066 232.344 209.185 232.581ZM269.441 554.93H139.914V543.999C139.914 538.89 143.947 534.85 149.047 534.85H169.805C173.126 534.731 175.854 531.999 175.973 528.672C176.091 525.107 173.363 522.018 169.805 521.899H162.095L168.856 419.836L201.356 448.233C201.712 448.471 201.831 448.946 201.831 449.302C201.831 449.778 201.594 450.134 201.238 450.372L195.544 453.699C193.646 454.768 192.104 456.313 190.918 458.095C186.529 464.63 188.427 473.541 194.951 477.818L243.109 510.136C244.058 510.849 245.125 511.324 246.311 511.8L247.023 521.899H204.796C204.559 521.899 204.44 521.899 204.203 521.899C200.645 522.018 197.798 525.107 198.035 528.672C198.154 532.236 201.238 535.088 204.796 534.85H260.189C265.29 534.85 269.323 539.009 269.323 543.999V554.93H269.441Z" fill="black"/>
<path d="M79.4198 561.465C79.4198 557.901 76.4544 555.049 72.8959 555.049H70.1678C66.8466 555.168 64.1184 557.901 63.9998 561.227C63.8812 564.792 66.6093 567.881 70.1678 568H73.0145C76.573 568 79.4198 565.03 79.4198 561.465Z" fill="black"/>
<path d="M679.969 557.069H297.555V568H679.969V557.069Z" fill="black"/>
</g>
<defs>
<filter id="filter0_d" x="67" y="0" width="618" height="618" filterUnits="userSpaceOnUse" color-interpolation-filters="sRGB">
<feFlood flood-opacity="0" result="BackgroundImageFix"/>
<feColorMatrix in="SourceAlpha" type="matrix" values="0 0 0 0 0 0 0 0 0 0 0 0 0 0 0 0 0 0 127 0" result="hardAlpha"/>
<feOffset dy="4"/>
<feGaussianBlur stdDeviation="8"/>
<feColorMatrix type="matrix" values="0 0 0 0 0 0 0 0 0 0 0 0 0 0 0 0 0 0 0.06 0"/>
<feBlend mode="normal" in2="BackgroundImageFix" result="effect1_dropShadow"/>
<feBlend mode="normal" in="SourceGraphic" in2="effect1_dropShadow" result="shape"/>
</filter>
<filter id="filter1_d" x="0" y="9" width="104" height="104" filterUnits="userSpaceOnUse" color-interpolation-filters="sRGB">
<feFlood flood-opacity="0" result="BackgroundImageFix"/>
<feColorMatrix in="SourceAlpha" type="matrix" values="0 0 0 0 0 0 0 0 0 0 0 0 0 0 0 0 0 0 127 0" result="hardAlpha"/>
<feOffset dy="4"/>
<feGaussianBlur stdDeviation="8"/>
<feColorMatrix type="matrix" values="0 0 0 0 0 0 0 0 0 0 0 0 0 0 0 0 0 0 0.06 0"/>
<feBlend mode="normal" in2="BackgroundImageFix" result="effect1_dropShadow"/>
<feBlend mode="normal" in="SourceGraphic" in2="effect1_dropShadow" result="shape"/>
</filter>
<linearGradient id="paint0_linear" x1="376" y1="12" x2="376" y2="598" gradientUnits="userSpaceOnUse">
<stop stop-color="#C7000D" stop-opacity="0.61"/>
<stop offset="1" stop-color="#C70077" stop-opacity="0.12"/>
</linearGradient>
<linearGradient id="paint1_linear" x1="52" y1="21" x2="52" y2="93" gradientUnits="userSpaceOnUse">
<stop stop-color="#C7000D" stop-opacity="0.61"/>
<stop offset="1" stop-color="#C70077" stop-opacity="0.12"/>
</linearGradient>
<clipPath id="clip0">
<rect width="620" height="526" fill="white" transform="translate(64 42)"/>
</clipPath>
</defs>
</svg>
